<svg id="Group_590" data-name="Group 590" xmlns="http://www.w3.org/2000/svg" xmlns:xlink="http://www.w3.org/1999/xlink" width="473.119" height="423.999" viewBox="0 0 473.119 423.999">
  <defs>
    <clipPath id="clip-path">
      <rect id="Rectangle_263" data-name="Rectangle 263" width="473.119" height="423.999" fill="none" stroke="#dacfb9" stroke-width="1"/>
    </clipPath>
  </defs>
  <line id="Line_7" data-name="Line 7" x2="160.84" transform="translate(156.129 127.23)" fill="none" stroke="#dacfb9" stroke-linecap="round" stroke-linejoin="round" stroke-width="3"/>
  <line id="Line_8" data-name="Line 8" x2="22.291" transform="translate(182.178 254.269)" fill="none" stroke="#dacfb9" stroke-linecap="round" stroke-linejoin="round" stroke-width="3"/>
  <line id="Line_9" data-name="Line 9" x2="30.293" transform="translate(184.022 276.444)" fill="none" stroke="#dacfb9" stroke-linecap="round" stroke-linejoin="round" stroke-width="3"/>
  <g id="Group_589" data-name="Group 589">
    <g id="Group_588" data-name="Group 588" clip-path="url(#clip-path)">
      <path id="Path_436" data-name="Path 436" d="M310.42,554.738c-.477-20.925-1-35.888-1-35.888,0-1.677-9.022-.474-21.33-4.319-15.705-4.906-20.657-7.854-25.71-11.214-5.96-3.963-13.129-11.831-16.137,2.735a24.369,24.369,0,0,0-.425,7.185c1.862,20.379,29.9,31,29.9,31l12.788,128.643-1.591-9.7c-6.667-2.256-9.788,1.85-11.026,4.564-4.256,9.333,3.538,19.693,14.667,19.693,14.411,0,17.94-6.368,18.865-15.185C311.982,647.854,311.267,591.894,310.42,554.738Z" transform="translate(-132.309 -267.938)" fill="none" stroke="#dacfb9" stroke-miterlimit="10" stroke-width="3"/>
      <line id="Line_10" data-name="Line 10" x1="22.291" transform="translate(268.65 254.269)" fill="none" stroke="#dacfb9" stroke-linecap="round" stroke-linejoin="round" stroke-width="3"/>
      <line id="Line_11" data-name="Line 11" x1="30.293" transform="translate(258.803 276.444)" fill="none" stroke="#dacfb9" stroke-linecap="round" stroke-linejoin="round" stroke-width="3"/>
      <path id="Path_437" data-name="Path 437" d="M638.255,554.738c.477-20.925,1-35.888,1-35.888,0-1.677,9.022-.474,21.33-4.319,15.705-4.906,20.657-7.854,25.71-11.214,5.96-3.963,13.129-11.831,16.137,2.735a24.373,24.373,0,0,1,.425,7.185c-1.862,20.379-29.9,31-29.9,31L660.167,672.885l1.591-9.7c6.667-2.256,9.788,1.85,11.026,4.564,4.256,9.333-3.538,19.693-14.667,19.693-14.411,0-17.94-6.368-18.865-15.185C636.693,647.854,637.408,591.894,638.255,554.738Z" transform="translate(-343.247 -267.938)" fill="none" stroke="#dacfb9" stroke-miterlimit="10" stroke-width="3"/>
      <path id="Path_438" data-name="Path 438" d="M495.319,539.488s12.566-6.073,12.566-25.117c0-14.025-12.975-21.37-19.248-24.1a15.315,15.315,0,0,0-6.12-1.272h-5.053a15.318,15.318,0,0,0-6.12,1.272c-6.272,2.731-19.247,10.077-19.247,24.1,0,19.044,12.566,25.117,12.566,25.117l.5,10.612,4.9,108.328a7,7,0,0,0-5.446,6.82l2.051,14.745c0,3.866,3.725,6.613,7.59,6.613H485.73c3.865,0,7.59-2.747,7.59-6.613l2.052-14.745a7,7,0,0,0-5.446-6.82l4.9-108.328Z" transform="translate(-243.431 -263.3)" fill="none" stroke="#dacfb9" stroke-linecap="round" stroke-linejoin="round" stroke-width="3"/>
      <path id="Path_439" data-name="Path 439" d="M446.282,256.507c-23.906-8.509-45.813-16.2-45.813-41.574s11.9-40.479,27.488-47.864c10.162-4.814,22.213-8.971,9.887-7.729-33.272,3.353-53.666,19.078-60.79,48.412a57.557,57.557,0,0,0-.628,26.566,67.6,67.6,0,0,0-49.535-20.927s9.986-.484,9.4-11.3a9.43,9.43,0,0,0-9.43-9.43H147.87a9.43,9.43,0,0,0-9.43,9.43c-.584,10.815,9.4,11.3,9.4,11.3a67.6,67.6,0,0,0-49.535,20.927,57.557,57.557,0,0,0-.628-26.566c-7.124-29.334-27.518-45.059-60.79-48.412-12.325-1.242-.274,2.916,9.887,7.729,15.59,7.385,27.488,22.489,27.488,47.864S52.358,248,28.451,256.507C12.314,262.251,1.109,279.589,1.51,298.355c.821,38.428,36.946,54.735,63.728,41.591,20.377-10,24.89-21.351,28.719-27.368,5.183,6.652,12.875,14.16,20.362,18.4a24.366,24.366,0,0,1,.425-7.184c3.008-14.566,10.177-6.7,16.137-2.735,5.053,3.361,10.005,6.308,25.71,11.214,12.308,3.845,21.33,2.642,21.33,4.319,0,0,.519,14.962,1,35.887h43.618l-.5-10.612s-12.566-6.073-12.566-25.117c0-14.025,12.976-21.371,19.248-24.1a15.324,15.324,0,0,1,6.12-1.272h5.052a15.324,15.324,0,0,1,6.12,1.272c6.272,2.731,19.247,10.077,19.247,24.1,0,19.044-12.565,25.117-12.565,25.117l-.5,10.612h43.618c.477-20.926,1-35.887,1-35.887,0-1.677,9.022-.474,21.33-4.319,15.705-4.905,20.657-7.853,25.71-11.214,5.96-3.963,13.129-11.83,16.137,2.735a24.368,24.368,0,0,1,.425,7.184c7.488-4.238,15.179-11.746,20.362-18.4,3.829,6.017,8.342,17.368,28.719,27.368,26.783,13.144,62.908-3.163,63.728-41.591C473.624,279.589,462.42,262.251,446.282,256.507ZM85.542,309.229c-3.571,3.71-9.347,7.336-15.517,10.049-22.7,9.983-34.165-7.521-35.557-12.581-5.287-19.236,17.07-24.623,30.77-31.728,6.06-3.142,11.26-9,16.583-15.121a1.329,1.329,0,0,1,2.3,1.168c-1.214,5.278-2.369,10.931-2.369,14.664,0,9.78,1.356,17.539,5.155,25.4A7.794,7.794,0,0,1,85.542,309.229ZM440.265,306.7c-1.391,5.061-12.855,22.565-35.557,12.581-6.17-2.713-11.947-6.339-15.517-10.049a7.794,7.794,0,0,1-1.362-8.153c3.8-7.857,5.155-15.616,5.155-25.4,0-3.732-1.155-9.385-2.369-14.664a1.329,1.329,0,0,1,2.3-1.168c5.322,6.116,10.523,11.98,16.582,15.121C423.2,282.073,445.552,287.461,440.265,306.7Z" transform="translate(-0.807 -85.677)" fill="none" stroke="#dacfb9" stroke-linecap="round" stroke-linejoin="round" stroke-width="3"/>
      <path id="Path_440" data-name="Path 440" d="M510.885,107.793H499.1V4.011A2.511,2.511,0,0,1,501.612,1.5h6.762a2.511,2.511,0,0,1,2.511,2.511Z" transform="translate(-268.74 -0.808)" fill="none" stroke="#dacfb9" stroke-linecap="round" stroke-linejoin="round" stroke-width="3"/>
      <line id="Line_12" data-name="Line 12" x2="7.932" transform="translate(232.257 9.419)" fill="none" stroke="#dacfb9" stroke-linecap="round" stroke-linejoin="round" stroke-width="3"/>
      <path id="Path_441" data-name="Path 441" d="M438.364,107.793H426.58V4.011A2.511,2.511,0,0,1,429.091,1.5h6.762a2.511,2.511,0,0,1,2.511,2.511Z" transform="translate(-229.691 -0.808)" fill="none" stroke="#dacfb9" stroke-linecap="round" stroke-linejoin="round" stroke-width="3"/>
      <line id="Line_13" data-name="Line 13" x2="7.932" transform="translate(198.785 9.419)" fill="none" stroke="#dacfb9" stroke-linecap="round" stroke-linejoin="round" stroke-width="3"/>
      <path id="Path_442" data-name="Path 442" d="M584.734,107.793H572.95V4.011A2.511,2.511,0,0,1,575.461,1.5h6.762a2.511,2.511,0,0,1,2.511,2.511Z" transform="translate(-308.504 -0.808)" fill="none" stroke="#dacfb9" stroke-linecap="round" stroke-linejoin="round" stroke-width="3"/>
      <line id="Line_14" data-name="Line 14" x2="7.932" transform="translate(266.342 9.419)" fill="none" stroke="#dacfb9" stroke-linecap="round" stroke-linejoin="round" stroke-width="3"/>
    </g>
  </g>
</svg>
