<svg xmlns="http://www.w3.org/2000/svg" xmlns:xlink="http://www.w3.org/1999/xlink" width="476.359" height="443.781" viewBox="0 0 476.359 443.781">
  <defs>
    <clipPath id="clip-path">
      <rect id="Rectangle_320" data-name="Rectangle 320" width="445.105" height="436.079" fill="none"/>
    </clipPath>
    <clipPath id="clip-path-2">
      <path id="Path_779" data-name="Path 779" d="M81.1,260.044c-22.088-29.9-49.71-80.879-61.433-134.967C10.939,84.814,7.168,40.361,9.3,2.959L3.073,2.017c-.656,8.6-5.144,74.654,7.355,128.476C24.051,189.15,54.968,252.2,71.73,272.856ZM11.144,1.463l-.049.8C8.877,39.679,12.624,84.3,21.38,124.7c11.733,54.131,39.47,105.134,61.513,134.813l.384.519L71.82,275.706l-.722-.854C54.4,255.009,22.6,190.644,8.717,130.891-4.674,73.218,1.335,1.648,1.4.933L1.479,0Z" fill="none"/>
    </clipPath>
    <linearGradient id="linear-gradient" x1="-0.307" y1="-0.001" x2="-0.299" y2="-0.001" gradientUnits="objectBoundingBox">
      <stop offset="0" stop-color="#957430"/>
      <stop offset="0.044" stop-color="#9f7f3c"/>
      <stop offset="0.191" stop-color="#bda162"/>
      <stop offset="0.327" stop-color="#d3ba7d"/>
      <stop offset="0.447" stop-color="#e0c98e"/>
      <stop offset="0.538" stop-color="#e5cf94"/>
      <stop offset="1" stop-color="#957430"/>
    </linearGradient>
    <clipPath id="clip-path-4">
      <path id="Path_781" data-name="Path 781" d="M88.75,302.221c17.728-11.844,31.561-22.2,45.986-37.008q-4.553,6.956-8.777,14.058l-.01-.01c-12.115,12.392-22.156,19.524-39.792,28.268a55.6,55.6,0,0,1-16.3,5.39c6.7-2.554,14.446-7.731,18.888-10.7m140.5-.784a102.518,102.518,0,0,1-17.876-43.379c3.9,16.569,11.736,33.173,23.953,50.879-2.224-2.5-4.231-4.979-6.077-7.5M138.32,256.788c2.2-2.087,4.432-4.208,6.647-6.372q-1.961,2.68-3.87,5.408l-.008-.006c-14.9,16.694-28.4,27.765-45.162,39.4,14.786-12.236,28.773-25.508,42.394-38.432M97.266,291.449c2.3-2.314,4.86-4.885,7.677-7.747,8.709-8.853,17.234-16.249,26.266-24.074,6.906-5.989,13.974-12.119,21.243-19.046q-2.177,2.745-4.3,5.554c-3.389,3.467-6.922,6.818-10.365,10.086-15.537,14.743-31.551,29.934-48.674,43.516,2.208-2.306,4.916-5.027,8.157-8.289m141.99,21.686c-17.429-24.035-26.85-45.886-29.366-68.171q-.2-3.415-.22-6.885a157.684,157.684,0,0,0,39.649,84.461c-3.777-3.276-7.1-6.377-10.063-9.405M94.788,291.1c2.152-2.271,4.378-4.624,6.416-6.922,5.211-5.88,27.72-26.393,56.1-49.54q-.313.372-.624.747c-8.941,8.88-17.581,16.372-25.984,23.654-9.04,7.839-17.581,15.24-26.309,24.115-2.815,2.864-5.371,5.433-7.673,7.749-4.645,4.67-8.2,8.24-10.767,11.077-.624.412-1.3.852-2.007,1.313,3.279-4.189,7.119-8.246,10.849-12.193m180.051-61.363c.589.057,1.176.109,1.756.158.07.008.142.014.211.02a111.066,111.066,0,0,1,19.946,31.274c-6.494-12.488-15.344-25.283-21.912-31.452M120.752,262.49c7.919-6.606,16.235-13.219,24.277-19.614,5.507-4.382,11.147-8.869,16.7-13.381q-.825.931-1.645,1.879c-29.94,24.243-54.035,46.163-59.462,52.283-2.031,2.29-4.251,4.637-6.4,6.906A154.725,154.725,0,0,0,82.037,304.5c-.661.414-1.342.835-2.041,1.256,10.418-16.818,25.714-30.726,40.756-43.27M299.069,275.2c-.71-1.377-1.471-2.757-2.2-4.089-1.116-2.029-2.271-4.122-3.262-6.249-.936-2-1.762-4.091-2.56-6.114-.55-1.4-1.12-2.846-1.723-4.257a78.375,78.375,0,0,0-13.252-20.96,27.373,27.373,0,0,0-4.274-4.091c.587.06,1.173.117,1.752.174,8.121,7.156,20.285,25.625,26.739,40.81q1.721,5.083,3.038,10.388,1.337,5.4,2.261,11.022a91.706,91.706,0,0,0-6.516-16.635m6.5,24.936a74.565,74.565,0,0,0-5.361-11.684c-.819-1.539-1.666-3.135-2.446-4.719a177.878,177.878,0,0,1-7.249-17.852c-1.432-3.933-2.913-8-4.559-11.932-4.756-11.352-10.133-19.3-16.813-24.8l.964.109a22.835,22.835,0,0,1,5.382,4.787A77.515,77.515,0,0,1,288.6,254.8c.6,1.4,1.167,2.839,1.715,4.233.8,2.035,1.631,4.14,2.575,6.163,1,2.144,2.165,4.253,3.287,6.288.732,1.332,1.489,2.7,2.193,4.073a95.091,95.091,0,0,1,8.213,23.486q.518,4.509.78,9.148a48.649,48.649,0,0,0-1.8-8.055m-2.835-2.214c-1.485-3.1-3.238-6.11-4.936-9.023-1.73-2.973-3.521-6.046-5.014-9.2a122.088,122.088,0,0,1-5.271-14.013c-1.233-3.734-2.507-7.589-4.052-11.28a78.5,78.5,0,0,0-17.445-25.642c.554.074,1.1.142,1.652.209,7.031,5.437,12.628,13.5,17.564,25.277,1.637,3.911,3.116,7.971,4.545,11.894a178.148,178.148,0,0,0,7.281,17.934c.788,1.594,1.637,3.192,2.458,4.737a73.54,73.54,0,0,1,5.308,11.557,47.716,47.716,0,0,1,1.756,7.821,62.954,62.954,0,0,0-3.847-10.273m-2.569,2.089c-1.576-2.948-3.289-5.894-4.944-8.74-3.57-6.141-7.261-12.491-9.791-19.216-.845-2.24-1.572-4.563-2.279-6.81-.494-1.574-1-3.2-1.551-4.789A94.972,94.972,0,0,0,262.74,228.3c.657.1,1.315.2,1.966.285a77.677,77.677,0,0,1,18.036,26.118c1.531,3.662,2.8,7.5,4.028,11.221a122.927,122.927,0,0,0,5.308,14.107c1.5,3.18,3.3,6.268,5.043,9.257,1.691,2.9,3.439,5.9,4.9,8.964a62.524,62.524,0,0,1,5.338,17.224c.045.542.088,1.083.133,1.621l.1-.006c.016.107.029.215.043.324,0,.73,0,1.459-.008,2.193-1.446-7.606-4.735-14.5-7.466-19.6m1.57,10.773c-2-3.416-4.294-6.723-6.51-9.92a130.361,130.361,0,0,1-7.53-11.736c-4.062-7.47-6.623-15.759-9.1-23.775-.954-3.088-1.941-6.282-3-9.386-2.885-8.457-7.727-20.349-16.943-28.338q1.437.26,2.868.486a94.223,94.223,0,0,1,19.343,32.6c.542,1.578,1.053,3.2,1.545,4.768.708,2.259,1.44,4.594,2.29,6.851,2.554,6.787,6.262,13.166,9.848,19.337,1.652,2.839,3.359,5.778,4.928,8.716,4.928,9.2,7.546,17.062,8.038,24.263-.006.141-.012.281-.016.421a47.215,47.215,0,0,0-5.761-14.282m-1.12,4.953c-2.085-3.043-4.45-5.954-6.738-8.771a116.278,116.278,0,0,1-7.665-10.176c-6.315-9.8-9.512-21.307-12.607-32.439-.712-2.563-1.424-5.123-2.171-7.659-.8-2.718-1.785-5.913-3.03-9a60.841,60.841,0,0,0-14.214-20.954c.964.211,1.927.406,2.889.593,9.766,7.844,14.811,20.193,17.776,28.883,1.055,3.094,2.039,6.28,2.991,9.364,2.491,8.051,5.064,16.379,9.163,23.918a129.962,129.962,0,0,0,7.575,11.809c2.206,3.184,4.491,6.479,6.475,9.869,3.783,6.463,5.862,12.536,6.219,18.124-.021.363-.045.724-.07,1.087a39.7,39.7,0,0,0-6.594-14.651m-2.56.956c-1.853-2.353-3.865-4.643-5.81-6.859-3.726-4.249-7.579-8.64-10.425-13.58a72.972,72.972,0,0,1-4.384-9.454c-2.573-6.453-4.881-13.106-6.869-19.776-.546-1.838-1.069-3.681-1.594-5.529a143.815,143.815,0,0,0-5.991-18c-3.287-7.567-7.509-13.484-12.571-17.642.759.193,1.516.378,2.277.554a60.05,60.05,0,0,1,14.99,21.586c1.235,3.051,2.212,6.221,3.01,8.923.745,2.534,1.455,5.09,2.167,7.647,3.106,11.188,6.321,22.757,12.7,32.654a117.451,117.451,0,0,0,7.716,10.244c2.279,2.805,4.633,5.7,6.7,8.722,4.43,6.463,6.748,12.6,6.918,18.3,0,.039-.006.08-.01.123-.946-5.658-3.9-11.656-8.824-17.907m-43.126,10.572a156.51,156.51,0,0,1-45.159-95.136q.149-3.877.521-7.821a113.723,113.723,0,0,0,3.915,24.731,178.708,178.708,0,0,0,55.051,88.69,141.229,141.229,0,0,1-14.329-10.464m49.062,2.478c-2.965-6.8-8.1-12.374-13.069-17.77-2.407-2.614-4.9-5.318-7.109-8.127-9.538-12.117-14.723-27.4-18.832-40.767l-.655-2.144c-2.1-6.875-4.27-13.984-7.5-20.547a46.739,46.739,0,0,0-12.6-16.337q2.113.7,4.249,1.284c5.613,4.1,10.248,10.3,13.793,18.469a142.891,142.891,0,0,1,5.956,17.907c.525,1.849,1.052,3.7,1.6,5.536,1.994,6.691,4.311,13.367,6.892,19.844a73.272,73.272,0,0,0,4.432,9.553c2.881,5,6.764,9.427,10.515,13.7,1.937,2.206,3.941,4.491,5.78,6.828,5.564,7.06,8.564,13.765,8.949,19.989a44.141,44.141,0,0,0-2.4-7.423M291.33,315.378c-1.873-2.2-3.884-4.339-5.829-6.409a114.745,114.745,0,0,1-8.633-9.922c-7.593-10.219-11.5-22.691-15.283-34.753-.654-2.078-1.3-4.155-1.972-6.217-4.027-12.425-9.511-26.159-19.729-35.6q.9.357,1.824.7c5.739,3.878,10.587,9.778,14.413,17.55,3.205,6.51,5.367,13.59,7.458,20.435l.656,2.142c4.13,13.44,9.343,28.8,18.964,41.025,2.23,2.829,4.731,5.546,7.15,8.172,4.922,5.349,10.016,10.878,12.926,17.554a44.252,44.252,0,0,1,2.444,7.671c-2.9-8.4-8.086-14.946-14.39-22.349m-3.3-.46q-1.712-1.89-3.445-3.769c-6.6-7.183-13.422-14.61-18.077-23.247-3.359-6.237-5.585-13.116-7.737-19.768-.695-2.142-1.387-4.282-2.119-6.409-5.447-15.861-12.671-29.762-21.487-41.366q1.182.6,2.441,1.159c11.225,9.313,17.047,23.777,21.266,36.8.669,2.064,1.319,4.136,1.97,6.214,3.8,12.123,7.731,24.659,15.4,34.985a113.788,113.788,0,0,0,8.691,9.99c1.935,2.062,3.941,4.194,5.8,6.381,7.127,8.365,12.811,15.626,15.312,25.7-.023.1-.043.2-.066.3-3.588-10.2-10.716-18.976-17.954-26.971M124.149,256.563c15.07-12.577,30.67-24.864,46.446-36.583q-2.733,2.774-5.41,5.679c-6.8,5.6-13.824,11.18-20.642,16.606-8.043,6.395-16.364,13.012-24.292,19.626-15.465,12.9-31.2,27.238-41.686,44.724q-.887.518-1.793,1.026c12.813-20.886,31.967-38.214,47.377-51.078m157.726,55.795c-2.386-2.665-4.856-5.423-7.218-8.166a94.114,94.114,0,0,1-9.288-12.273,100.919,100.919,0,0,1-6.223-12.562c-2.364-5.482-4.659-11.116-6.877-16.567-6.112-15.016-12.419-30.515-20.98-44.618q1.068.673,2.212,1.307c9.241,11.8,16.777,26.1,22.412,42.5.728,2.121,1.42,4.255,2.111,6.395,2.165,6.684,4.4,13.6,7.8,19.895,4.7,8.724,11.557,16.188,18.188,23.4q1.729,1.882,3.439,3.763c7.431,8.209,14.745,17.244,18.155,27.753-.041.113-.084.224-.127.332-6.057-11.571-14.971-21.528-23.6-31.165m1.631,5.568c-8.695-9.469-17.687-19.265-25.578-33.321a140.133,140.133,0,0,1-9.452-21.1c-1.044-2.774-2.123-5.644-3.359-8.6-5.439-12.985-11.017-25.348-17.917-39.7q1.206,1,2.54,1.933c8.978,14.427,15.5,30.441,21.807,45.941,2.22,5.453,4.516,11.093,6.883,16.58a101.681,101.681,0,0,0,6.272,12.661,95.073,95.073,0,0,0,9.366,12.376c2.366,2.751,4.838,5.509,7.226,8.178,8.726,9.747,17.743,19.819,23.76,31.526-.105.185-.218.369-.341.546-6.015-10.474-13.4-18.522-21.206-27.027M115.237,213.02c-9.725,3.73-18.473,9.815-26.973,15.726l-1.258.878c-10.693,7.427-21.284,14.306-33.27,16.879q-.026-.085-.047-.176c-.209-.94.193-2.048,1.264-3.488a41.9,41.9,0,0,1,7.784-7.524c9.69-7.712,22.433-15.191,36.858-21.633l0,0c.373,0,.745,0,1.12,0,4.854,0,9.686-.244,14.524-.661m217.311-.427A43.454,43.454,0,0,1,310.562,226.7c-10.987,2.907-22.747,2.407-33.814,1.442-9.84-.858-21.368-2.226-32.271-5.858a54.766,54.766,0,0,1-12.965-6.061,52.451,52.451,0,0,0,21.934,4.45c3.857-.039,7.768-.314,11.549-.583,6.867-.486,13.96-.985,20.826-.053,3.322.455,7.32.919,10.962,1.344l3.16.373a39.433,39.433,0,0,0,4.594.265,47.31,47.31,0,0,0,28.012-9.429M105.51,270.648A461.236,461.236,0,0,1,144.75,236.8c10.927-8.3,22.152-16.836,33.865-24.542q-2.092,1.905-4.153,3.892c-17.261,12.683-34.353,26.073-50.81,39.811C107.908,269.105,88.27,286.889,75.4,308.392c-.874.47-1.75.921-2.618,1.34,8.229-15.2,21.181-28.128,32.726-39.084m183.5,58.423c-2.581-2.616-5.252-5.322-7.649-8.016C256.144,292.713,237,256.647,222.88,210.888a31.884,31.884,0,0,0,2.815,3c7.267,15.051,13.057,27.854,18.7,41.325,1.233,2.944,2.31,5.806,3.352,8.574a140.916,140.916,0,0,0,9.5,21.2c7.94,14.134,16.963,23.964,25.687,33.469,7.842,8.545,15.256,16.625,21.257,27.156a6.186,6.186,0,0,1-.513.5c-3.939-6.169-9.388-11.692-14.665-17.039M55.032,248.022a3.463,3.463,0,0,1-.917-.806c12.037-2.634,22.64-9.522,33.336-16.953l1.26-.874c9.3-6.471,18.892-13.145,29.7-16.668,6.317-.642,12.647-1.555,19.04-2.595a150.97,150.97,0,0,1-21.333,14.682c-13.512,7.876-26.276,15.314-41.087,20.11-4.961,1.611-10.882,3.531-16.1,3.531a16.684,16.684,0,0,1-3.9-.427M273.222,340.08a177.942,177.942,0,0,1-58.263-91.24c-3.1-11.84-4.366-22.324-3.812-31.733q.5-3.479,1.165-7c-1.186,26.5,8.436,57.9,27.1,87.717,12.821,20.468,27.63,36.284,44.08,47.076a75.361,75.361,0,0,1-10.273-4.821m-208.934-90.4a86.826,86.826,0,0,0,11.292-3.092c14.985-4.854,27.827-12.337,41.425-20.264,6.986-4.07,16.707-10.248,23.682-16.731,3.465-.581,6.947-1.19,10.461-1.8l2.16-.377a160.093,160.093,0,0,1-69.535,39.5,73.819,73.819,0,0,1-18.434,2.778c-.349,0-.7,0-1.05-.012m165.189-9.046a172.884,172.884,0,0,1-7.922-24.087c-.86-3.578-1.565-7.222-2.107-10.888a27.422,27.422,0,0,0,2.068,3.439c14.208,46.829,33.6,83.634,59.261,112.475,2.411,2.708,5.088,5.421,7.675,8.043,5.267,5.338,10.7,10.849,14.6,16.973-.119.082-.242.16-.365.232-32.012-27.634-55.289-61.4-73.212-106.188M167.405,217.48c7.286-5.236,14.04-9.957,21.2-13.672q-3.09,2.42-6.122,5.033c-13.3,8.416-25.935,18.018-38.2,27.341a462.112,462.112,0,0,0-39.306,33.9C93.15,281.3,79.856,294.58,71.6,310.29c-1.159.527-2.294.993-3.381,1.37,23.461-37.981,60.3-66.23,99.186-94.18M74.023,287.847c28.929-35.878,50.36-52.463,84.691-74.039a133.492,133.492,0,0,1,20.548-10.361c-27.22,15.6-48.229,29.883-65.881,44.79-21.637,18.27-38.8,38.079-51.078,58.945,1.97-5.371,6.338-12.663,11.719-19.335M61.23,311.324c.035-.312.088-.64.156-.985,12.326-21.8,29.977-42.49,52.5-61.5,17.995-15.2,39.493-29.753,67.537-45.722.6-.068,1.206-.137,1.81-.2a121.757,121.757,0,0,0-16.208,10.018c-19.8,13.717-40.27,27.9-58.776,43.99C87.66,274.815,72.268,292.678,61.22,311.5a1.05,1.05,0,0,1,.01-.178m1,1.288a3.1,3.1,0,0,1-.455-.258.829.829,0,0,1-.1-.076C72.689,293.39,88.1,275.469,108.76,257.507c18.473-16.06,38.929-30.234,58.711-43.941,5.737-3.976,11.656-8.079,18.168-10.9.137-.012.273-.027.41-.039A101.762,101.762,0,0,0,171.206,212q-4.506,3.225-9.114,6.5c-17.7,12.587-36,25.6-51.928,39.55a242.043,242.043,0,0,0-46.93,54.638,6.976,6.976,0,0,1-1.007-.068m48.45-53.982c15.9-13.923,34.185-26.926,51.868-39.5q4.6-3.272,9.114-6.494c5.258-3.763,10.689-7.647,16.75-10.221l1.448-.117c-7.809,3.855-15.051,8.9-22.909,14.551-39.21,28.188-76.355,56.682-99.867,95.179a16.278,16.278,0,0,1-2.889.6,241.148,241.148,0,0,1,46.485-54m-12.4,96.716c24.468-20.933,37.579-45.717,51.448-71.938l2.4-4.53q1.955-3.687,3.954-7.5c13.588-25.865,28.966-55.139,50.762-69.443.8.072,1.6.111,2.4.111.349,0,.7-.008,1.05-.021a51.164,51.164,0,0,0-8.276,11.116c-10.5,17.53-20.139,37.515-29.462,56.84-2.117,4.386-4.2,8.711-6.262,12.926l-.8,1.645c-10.226,20.964-19.1,39.148-45.5,61.62a106.1,106.1,0,0,1-16.666,8.34,11.979,11.979,0,0,1-4.085.921,4.974,4.974,0,0,1-.96-.086m67.915-70.452.8-1.645c2.058-4.218,4.148-8.545,6.262-12.93,9.317-19.31,18.949-39.277,29.431-56.78,2.444-4.083,5.137-8.32,8.857-11.608.248-.025.5-.055.741-.088a161.327,161.327,0,0,0-3.72,22.07c-2.866,11.442-9.569,27.7-15.964,38.707-9.94,17.1-21.512,33.27-37.523,52.424a149.554,149.554,0,0,1-30.537,28.188c23.418-20.972,31.924-38.4,41.649-58.339M98.651,338.478c18.159-45.646,52.691-105.425,95.214-136.451q3.09-.176,6.2-.248c-17.718,9.983-29.69,27.78-41.282,45.018l-2.017,3c-7.195,10.66-12.839,19.507-18.812,28.871-6.293,9.866-12.8,20.063-21.524,32.989-2.866,4.251-5.347,7.78-7.542,10.9-4.887,6.953-8.248,11.731-10.761,17.267q.26-.67.527-1.34m169.257-21.469c-14.173-17.54-23.155-33.393-33.059-53.282-10.991-22.088-16.7-42.915-16.975-61.95.131.417.271.835.425,1.249a125.928,125.928,0,0,0,2.5,13.707,173.818,173.818,0,0,0,7.954,24.193c17.926,44.8,41.2,78.6,73.195,106.283-.209.09-.419.176-.632.25-12.376-7.273-25.7-20.905-33.407-30.449M96.464,354.286a4.775,4.775,0,0,1-.741-2.343,16.177,16.177,0,0,1-.041-2.766c2.721-10.359,6.584-15.855,13.843-26.177,2.193-3.119,4.678-6.654,7.548-10.905,8.732-12.94,15.24-23.141,21.536-33.009,5.972-9.36,11.613-18.206,18.8-28.855l2.017-3c11.822-17.579,24.042-35.748,42.314-45.482q1.773-.021,3.553,0c.113.018.228.033.341.047-21.551,14.594-36.776,43.576-50.248,69.215q-2,3.813-3.952,7.5l-2.4,4.532c-13.9,26.28-27.041,51.119-51.632,72.016a2.621,2.621,0,0,1-.942-.773m190.227-8.279c-17.46-10.738-33.137-27.08-46.612-48.6-20.028-31.984-29.6-65.777-26.516-93.3q.3-1.308.615-2.616c.154-.037.306-.076.458-.115a96.948,96.948,0,0,0,1.2,28.57,199.34,199.34,0,0,0,40.73,86.685c11.042,13.59,22.242,23.6,34.138,30.486q-2.034-.489-4.009-1.116m6.6,1.676c-12.638-6.861-24.464-17.189-36.124-31.538A198.546,198.546,0,0,1,216.6,229.8a96.112,96.112,0,0,1-1.151-28.65c.152-.047.3-.1.453-.146-1.163,14.766,1.633,30.939,8.529,49.376,16.434,43.934,41.235,77.635,71.831,97.662a23.9,23.9,0,0,1-2.969-.359m-68.13-97.576c-6.912-18.479-9.682-34.653-8.453-49.4.125-.051.252-.1.377-.154.045,19.487,5.786,40.853,17.068,63.522,9.924,19.938,18.933,35.83,33.151,53.428,7.614,9.429,20.7,22.843,32.983,30.252a12.968,12.968,0,0,1-2.554.31c-30.937-19.85-56.011-53.682-72.572-97.959m104.894-32.347c13.912-4.214,29.421-5.6,44.421-6.939,3.687-.332,7.316-.656,10.853-1.018,23.586-2.407,39.612-5.613,49.962-10.09-30.751,17.486-89.309,21.939-111.566,23.016a46.2,46.2,0,0,0,6.331-4.969M219.1,199.549l.119-.07c1.354,3.164,4.136,5.958,8.48,8.523,8.927,5.271,20.037,7.727,32.111,7.142,1.467-.076,2.93-.164,4.391-.254,2.435-.15,4.949-.306,7.427-.373,7.382-.215,14.628,1.208,21.616,2.571,6.395,1.245,12.55,2.448,18.642,2.448.183,0,.369,0,.55,0a41.4,41.4,0,0,1-12.29.476l-3.164-.371c-3.627-.421-7.614-.888-10.925-1.34-7.047-.96-14.235-.453-21.188.041-3.755.265-7.64.542-11.444.577-9.491.123-23.061-2.721-30.562-10.962l0,0a23.727,23.727,0,0,1-3.761-8.408m9,7.782c-4.245-2.509-6.935-5.221-8.205-8.27.123-.08.248-.164.371-.248a12.594,12.594,0,0,0,2.366-2.117c3.757-.453,7.723,2.068,11.9,4.739a62.377,62.377,0,0,0,6.578,3.824c12.345,5.862,26.863,5.2,36.479,4.752,2.8-.125,5.232-.238,7.167-.185a125.718,125.718,0,0,1,15.652,1.767c3.42.535,6.955,1.087,10.462,1.432q3.585.354,6.826.355a41.723,41.723,0,0,0,13.644-2.043,43.431,43.431,0,0,1-14.241,7.087c-7.72,1.014-15.513-.505-23.7-2.1-7.029-1.373-14.288-2.788-21.787-2.587-2.489.068-5.014.226-7.452.377-1.461.09-2.92.179-4.382.252q-1.762.085-3.492.086c-10.585,0-20.258-2.439-28.186-7.119m13.35-2.776a61.5,61.5,0,0,1-6.494-3.779c-3.835-2.45-7.484-4.78-11.1-4.91a19.719,19.719,0,0,1,4.466-1.945c6.506-.369,11.653,1.74,17.532,4.153,2.4.983,4.879,2,7.587,2.9,13.2,4.366,25.469,2.979,32.8,2.154,1.986-.224,3.7-.419,5-.453,8.742-.25,14.314,1.29,19.708,2.766,4.319,1.184,8.428,2.31,13.713,2.31q1.147,0,2.376-.074a20.485,20.485,0,0,0,11.822-5.562,16.308,16.308,0,0,1-.523,1.551,26.058,26.058,0,0,1-5.1,6.108c-5.9,2.56-13.227,3.371-22.279,2.476-3.48-.343-7.007-.892-10.418-1.424a125.958,125.958,0,0,0-15.749-1.777c-1.982-.055-4.407.057-7.226.187-2.959.137-6.241.289-9.707.289-8.361,0-17.8-.882-26.4-4.967m-81.71-6.9c-2.493-.854-5.006-1.8-7.435-2.714-.946-.357-1.9-.716-2.856-1.069a185.569,185.569,0,0,0,43.7,4.048c.745.31,1.473.618,2.181.919,1.009.427,2.08.845,3.2,1.227-6.413.2-12.757.753-19.037,1.512h-.074c-7.263,0-14.212-2.043-19.676-3.923M336.816,209.91c11.428-1.155,22.934-2.844,34.207-5.022q2.048-.4,4.093-.806c3.387-.673,6.889-1.368,10.351-1.935,6.647-1.083,13.537-1.656,20.2-2.212,12.361-1.032,25.125-2.1,36.862-6.459-.037.06-.076.121-.115.181-8.746,6.727-26.953,11.3-57.264,14.4-3.529.359-7.152.685-10.829,1.011-14.009,1.254-28.463,2.544-41.735,6.139a49.544,49.544,0,0,0,4.231-5.3m46.846-14.292c3.289-.566,6.69-1.151,9.975-1.672a199.528,199.528,0,0,1,25.785-1.982c6.165-.166,15.269-.353,23.814-.074a4.779,4.779,0,0,1-.181.552c-11.855,4.579-24.864,5.665-37.453,6.717-6.678.556-13.584,1.13-20.262,2.22-3.474.568-6.984,1.266-10.375,1.939q-2.046.407-4.091.806c-11.034,2.13-22.294,3.791-33.487,4.942.209-.314.416-.632.618-.95,1.014-1.6,3.018-5.232,3.078-8.933a68.365,68.365,0,0,0,8.33.474c10.777,0,22.667-2.045,34.247-4.038m-129.98,4.614c-2.682-.888-5.152-1.9-7.538-2.879-5.059-2.076-9.889-4.056-15.574-4.235.552-.217,1.1-.451,1.635-.716a12.222,12.222,0,0,0,3.178-.872c2.831-.853,5.784-1.621,8.808-2.335a37.032,37.032,0,0,1,18.719,1.561,66.212,66.212,0,0,0,21.742,3.993,98.7,98.7,0,0,1,15.273,1.608,82.172,82.172,0,0,1,10.513,2.8c4.819,1.533,9.093,2.9,15.182,2.9,1.305,0,2.694-.064,4.189-.2a21.455,21.455,0,0,0,9.423-4.064,9.03,9.03,0,0,1-.053,2.85,19.577,19.577,0,0,1-12.2,6.256c-6.325.386-10.954-.87-15.835-2.208a61.928,61.928,0,0,0-19.936-2.8c-1.327.037-3.057.232-5.061.458a110.81,110.81,0,0,1-12.917.9,61.6,61.6,0,0,1-19.546-3.016m122.832-13.09c5.913-.71,11.818-.995,17.525-1.272,14.979-.72,33.561-1.613,49.308,5.043,0,.068,0,.135,0,.2-8.582-.285-17.745-.1-23.951.072a199.673,199.673,0,0,0-25.884,1.99c-3.289.523-6.691,1.108-9.985,1.676-14.647,2.517-29.786,5.119-42.463,3.543a8.66,8.66,0,0,0-.322-1.883,7.527,7.527,0,0,0-4.28-4.785,16.708,16.708,0,0,0-3.627-1.05,59.562,59.562,0,0,1-5.987-1.568c4.048.377,8.42.533,12.887.533a324.987,324.987,0,0,0,36.776-2.5m-111.389-2.121c1.1-.2,2.189-.4,3.279-.6a99.524,99.524,0,0,1,30.991,3.346,60.472,60.472,0,0,1,9.883,3.845,47.586,47.586,0,0,0,17.486,5.094,23.034,23.034,0,0,0,2.329.107c3,0,6.756-.466,8.993-1.691a5.364,5.364,0,0,1,.946,1.8,20.29,20.29,0,0,1-9.3,4.151c-8.311.761-13.289-.825-19.06-2.663a82.453,82.453,0,0,0-10.607-2.823,99.1,99.1,0,0,0-15.381-1.623,65.511,65.511,0,0,1-21.53-3.952,37.981,37.981,0,0,0-12.946-2.15c4.93-1.028,9.965-1.943,14.914-2.844m-138.08,9.144c-1.633-.773-3.264-1.559-4.9-2.345-7.443-3.588-15.055-7.255-22.991-9.721,9.866,1.67,18.945,4.03,28.449,6.5,5.139,1.334,10.322,2.682,15.687,3.923,2.956.981,5.872,2.076,8.732,3.151,2.437.917,4.953,1.865,7.456,2.725a70.078,70.078,0,0,0,15.658,3.742c-4.6.622-9.161,1.34-13.687,2.1-11.867-.246-23.49-4.9-34.405-10.07m188.218-7.846c9.2,4.329,14.015,5.38,17.2,6.073a15.678,15.678,0,0,1,3.254.923,6.952,6.952,0,0,1,1.822,1.213c-2.673,1.362-7.7,1.709-10.695,1.4A47,47,0,0,1,309.61,190.9a61.119,61.119,0,0,0-10-3.892,99.53,99.53,0,0,0-26.352-3.494c14.6-2.716,26.477-4.514,42.01,2.8M119.73,203.125a204.728,204.728,0,0,1-53.713-22.866c1.27-.01,2.542-.027,3.824-.043a153.824,153.824,0,0,1,21.85.78l.074.012c10.5,2.093,20.412,6.871,30.043,11.514q2.455,1.182,4.9,2.347c9.934,4.7,20.451,8.993,31.241,9.959q-3.57.612-7.107,1.233l-3.631.632q-1.8.114-3.588.111c-8.693,0-17.107-1.875-23.9-3.679m203.822-15.17c-2.117-.8-4.6-1.84-7.542-3.225a54.42,54.42,0,0,0-15.527-4.817c40.568-3.42,82.327-6.389,122.786,2.357,6.924,1.5,14.093,3.461,19.832,7.606.016.035.029.072.045.107-15.8-6.5-34.247-5.611-49.144-4.893-5.72.277-11.639.562-17.579,1.276a324.934,324.934,0,0,1-36.692,2.491,126.48,126.48,0,0,1-16.179-.9M114.763,207.827c-34.472-5.816-61.062-16.333-81.123-32.1,2.068.7,4.011,1.329,5.741,1.8,8.947,2.433,16.982,2.776,25.153,2.747a205.45,205.45,0,0,0,54.993,23.611,98.117,98.117,0,0,0,22.609,3.689c-4.157.7-8.281,1.373-12.384,1.968a110.886,110.886,0,0,1-14.988-1.711m-34.965,2.4c-15.39-2.62-29.991-8.8-42.244-14.509-19.819-9.23-31.454-17.31-35.562-24.712a1.707,1.707,0,0,1-.228-.62C36.58,194.11,69.148,207.756,101,211.923h-.324a123.673,123.673,0,0,1-20.874-1.7M243.512,185.2a355.543,355.543,0,0,1,155.777-12.513c23.057,3.315,38.36,10.094,42.794,15.554-5.578-3.551-12.22-5.341-18.652-6.732-41.93-9.068-85.208-5.581-127.114-2.025-8.3-.513-16.282.981-25.383,2.684-1.994.373-4.042.747-6.122,1.124-8.186,1.492-16.594,3.024-24.421,5.027a31.191,31.191,0,0,0,3.121-3.119M2.155,169.7c1.091-.739,4.436-1.165,10.923-.218,4.612.673,10.671,2.792,16.532,4.84.622.218,1.237.431,1.846.644,20.359,16.616,47.591,27.622,83.177,33.625,3.592.607,7.337,1.176,11.132,1.492-6.334.837-12.634,1.457-18.943,1.711C73.259,208.6,38.976,194.807,2.155,169.7m46.228-1.557a147.861,147.861,0,0,0,22.811,10.293q-.691.009-1.377.02c-.041,0-.084,0-.127,0a76.7,76.7,0,0,1-21.307-10.314m147.628,29.08c-3.716-1.578-7.987-3.32-12.306-5.082-4.426-1.8-8.9-3.631-12.885-5.32l-2.788-1.176c-8.051-3.387-16.374-6.889-23.319-12.2a51.787,51.787,0,0,1-7.249-6.746q1.539,1.408,3.205,2.694c6.27,4.852,13.582,8.192,20.656,11.422l34.866,15.929c2.193,1,4.368,1.955,6.53,2.721a42.661,42.661,0,0,1-6.709-2.242M42.421,163.714a103.8,103.8,0,0,0,10.786,4.4c3.377,1.231,6.875,2.5,10.127,4.066,1.584.763,3.168,1.617,4.7,2.446a68.168,68.168,0,0,0,7.755,3.781q-1.141,0-2.277.012a146.957,146.957,0,0,1-31.093-14.7M345.1,162.153a61.4,61.4,0,0,1-12.63,5.564l.016.053q-2.616.123-5.232.283c6-1.766,11.972-3.738,17.846-5.9M78.212,178.413a53.165,53.165,0,0,1-9.807-4.477c-1.537-.831-3.131-1.691-4.731-2.462-3.289-1.578-6.8-2.86-10.2-4.1-5.064-1.847-10.269-3.746-14.78-6.668-.306-.263-.615-.529-.921-.8a60.873,60.873,0,0,0,10.488,4.07c1.327.4,2.663.786,4,1.172a81.308,81.308,0,0,1,13.566,4.782c1.254.62,2.5,1.319,3.709,2q.732.41,1.467.817a103.26,103.26,0,0,0,12.472,5.8c-1.781-.078-3.533-.121-5.261-.139m7.887.287a102.8,102.8,0,0,1-14.719-6.637c-.492-.269-.979-.542-1.463-.815-1.217-.681-2.472-1.383-3.744-2.011a81.924,81.924,0,0,0-13.7-4.836c-1.332-.382-2.665-.765-3.988-1.165a50.516,50.516,0,0,1-13.627-5.95q-.536-.5-1.071-1a64.278,64.278,0,0,0,13.469,5.029c1.875.507,3.759.975,5.648,1.444a106.275,106.275,0,0,1,14.719,4.421,105.812,105.812,0,0,1,12.351,6.383c3.346,1.92,6.771,3.882,10.349,5.513q-2.145-.231-4.226-.371m247.735-15.388c8.1-2.79,16.418-5.656,24.144-9.608-3,2.164-6.028,4.268-9.1,6.192-8.279,3.192-16.772,6.011-25.314,8.4q-2.2.158-4.4.345c4.84-1.945,9.824-3.66,14.676-5.332M93.093,179.41a102.672,102.672,0,0,1-12.729-6.531,106.812,106.812,0,0,0-12.441-6.426A106.847,106.847,0,0,0,53.094,162c-1.883-.466-3.765-.934-5.634-1.44-4.877-1.319-10.868-3.223-16.034-6.57q-.6-.6-1.208-1.213c7.134,3.734,15.143,5.7,22.927,7.6,6.768,1.66,13.761,3.373,20.135,6.235a115.459,115.459,0,0,1,12.339,6.8,117.876,117.876,0,0,0,12.027,6.662c-1.5-.24-3.018-.462-4.553-.665M196.514,196.04l-34.866-15.931c-7.031-3.211-14.3-6.533-20.5-11.331a50.18,50.18,0,0,1-8.586-8.455,61.571,61.571,0,0,1-4.309-7.655c5.423,7.692,13.465,14.655,24,20.757,9.965,5.777,20.662,10.589,31,15.24,1.5.679,3.006,1.354,4.506,2.033,4.567,2.066,7.977,3.9,10.718,5.371a56.13,56.13,0,0,0,7.489,3.6,60.111,60.111,0,0,1-9.45-3.625m-95.5-15.392a94.771,94.771,0,0,1-14.994-7.9A116.114,116.114,0,0,0,73.6,165.9c-6.436-2.889-13.469-4.612-20.269-6.28-8.57-2.1-17.417-4.268-25-8.8q-1.431-1.5-2.862-3.078c6.6,4.153,14.029,6.592,20.182,8.315,2.665.747,5.4,1.442,8.038,2.115,6.606,1.682,13.434,3.422,19.79,6.1a141.144,141.144,0,0,1,16.742,8.921,151.63,151.63,0,0,0,15.385,8.324c-1.514-.3-3.041-.6-4.585-.872M332.462,161.49c4.863-1.631,9.891-3.32,14.637-5.433,2.164-.964,4.329-2.043,6.426-3.088a81.266,81.266,0,0,1,13.051-5.574q-.957.673-1.881,1.36l-.217.162c-.458.341-.919.681-1.377,1.024-9.122,5.609-19.483,9.177-29.524,12.634-5.638,1.941-11.456,3.947-17.025,6.3q-1.656.152-3.311.32c6.069-3.285,12.739-5.525,19.22-7.7m-121.523-3.008a42.99,42.99,0,0,1-7.144-6.881,42.462,42.462,0,0,1-3.049-4.893c-.142-.25-.283-.5-.425-.753q2.426,2.321,4.871,4.924a102.1,102.1,0,0,1,7.757,9.28c-.667-.572-1.342-1.128-2.009-1.678m-12.1,36.9c-2.749-1.477-6.173-3.315-10.767-5.394q-2.247-1.015-4.5-2.031c-10.326-4.645-21-9.448-30.933-15.2-12.263-7.107-21.1-15.369-26.327-24.591q-.679-1.759-1.272-3.582a57.662,57.662,0,0,0,6.67,8.116c5.579,5.977,12.525,13.414,20.751,18.619a113.8,113.8,0,0,0,10.956,5.866L205.4,197.739a29.288,29.288,0,0,0,5.784,2.284c-4.5-.427-7.569-2.078-12.345-4.643m12.614-34.13a46.344,46.344,0,0,1-7-5.888,44.809,44.809,0,0,1-5.517-8.287c-.382-.679-.765-1.358-1.157-2.031-.6-1.038-1.251-2.113-1.97-3.174q1.238,1.062,2.478,2.193c.628.993,1.206,2.021,1.773,3.028a43.321,43.321,0,0,0,3.11,4.982,43.645,43.645,0,0,0,7.269,7.009c1.545,1.276,3.123,2.581,4.573,4q.658.972,1.272,1.939c-1.531-1.348-3.2-2.571-4.828-3.771m115.8.105c1.676-.56,3.363-1.085,5.053-1.609,3.508-1.091,7.132-2.216,10.578-3.67,3.252-1.373,6.409-3.065,9.46-4.7,1.346-.722,2.694-1.444,4.054-2.142a130.314,130.314,0,0,1,20.2-8.307c-2.772,1.682-5.521,3.4-8.129,5.158-5.38,1.247-10.412,3.753-15.3,6.184-2.087,1.04-4.247,2.117-6.395,3.073-4.715,2.1-9.725,3.783-14.569,5.408-7.08,2.378-14.386,4.83-20.927,8.642q-1.633.173-3.264.363a119.391,119.391,0,0,1,19.236-8.4M109.878,182.423c-6.771-2.5-13.1-6.249-19.263-9.9a141.163,141.163,0,0,0-16.836-8.97c-6.411-2.7-13.268-4.45-19.9-6.137-2.638-.673-5.363-1.366-8.022-2.111-6.9-1.933-15.416-4.772-22.509-9.942q-1.747-1.99-3.5-4.1c-.382-.46-.86-1.038-1.334-1.66,7.015,5.714,15.907,10.252,28.231,14.466,4.3,1.469,8.73,2.813,13.008,4.11,6.914,2.1,14.062,4.269,20.853,7.027,7.4,3,14.6,6.793,21.557,10.461,6.284,3.309,12.725,6.7,19.388,9.551-3.82-.972-7.7-1.924-11.672-2.8m18.168,4.477-.548-.142c-8.656-3.186-16.943-7.55-24.971-11.777C95.547,171.3,88.333,167.5,80.9,164.486c-6.824-2.772-13.99-4.945-20.919-7.048-4.274-1.3-8.693-2.638-12.985-4.1-13.416-4.585-22.72-9.549-29.952-16.007a5.405,5.405,0,0,1-.3-.724c14.228,10.383,31.415,15.983,48.052,21.4,8.469,2.759,17.23,5.613,25.5,9.064,7.339,3.061,14.587,6.719,21.6,10.258,8.619,4.35,17.447,8.806,26.641,12.249-3.545-.874-7.029-1.779-10.492-2.679m59.3,9.333-26-10.392c-40.326-16.116-81.962-32.755-122.6-50.172.045.012.09.023.137.039a216.087,216.087,0,0,1,22.7,8.164C81.612,152,99.818,159.432,119.6,168.017a157.193,157.193,0,0,0,31.8,11.848,162.71,162.71,0,0,0,15.95,7.4l2.786,1.174c3.988,1.693,8.473,3.521,12.907,5.332,2.035.827,4.058,1.652,6.016,2.458-.336,0-.671,0-1,0-.236,0-.472,0-.706,0m25.884-31.1a72.3,72.3,0,0,1-9.534-7.524,45.031,45.031,0,0,1-6.937-9.546c-.7-1.172-1.42-2.368-2.2-3.6a59.714,59.714,0,0,0-6.75-8.816q2.683,1.876,5.375,4.032a38.845,38.845,0,0,1,3.929,5.749c.388.669.771,1.348,1.151,2.023a45.357,45.357,0,0,0,5.617,8.43,46.78,46.78,0,0,0,7.117,5.991,45.3,45.3,0,0,1,6.9,5.8q.433.752.841,1.5c-1.7-1.37-3.566-2.679-5.507-4.036m-66.626,26.337c-11.994-3.553-23.344-9.282-34.357-14.838-7.023-3.545-14.284-7.21-21.649-10.285-8.3-3.461-17.076-6.321-25.56-9.085-16.8-5.472-34.162-11.13-48.4-21.707a1.441,1.441,0,0,1,.045-.164,1.524,1.524,0,0,1,.577-.681c16.013,10.012,34.244,16.317,51.885,22.415,7.279,2.521,14.807,5.123,22.072,7.952,9.407,3.66,18.793,7.862,27.872,11.926,14.017,6.276,28.444,12.733,43.377,17.392-5.539-.8-10.792-1.8-15.868-2.924m59.142,5.564L163.759,176.48a113.657,113.657,0,0,1-10.882-5.825c-8.141-5.15-15.047-12.548-20.6-18.494-3-3.215-6.358-6.807-8.287-11.114q-.887-3.3-1.483-6.758c4.378,8.8,11.011,16.272,17.657,23.087a95.945,95.945,0,0,0,12.365,11.077,115.135,115.135,0,0,0,14.633,8.5l25.742,13.3a141.3,141.3,0,0,0,18.937,8.631,14.672,14.672,0,0,0,2.737.691l-.059.016c-.176.012-.351.016-.529.016-2.714,0-5.54-1.243-8.246-2.567m-38.413-2.007c-16.541-4.69-32.48-11.824-47.921-18.736-9.087-4.068-18.482-8.276-27.907-11.941-7.279-2.835-14.815-5.439-22.1-7.96-17.452-6.038-35.49-12.273-51.333-22.1a9.587,9.587,0,0,1,1.879-.49l.064-.012c5.759,4.315,12.491,7.355,18.935,10,10.915,4.479,22.265,8.379,33.241,12.15,9.844,3.383,20.02,6.881,29.846,10.784,8.629,3.424,17.267,7.273,25.621,11,14.534,6.473,29.511,13.143,45.016,17.852q-2.719-.237-5.34-.544m16.221,1.149a82.266,82.266,0,0,1-14.836-5.027c-7.585-3.147-15.258-6.45-22.677-9.643-16.621-7.154-33.81-14.55-51.169-20.706-5.135-1.822-10.414-3.582-15.517-5.283-17.79-5.933-36.167-12.058-52.219-22.031a47.9,47.9,0,0,1,6.871,1c42.047,18.114,85.251,35.377,127.081,52.1l24.1,9.631c-.546-.01-1.092-.02-1.635-.033m-7.134-.322c-16.717-4.717-32.837-11.9-48.448-18.851-8.359-3.722-17-7.575-25.646-11.007-9.844-3.908-20.03-7.409-29.881-10.794-10.968-3.769-22.3-7.665-33.2-12.136-6.161-2.526-12.585-5.416-18.131-9.432a30.357,30.357,0,0,1,4.444-.217c16.407,10.455,35.287,16.75,53.549,22.839,5.1,1.7,10.373,3.459,15.507,5.277,17.331,6.147,34.509,13.541,51.119,20.691,7.423,3.194,15.1,6.5,22.685,9.647a106.869,106.869,0,0,0,11.333,4.169q-1.683-.079-3.33-.185M322.694,161.8c3.324-1.233,6.762-2.513,10.1-3.859,7.21-2.913,14.341-6.313,21.237-9.6,7.236-3.451,14.721-7.015,22.293-10.02,1.434-.568,2.878-1.122,4.325-1.674,3.018-1.155,6.079-2.327,9.062-3.654-.572.353-1.133.7-1.68,1.03l-1.243.763c-1.855,1.141-3.792,2.3-5.767,3.482q-.843.5-1.693,1.014a131.292,131.292,0,0,0-23.284,9.257c-1.364.7-2.714,1.422-4.066,2.146-3.036,1.629-6.176,3.311-9.4,4.668-3.408,1.44-7.013,2.56-10.5,3.642-1.7.527-3.391,1.053-5.07,1.617A120.034,120.034,0,0,0,305.987,170q-2.034.246-4.069.517a183.856,183.856,0,0,1,20.777-8.711m-112.14,3.574a55.018,55.018,0,0,1-9.487-6.305,43.373,43.373,0,0,1-6.3-7.4c-1.633-2.312-3.155-4.676-4.627-6.967-3.324-5.164-6.508-10.107-10.8-14.343q2.391,1.329,4.774,2.835a52.259,52.259,0,0,1,9.782,11.7c.78,1.217,1.492,2.409,2.191,3.574a45.688,45.688,0,0,0,7.062,9.7,72.413,72.413,0,0,0,9.633,7.608,75.915,75.915,0,0,1,6.918,5.234c.117.23.232.462.343.691a54.606,54.606,0,0,0-9.491-6.321m1.539,32.765a140.478,140.478,0,0,1-18.828-8.586l-25.742-13.3a114.46,114.46,0,0,1-14.536-8.437,94.963,94.963,0,0,1-12.261-10.991c-7.2-7.378-14.378-15.529-18.641-25.289q-.287-2.133-.464-4.313c2.7,6.459,7.031,12.22,11.02,17.246,6.713,8.461,14.249,17.195,23.845,23.762a132.493,132.493,0,0,0,11.6,6.836c11.514,6.256,23.27,12.528,34.642,18.594,3.962,2.113,8.769,4.676,13.857,5.1a4.992,4.992,0,0,1-.985.094,11.337,11.337,0,0,1-3.5-.718m-1.6-29.987a73.5,73.5,0,0,1-8.354-4.6,40.223,40.223,0,0,1-11.518-11.768c-1.018-1.6-1.935-3.3-2.827-4.951-.554-1.026-1.108-2.054-1.687-3.069a67.353,67.353,0,0,0-14.089-17.1c1.52.695,3.038,1.426,4.549,2.206,5.408,4.585,9.066,10.269,12.919,16.253,1.477,2.294,3,4.668,4.647,6.994a44.07,44.07,0,0,0,6.42,7.534,55.308,55.308,0,0,0,9.616,6.4c3.841,2.189,7.794,4.442,10.8,7.622q.231.527.449,1.048a51.827,51.827,0,0,0-10.923-6.569m155.037-17.831.217-.16c4.875-3.623,10.62-7.064,16.182-10.388,1.978-1.184,3.923-2.347,5.784-3.492l1.237-.761c4.1-2.511,9.066-5.554,12.907-9.093a74.872,74.872,0,0,1-5.2,5.958c-10.505,10.956-27.417,25.882-43.454,35.008q-7.529-.085-15.061.152c9.585-3.986,18.613-10.7,27.39-17.224m-43.071,9c3.982-1.647,8.1-3.346,12.183-5.133l59.371-25.972c2.134-.931,4.309-1.883,6.465-2.9a50.417,50.417,0,0,1-4.8,3.785,104.359,104.359,0,0,1-15.308,6.814c-1.448.556-2.9,1.108-4.329,1.678-7.6,3.012-15.1,6.586-22.343,10.041-6.887,3.283-14.005,6.68-21.2,9.581-3.328,1.346-6.76,2.62-10.078,3.855-7.622,2.833-15.484,5.755-22.718,9.743-1.272.178-2.546.361-3.814.552a285.318,285.318,0,0,1,26.565-12.047M209.033,169.888C202.979,167,196.725,164,192.25,159.2a45.534,45.534,0,0,1-5.119-7.078c-.788-1.251-1.561-2.5-2.333-3.75-5.585-9.033-10.9-17.62-18.857-24.269q1.759.688,3.5,1.43a66.439,66.439,0,0,1,15.98,18.625c.579,1.007,1.133,2.029,1.684,3.049.9,1.66,1.822,3.377,2.854,5a41.094,41.094,0,0,0,11.74,12,73.875,73.875,0,0,0,8.441,4.645c4.352,2.15,8.484,4.192,11.91,7.5.168.447.326.894.472,1.332-3.8-3.16-8.529-5.423-13.492-7.8m56.511-1.6c12.632-6.356,25.519-12.843,37.316-20.543,18.5-11.389,39.532-18.959,58.723-25.486-13.334,5.3-26.192,11.731-38.8,18.036q-4.281,2.139-8.512,4.239l-50.59,25c-2.085,1.03-4.259,2.1-6.428,3.274,2.786-1.664,5.693-3.211,8.293-4.52m-57.168,3.043-.4-.187c-6.768-3.151-13.8-6.635-18.9-11.491a48.118,48.118,0,0,1-6.666-8.436c-1.053-1.555-2.1-3.123-3.145-4.7-5.9-8.876-11.986-18.026-20.213-24.907q2.259.758,4.491,1.578c8.939,6.746,14.61,15.913,20.6,25.589q1.156,1.876,2.333,3.757a46.343,46.343,0,0,0,5.209,7.193c4.575,4.906,10.9,7.93,17.017,10.857,5.343,2.556,10.41,4.979,14.278,8.519.174.593.328,1.176.464,1.754-4.107-4.434-9.448-6.918-15.063-9.53m186.05-45.994c1.03-.414,1.99-.782,2.911-1.135a64.985,64.985,0,0,0,6.787-2.918,20.656,20.656,0,0,1-1.9,2.323c-2.813,1.4-5.7,2.661-8.521,3.892l-59.373,25.972c-4.077,1.783-8.19,3.482-12.168,5.125-9.366,3.867-19.037,7.862-28.539,13.12q-2.912.457-5.819.962c34.837-16.971,70.686-32.888,106.626-47.34M203.091,192.975c-11.368-6.065-23.122-12.335-34.632-18.59a131.756,131.756,0,0,1-11.528-6.795c-9.512-6.51-17-15.191-23.678-23.6-4.43-5.583-9.286-12.074-11.8-19.392a40.123,40.123,0,0,1,.014-4.212c10.509,23.851,27.347,42.279,48.82,53.393,2.064,1.069,4.2,2.076,6.264,3.049,2.4,1.128,4.875,2.3,7.245,3.564,3.623,1.935,7.132,4.181,10.529,6.352,7.749,4.957,15.094,9.657,23.968,11.243-.037.02-.074.043-.109.064h-.179c-5.41,0-10.665-2.807-14.918-5.074m7.4-18.463c-1.516-.755-3.092-1.52-4.7-2.3-4.713-2.283-9.585-4.639-13.791-7.208a52.913,52.913,0,0,1-15.211-14.076c-2-2.776-3.755-5.792-5.449-8.709-1.18-2.027-2.4-4.126-3.695-6.132-3.958-6.128-8.3-12.166-13.453-16.032q1.378.427,2.745.864c8.966,6.928,15.42,16.633,21.67,26.034,1.048,1.574,2.093,3.149,3.188,4.762a48.368,48.368,0,0,0,6.736,8.5c5.185,4.936,12.283,8.453,19.111,11.631l.4.189c5.966,2.776,11.615,5.406,15.72,10.39.088.47.162.938.224,1.4-3.5-4-8.519-6.842-13.5-9.321m7.842,6.851c-4.86-3.034-10.105-5.658-15.18-8.2-8.935-4.471-18.174-9.1-25.428-16.048-5.737-5.5-10.006-12.392-14.134-19.062-4.265-6.89-8.66-13.988-14.7-19.581q1.4.407,2.774.817c5.975,3.6,10.886,10.351,15.322,17.222,1.288,1.992,2.5,4.079,3.677,6.1,1.7,2.934,3.465,5.964,5.492,8.773A53.762,53.762,0,0,0,191.6,165.674c4.237,2.587,9.13,4.955,13.859,7.244,1.6.774,3.176,1.537,4.69,2.292,5.269,2.624,10.583,5.656,13.99,10.018q.032.457.047.9a27.765,27.765,0,0,0-5.847-4.766M394.4,122.127a66.882,66.882,0,0,1,11.481-4.319,11.387,11.387,0,0,1-.925,2.142,56.949,56.949,0,0,1-7.9,3.527c-.925.355-1.888.726-2.918,1.139-36.8,14.8-73.512,31.136-109.135,48.563q-4.015.735-8.008,1.555Zm-147.645,58.8c.14-.176.289-.355.447-.533,4.959-4.3,10.974-7.271,16.818-10.158l50.59-25q4.231-2.092,8.514-4.241c17.735-8.865,35.966-17.977,55.3-23.845a214.076,214.076,0,0,0-20.414,9.641l-2.766,1.426c-18.966,9.743-38.186,18.5-61.212,28.646l-1.41.622c-15.706,6.92-31.914,14.062-46.191,23.935.117-.174.228-.337.33-.492m-29.224,1.937c-4.955-3.041-10.435-5.777-15.736-8.418-4.091-2.041-8.32-4.149-12.3-6.395a91.292,91.292,0,0,1-12.3-7.874c-7.763-6.178-13.51-15.211-19.066-23.943-4.639-7.288-9.052-14.224-14.4-19.232q1.724.483,3.422.97c6.592,5.667,11.253,13.2,15.767,20.49,4.153,6.711,8.449,13.652,14.257,19.216,7.339,7.031,16.633,11.686,25.623,16.18,5.055,2.532,10.285,5.148,15.115,8.164a24.536,24.536,0,0,1,6.262,5.34c-.01.258-.021.509-.041.761-1.432-1.908-3.978-3.642-6.61-5.26m-22.786,3.217c-3.406-2.179-6.931-4.432-10.58-6.383-2.388-1.276-4.875-2.448-7.283-3.582-2.058-.972-4.187-1.974-6.237-3.036-21.705-11.233-38.641-30-49.035-54.326a18.021,18.021,0,0,1,.437-2.355c11.676,25.117,30.451,45.379,53.03,57.17,2.06,1.075,4.187,2.1,6.241,3.1,3.285,1.592,6.684,3.237,9.877,5.105,2.679,1.565,5.332,3.348,7.9,5.074,6.375,4.284,12.958,8.7,20.545,10.238-.119.09-.24.179-.365.265-9.1-1.4-16.6-6.2-24.53-11.272m189.928-62.077a181.178,181.178,0,0,1,20.625-8.274,2.761,2.761,0,0,1,.281.375,2.852,2.852,0,0,1,.369.882,65.958,65.958,0,0,0-11.867,4.425L273.378,175.5q-3.234.7-6.446,1.461Zm-164.739,62.58c-7.359-5.183-15.535-9.319-23.442-13.322a219.08,219.08,0,0,1-20.037-11.03,50.787,50.787,0,0,1-8.336-6.465,82.218,82.218,0,0,1-11.286-14.942c-.868-1.4-1.738-2.839-2.612-4.284-4.647-7.675-9.436-15.578-15.308-20.894l2.38.669.745.209c5.8,4.992,10.488,12.355,15.435,20.129,5.589,8.787,11.37,17.874,19.234,24.132a92.254,92.254,0,0,0,12.4,7.946c4,2.253,8.238,4.368,12.337,6.411,5.285,2.636,10.751,5.363,15.679,8.389,2.79,1.711,5.708,3.709,6.883,5.812a14.367,14.367,0,0,1-.3,1.516,13.131,13.131,0,0,0-3.771-4.274m107.988-39.825c17.8-7.392,36.214-15.037,53.6-23.994l1.34-.693c6.52-3.371,13.25-6.851,20.5-7.587a5.76,5.76,0,0,1,1.249.64,185.869,185.869,0,0,0-20.264,8.166L262.793,177.965q-1.472.366-2.938.745c21.657-12.675,45.229-22.462,68.072-31.947M213.678,184.477c-9.259-5.392-18.814-10.568-28.4-15.381L184,168.454c-5.691-2.846-11.576-5.792-16.458-9.926-4.485-3.8-8.11-8.617-11.159-12.835-2.548-3.525-5.055-7.484-7.48-11.311-4.661-7.361-9.464-14.94-14.953-20.149q1.607.465,3.19.913c6.362,5.2,11.471,13.631,16.42,21.8.876,1.446,1.748,2.883,2.616,4.29a83.047,83.047,0,0,0,11.395,15.082,51.458,51.458,0,0,0,8.467,6.567,219.743,219.743,0,0,0,20.11,11.075c7.881,3.988,16.03,8.112,23.34,13.26a11.52,11.52,0,0,1,3.884,4.752q-.164.459-.359.9c-1.746-3.732-5.544-6.2-9.333-8.4M292.934,158.2l1.412-.622c23.038-10.154,42.271-18.916,61.255-28.666l2.764-1.426c9.854-5.086,19.985-10.316,30.75-12.93,1.091-.179,2.165-.334,3.205-.46a71.838,71.838,0,0,0-10.125,4.62l-.3.158c-12.784,6.651-25.958,12.971-39.154,18.785-7.866,3.465-15.95,6.846-23.769,10.113-23.436,9.8-47.64,19.918-69.351,33.75q-1.718.5-3.428,1.016c14.38-10.078,30.822-17.322,46.745-24.337m26.335-9.709c7.823-3.268,15.911-6.65,23.785-10.119,13.209-5.821,26.4-12.148,39.2-18.806l.3-.158c4.579-2.382,9.3-4.836,14.354-5.669a23.784,23.784,0,0,1,4.438.234c-6.654,1.106-12.837,4.306-18.841,7.411l-1.338.691c-17.359,8.943-35.752,16.582-53.543,23.968-23.7,9.84-48.182,20.006-70.53,33.393q-2.4.641-4.784,1.313c21.065-13.069,44.369-22.813,66.956-32.258M199.536,186.205c-2.579-1.732-5.244-3.523-7.942-5.1-3.223-1.883-6.631-3.535-9.93-5.133-2.052-.993-4.173-2.021-6.219-3.09-22.663-11.836-41.471-32.267-53.046-57.591a8.479,8.479,0,0,1,.583-1.268,4.406,4.406,0,0,1,.324-.488c5.4,10.388,18.722,33.686,35.793,46.936,6.771,5.258,14.809,9.727,23.319,14.458,3.482,1.937,7.082,3.939,10.745,6.077,3.636,2.123,6.97,4.2,9.908,6.04,6.611,4.13,11.92,7.448,17.421,9.343-.021.02-.045.039-.064.059-7.7-1.375-14.405-5.882-20.892-10.24m-47.771-72.992a22.821,22.821,0,0,0,4.922,1.931q.208,1.381.47,2.759a23.34,23.34,0,0,1-5.392-4.69m40.668,61.909c-6.768-3.551-13.761-7.222-19.579-10.837a69.552,69.552,0,0,1-12.686-9.633,92.252,92.252,0,0,1-10.1-12.755c-3.568-5.1-7.32-10.291-10.946-15.312-3.266-4.522-6.631-9.183-9.871-13.787.458.137.929.287,1.41.447.447.148.866.287,1.245.4.111.031.22.064.328.1,5.911,5.123,11.038,13.217,16,21.06,2.431,3.839,4.945,7.809,7.5,11.35,3.077,4.255,6.738,9.118,11.29,12.975,4.949,4.194,10.878,7.16,16.61,10.029l1.278.638c9.575,4.807,19.117,9.975,28.362,15.359,3.874,2.255,7.755,4.776,9.267,8.633-.051.092-.105.181-.158.271-5.6-6.149-17.445-12.367-29.961-18.933m11.052,11.258c-2.946-1.838-6.282-3.923-9.928-6.052-3.67-2.14-7.275-4.144-10.759-6.083-8.484-4.719-16.495-9.173-23.219-14.393-17.074-13.252-30.4-36.68-35.7-46.9a3.22,3.22,0,0,1,1.444-.632,242.25,242.25,0,0,0,23.8,35.049,83.391,83.391,0,0,0,11.354,11.9c4.672,3.851,9.786,6.727,15.981,10.086q2.528,1.367,5.053,2.729c13.356,7.2,27.166,14.653,39.712,23.551-.039.047-.08.09-.119.135-5.544-1.844-10.909-5.2-17.624-9.391m-21.6-14.983q-2.522-1.361-5.047-2.727c-6.163-3.34-11.243-6.194-15.861-10a82.694,82.694,0,0,1-11.243-11.795,241.316,241.316,0,0,1-23.559-34.63,8.676,8.676,0,0,1,1.908.246c3.406,4.85,6.963,9.778,10.41,14.55,3.627,5.02,7.374,10.213,10.937,15.3A92.8,92.8,0,0,0,159.617,155.2a69.832,69.832,0,0,0,12.827,9.745c5.841,3.631,12.85,7.31,19.626,10.864,12.01,6.3,24.413,12.811,29.883,18.919-.074.1-.15.2-.224.3-12.6-8.941-26.448-16.413-39.844-23.637m-31.179-54.224a26.59,26.59,0,0,1-5.905-8.716c.384.306.745.6,1.069.864l.105.086a34.387,34.387,0,0,0,4.052,2.835,23.975,23.975,0,0,0,7.339,6.7c.021.1.041.193.062.291-2.218-.714-4.456-1.395-6.723-2.06m8.66,2.7a67.359,67.359,0,0,1-1.6-11.483,64.268,64.268,0,0,0,8.517,13.962q-3.435-1.326-6.922-2.48m-23.92-7.031a24.444,24.444,0,0,1-1.208-3.381l.039-.021c-.025-.047-.055-.092-.08-.137a10.681,10.681,0,0,1-.334-2.4c-.006-.332.059-.562.17-.615a.335.335,0,0,1,.314.084,1.655,1.655,0,0,1,.347.511c.367.716.7,1.473,1.022,2.2a20.874,20.874,0,0,0,2.478,4.538c-.909-.258-1.828-.517-2.749-.782m71.025,36.838a111.818,111.818,0,0,0-18.736-16.218c-.892-7.193-1.635-16.471.148-25.43.144-.714.3-1.424.468-2.13.858,12.6,4.43,20.857,14.979,36.1,2.2,3.186,5.287,8.326,7.9,13.083q-2.227-2.707-4.762-5.41M144.5,115.395a43.65,43.65,0,0,1-3.783-9.828c.039.021.08.041.117.062a23.758,23.758,0,0,1,2.759,1.883,27.289,27.289,0,0,0,5.6,9.222q-2.326-.673-4.69-1.338m-2.733-.767-2.669-.751a33.415,33.415,0,0,1-1.469-9.434,18.789,18.789,0,0,1,2.183.706,44.5,44.5,0,0,0,3.658,9.957l-1.7-.478m26,8.309a63.72,63.72,0,0,1-10.078-16.709l-.006-.265a5.217,5.217,0,0,1,.435-2.671,68.627,68.627,0,0,0,27.371,25.829q.149,1.577.322,3.065a104.448,104.448,0,0,0-18.044-9.249m108.32-8.736a42.43,42.43,0,0,1,1.658-9.471c.156-.615.312-1.233.464-1.853a100.818,100.818,0,0,1-2.023,14.366c-.064-1.007-.119-2.037-.1-3.041M162.056,102.507c.256.055.505.119.747.181,2.234.591,4.179,1.085,6.022,1.553,3.83.97,7.14,1.808,11.666,3.18a32.4,32.4,0,0,1,5.324,2.2,63.354,63.354,0,0,0-.743,8.11,161.715,161.715,0,0,1-23.016-15.221m-62.537-.064,2.359.886c6.9,2.583,14.025,5.252,20.264,8.853a6.063,6.063,0,0,0-.685.966,15.891,15.891,0,0,0-1.691,6.524,169.866,169.866,0,0,1-20.246-17.228m59.16.254a3.042,3.042,0,0,1,1.855-.406,162.641,162.641,0,0,0,24.517,16.317,93.183,93.183,0,0,0,.361,9.588,67.818,67.818,0,0,1-26.733-25.5m-55.9,17.591c-2.881-4.8-5.739-10.008-7.119-15.621a8.218,8.218,0,0,1-.343-2.757,104.411,104.411,0,0,0,25.876,34.87,75.179,75.179,0,0,0,2.113,8.129c-8.713-6.178-15.012-15.443-20.527-24.622M146.467,108.8l-.1-.084a41.25,41.25,0,0,0-5.15-3.771,18.432,18.432,0,0,0-4.308-1.5,7.6,7.6,0,0,1-2.169-.726.412.412,0,0,1,.113-.154c1.079-1.133,3.742-1.6,10.24,2.618.655.423,1.428,1.024,2.247,1.662.946.734,1.924,1.492,2.918,2.15a17.839,17.839,0,0,0,5.985,2.532q.135,1.39.328,2.776a29.365,29.365,0,0,1-10.1-5.507m4.22-.453c-.973-.642-1.937-1.391-2.87-2.115-.38-.3-.751-.585-1.108-.851-1.061-1.5-1.828-3.367-1.284-3.935a.287.287,0,0,1,.224-.088c.527.031,1.418.905,2.066,1.762a28.318,28.318,0,0,1,1.617,2.491,28.582,28.582,0,0,0,2.148,3.225q-.407-.234-.794-.49M95.9,101.327a7.578,7.578,0,0,1,1.881.474A170.417,170.417,0,0,0,119.7,120.588a44.755,44.755,0,0,0,.041,4.9,81.243,81.243,0,0,0,1.2,10.029A103.657,103.657,0,0,1,95.9,101.327m44.09.3a10.469,10.469,0,0,1-.092-2.5,3.061,3.061,0,0,1,.117-.677,2.481,2.481,0,0,1,.529.644,14.816,14.816,0,0,1,1.434,3.389,19.284,19.284,0,0,0-1.988-.86m29.38.936a6.691,6.691,0,0,1-.517-1.3c-.425-1.37-.773-2.8-1.079-4.128a36.685,36.685,0,0,1,6.75,6.762c-1.725-.46-3.385-.882-5.154-1.33m16.319,2.87a22.614,22.614,0,0,1-.913-9.512,17.827,17.827,0,0,1,2.645,6.487c-.382,1.44-.774,2.971-1.1,4.5-.2-.5-.412-.991-.63-1.477m-48.05-4.393a13.453,13.453,0,0,1,1.331-4.707c.176-.31.406-.509.535-.472.105.025.207.191.289.462a5.588,5.588,0,0,1,.226,1.256.507.507,0,0,0-.273.01.6.6,0,0,0-.33.291,3.006,3.006,0,0,0-.3,1.188,11.232,11.232,0,0,0,.047,2.29,9.136,9.136,0,0,0-1.528-.318m136.4,19.63c-.125-1.851-.254-3.767-.191-5.622.144-4.464,1.389-8.884,2.595-13.161.25-.882.5-1.766.737-2.647.451-1.668.874-3.371,1.206-5.1q.017.84.027,1.689c.006.679,0,1.356-.006,2.035a59.666,59.666,0,0,1-1.422,6.666,42.943,42.943,0,0,0-1.682,9.647c-.023,1.19.055,2.4.129,3.562.049.747.1,1.5.119,2.257q-.6,2.449-1.311,4.875c-.016-1.407-.109-2.813-.2-4.206m-94.213-15.285a36.813,36.813,0,0,0-6.6-8.8,21.068,21.068,0,0,1-.1-2.528c.277.355.554.693.8.989a33.9,33.9,0,0,1,6.329,10.47c-.146-.045-.293-.086-.435-.131M146.225,98.9a15.118,15.118,0,0,1-2.612-3.826,1.594,1.594,0,0,1-.131-.853.527.527,0,0,1,.376-.437,1.021,1.021,0,0,1,.669.3,23.173,23.173,0,0,1,2.017,1.789l.492.474a53.3,53.3,0,0,0,9.093,7.275,9.453,9.453,0,0,0-.2,2.37c.008.542.025,1.087.045,1.631-3.767-2.183-6.768-5.369-9.752-8.72M76.06,100.355q-2.7-3.81-4.9-7.366a77.517,77.517,0,0,0,8.422,8.845q.26.521.525,1.04-2.019-1.288-4.048-2.519m75.99-.589c-1.409-1.5-3.441-4.581-3.638-6.533a1.017,1.017,0,0,1,.08-.661.635.635,0,0,1,.732-.074,2.5,2.5,0,0,1,.8.817l.6.837a41.618,41.618,0,0,0,3.114,4,14.51,14.51,0,0,0,3.911,3.117,3.684,3.684,0,0,0-.521.445,3.73,3.73,0,0,0-.749,1.141,36.4,36.4,0,0,1-4.329-3.092m-71.058.96-.269-.546c-.776-1.561-3.143-6.311-2.388-7.435.5-.757,5.018-1.169,15.835,2.417,12.082,4,24.534,8.118,35.281,15.861-1.845-.517-4.015-.862-5.806.006-6.518-3.865-13.956-6.65-21.153-9.347l-2.764-1.036c-2.355-.894-4.214-1.6-5.412-.538-.9.8-1.013,2.333-.363,4.979,1.434,5.837,4.364,11.19,7.318,16.106,1.941,3.231,3.98,6.475,6.188,9.6a74.3,74.3,0,0,1-26.467-30.065m51.232,62.395c-16.733-9.317-31.187-17.367-47.773-28.41-16.9-11.249-30.865-21.307-44.023-39.571-.815-1.133-1.512-2.16-2.1-3.086,7.261,8,17.7,16.493,28.8,23.352A168.449,168.449,0,0,0,82.781,123.8a147.152,147.152,0,0,1,26.093,15.476c5.012,3.711,14.4,11.432,19.278,17.094a61.684,61.684,0,0,0,4.294,6.881Zm43.5-58.9a37.822,37.822,0,0,0-8.605-8.576l-.394-.293a14.927,14.927,0,0,1-2.825-2.485c-.2-.246-.414-.591-.326-.843a.626.626,0,0,1,.579-.318l.018,0a2.481,2.481,0,0,1,.946.273c6.684,2.959,11.038,8.531,13.646,13.1-1.063-.308-2.068-.589-3.039-.854m50.527-13.871a115.021,115.021,0,0,1,9.766,12.06,33,33,0,0,1,4.746,8.742c-1.97,5.8-3.863,11.676-5.343,17.667.121-11.861-2.251-26.12-9.169-38.469M181.192,105.8a34.092,34.092,0,0,0-6.654-11.251,14.506,14.506,0,0,1-2.421-3.617.877.877,0,0,1-.029-.751c.179-.265.737-.178,1.163.039a10.569,10.569,0,0,1,1.926,1.469l.094.086a41.431,41.431,0,0,1,7.682,9.994,42.835,42.835,0,0,1,2.8,5.829,42.734,42.734,0,0,0-4.563-1.8m-17.936-4.807a13.135,13.135,0,0,0-2.384-.441,13.619,13.619,0,0,1-2.481-3.923c-1.038-2.23-1.922-4.6-1.354-6.851a.8.8,0,0,1,.22-.4c.016.006.047.035.113.133a9.578,9.578,0,0,1,.821,1.557c.228.5.453,1.009.671,1.512a45.876,45.876,0,0,0,2.563,5.224,17.239,17.239,0,0,0,2.628,3.4l-.8-.211m12.532-9.8-.094-.084a11,11,0,0,0-2.08-1.576c.068-.88.341-2.242.749-2.5a.173.173,0,0,1,.179-.01c.544.207,1.188,2.318,1.58,4.475-.113-.105-.222-.207-.336-.3m13.289-4.315a18.171,18.171,0,0,1,1.908,2.29l-.8,2.965a20.319,20.319,0,0,0-1.112-5.256M120.585,166.55l.006-.014c-.092-.041-.183-.082-.275-.121-27.023-13.395-49.708-33.108-65.584-49.4C45.363,107.4,39.2,99.4,34.741,91.06a8.632,8.632,0,0,1-1.128-4.553c.681,2.39,2.483,5.622,5.39,9.661,13.33,18.5,27.427,28.654,44.474,40,16.647,11.085,31.128,19.148,47.894,28.485l3.851,2.146a54.228,54.228,0,0,0,8.424,8.043q1.2.913,2.442,1.76a159.367,159.367,0,0,1-25.5-10.055m45.8-74.841a11.588,11.588,0,0,0-2.045-2.737A9,9,0,0,1,162.7,86.8a1.225,1.225,0,0,1-.156-.574.308.308,0,0,1,.164-.275.78.78,0,0,1,.3.02c2.327.507,6.375,5.72,8.42,9a26.511,26.511,0,0,0-5.039-3.262m47.6,66.878a182.126,182.126,0,0,0-10.016-17.025C192.7,125.27,189.54,117.388,189,103.338c.162-.624.33-1.245.494-1.859l4.237-15.755c1.9,19.417,13.441,46.048,18.559,57.853.942,2.175,1.625,3.748,1.978,4.666,1.385,3.568,2.719,6.635,4.007,9.6a137.327,137.327,0,0,1,5.991,15.548,30.955,30.955,0,0,1,1.067,7.8c-1.44-6.822-5.361-14.639-11.344-22.6M109.34,138.643a147.964,147.964,0,0,0-26.214-15.548,167.524,167.524,0,0,1-15.591-8.354c-12.452-7.7-24.06-17.45-31.235-26.225a10.071,10.071,0,0,1-1.243-3.861,6.02,6.02,0,0,1,3.35.375,172.762,172.762,0,0,1,43.456,21.081,76.2,76.2,0,0,0,28.451,28.516,56.093,56.093,0,0,0,13.933,13.026q1.156,3.149,2.579,6.106a160.037,160.037,0,0,0-17.486-15.115m75.245-44.409c-1.151-1.623-2.456-3.156-3.716-4.643-.942-1.106-1.916-2.253-2.813-3.418-.458-.6-.611-1.032-.478-1.364a.5.5,0,0,1,.326-.312,2.27,2.27,0,0,1,1.57.357,21.11,21.11,0,0,1,7.376,7.712,18.947,18.947,0,0,1,1.988,4.6l-.972,3.609a21.217,21.217,0,0,0-3.281-6.537m86.931,29.944a61.8,61.8,0,0,1,.023-9.838,60,60,0,0,1,2.124-9.532L274,103.6a99.313,99.313,0,0,0,3.746-19.612q.3,2.8.468,5.7a49.849,49.849,0,0,1-1.781,9.352c-.238.88-.486,1.758-.733,2.64-1.217,4.321-2.476,8.789-2.626,13.346-.06,1.894.068,3.828.193,5.7a44.661,44.661,0,0,1,.1,7q-.819,2.522-1.766,5a71.024,71.024,0,0,0-.086-8.549M187.532,92.185c-.3-.536-.62-1.061-.964-1.568a14.038,14.038,0,0,0-.41-3.939,16.122,16.122,0,0,1-.338-2.1,2,2,0,0,1,.068-.841c.072-.17.256-.3.376-.275a.71.71,0,0,1,.312.246,7.2,7.2,0,0,1,1.128,1.853,19.335,19.335,0,0,1,1.7,9.5l-.185.681a24.143,24.143,0,0,0-1.687-3.549m-75.791-9.959a181.982,181.982,0,0,1,20.513,12.95q1.615,3.058,3.4,6.011c-.105.031-.207.07-.306.109-4.893-6-13.832-12.653-23.611-19.07M67.535,86.758q-1.577-2.915-2.8-5.548a144.7,144.7,0,0,0,12.47,15.445c.382,1.03.88,2.128,1.418,3.236A76.638,76.638,0,0,1,67.535,86.758M182.427,84.47c-.351-.293-.663-.558-.905-.769-.265-.238-.55-.478-.845-.726a10.455,10.455,0,0,1-3.067-3.422.616.616,0,0,1-.07-.4.137.137,0,0,1,.088-.078,1.3,1.3,0,0,1,.825.133,29.514,29.514,0,0,1,6.684,4.317,2.664,2.664,0,0,0-.09,1.1,15.506,15.506,0,0,0,.349,2.214c.027.139.057.277.084.416a35.3,35.3,0,0,0-3.053-2.78M268.9,134.847c.025-2.005-.059-4.038-.137-6-.105-2.595-.215-5.275-.072-7.9.326-6,1.968-11.922,3.56-17.651.743-2.686,1.514-5.464,2.142-8.221a90.359,90.359,0,0,0,2.255-18.986q.237,1.387.447,2.79c.174,8.635-1.8,17.14-3.847,24.513l-.339,1.213a60.682,60.682,0,0,0-2.15,9.655,62.941,62.941,0,0,0-.025,9.965,51.093,51.093,0,0,1-.242,11.288q-.936,2.256-1.976,4.464a39.436,39.436,0,0,0,.384-5.123M231.23,153.954c-.817-2-1.662-4.058-2.316-6.132-1.982-6.317-2.3-13.088-2.6-19.639-.131-2.778-.263-5.65-.523-8.455a92.541,92.541,0,0,0-15.925-43.943c.73.509,1.444,1.044,2.144,1.582a115.919,115.919,0,0,1,11.813,10.441c9.083,14.222,11.485,31.661,10.685,44.987a88.823,88.823,0,0,0-2.1,18.426c0,2.165.135,4.354.334,6.531-.476-1.284-.995-2.55-1.506-3.8m-94.8-45.186c-.33-.741-.667-1.508-1.044-2.242a2.278,2.278,0,0,0-.544-.757,1.215,1.215,0,0,0-.574-.265,25.012,25.012,0,0,0-5.554-7.037c-10.558-10.185-22.73-18.1-36.251-25.986,3.453,1.576,6.972,3.281,10.459,5.057,12.7,7.887,25.508,16.571,31.741,24.152a3.115,3.115,0,0,0-.38.339.9.9,0,0,0-.3.884c.183.646,1.2.9,2.725,1.291l.14.035a33.935,33.935,0,0,0,.765,7.039c-.437-.817-.815-1.672-1.184-2.511M62.739,76.533c-.579-1.5-1.057-2.887-1.436-4.161,3.759,7.821,9.659,14.589,15.164,20.716a6.3,6.3,0,0,0,.185,1.773c-5.078-5.716-10.084-11.668-13.914-18.328M225.838,188.9a22.072,22.072,0,0,0-.008-4.54c.7-3.315-.059-8.713-.817-11.2a137.524,137.524,0,0,0-6.022-15.628c-1.284-2.957-2.618-6.013-3.993-9.567-.361-.934-1.046-2.511-1.994-4.694-5.3-12.224-17.505-40.387-18.666-59.794l1.613-6a13.709,13.709,0,0,1,2.076-4.981,2.813,2.813,0,0,1,.548-.552,110.911,110.911,0,0,1,10.952,24.245c2.6,8.289,4.309,17.887,5.964,27.17,1.141,6.416,2.22,12.476,3.576,18.168,1.155,4.852,2.743,9.7,4.278,14.388,2.782,8.49,5.658,17.273,6,26.278.185,4.9-.829,8.445-3.018,10.572-.56.207-1.112.425-1.654.673a15.421,15.421,0,0,0,1.165-4.534m4.286-6.74c-.345-9.114-3.238-17.95-6.038-26.493-1.531-4.672-3.112-9.5-4.263-14.325-1.348-5.671-2.425-11.721-3.566-18.124-1.656-9.308-3.371-18.929-5.989-27.269a111.237,111.237,0,0,0-10.935-24.255c.152-.01.314,0,.474,0a17.361,17.361,0,0,1,8.264,2.9,91.8,91.8,0,0,1,16.939,45.2c.258,2.788.388,5.652.519,8.42.308,6.6.626,13.424,2.643,19.834.661,2.1,1.512,4.185,2.335,6.194a67.032,67.032,0,0,1,2.614,7.154q.129,1.13.265,2.249c1.071,8.988,2.179,18.28-2.134,27.259a29.743,29.743,0,0,1-3.375,1.3l-.064.021c1.7-2.314,2.478-5.689,2.31-10.078M60.291,67.957c-.006-.039-.012-.076-.016-.115A123.389,123.389,0,0,0,77.907,90.948a2.352,2.352,0,0,0-1.034.819,2.219,2.219,0,0,0-.2.38c-6.3-7.025-13.038-14.9-16.379-24.191m205.081,67.149c.016-1.576,0-3.156-.014-4.737a78.7,78.7,0,0,1,.878-15.379,78.649,78.649,0,0,1,2.56-9.2c.2-.632.406-1.26.6-1.89,4.37-13.785,6.2-25.509,5.587-36.089q.439,1.911.831,3.826a89.491,89.491,0,0,1-2.185,23.26c-.622,2.739-1.391,5.507-2.132,8.186-1.6,5.769-3.256,11.736-3.588,17.817-.144,2.661-.035,5.363.072,7.975.08,1.955.162,3.978.135,5.962a33.405,33.405,0,0,1-.938,7.864q-1.6,3.152-3.414,6.155a52.925,52.925,0,0,0,1.606-13.748M60.141,66.057l0-.115c5.408,7.944,12.567,17.333,21.895,24.591a11.426,11.426,0,0,0-3.3.146,122.415,122.415,0,0,1-18.6-24.622M83.526,90.689C73.824,83.43,66.411,73.757,60.847,65.6,70.978,77.144,80.6,85.87,90.069,92.084a51.918,51.918,0,0,0-6.543-1.395M94.64,93.467c-.548-.181-1.186-.388-1.886-.6C82.7,86.68,72.494,77.647,61.7,65.39c5.737,5.135,11.491,9.83,16.44,13.8a190.855,190.855,0,0,0,26.739,17.753c-3.41-1.219-6.84-2.355-10.242-3.48m30.592,5.308A176.234,176.234,0,0,0,72.983,64.912a128.7,128.7,0,0,1,12.962,4.713c15.944,9.083,30.162,17.761,42.232,29.405a24.6,24.6,0,0,1,5.328,6.672,1.462,1.462,0,0,0-.423,1.21c0,.222.016.441.035.663a53.5,53.5,0,0,0-7.885-8.8m69.482-28.793c.043-1.764.1-3.478.168-5.154a48.488,48.488,0,0,0,1.738,6.606c-.074.1-.148.2-.218.293q-.825-.893-1.688-1.744M110.36,99A195.551,195.551,0,0,1,78.633,78.588C73.569,74.52,67.663,69.7,61.8,64.43c6.461,4.212,13.079,8.352,19.5,12.363q3.4,2.122,6.787,4.251c10.392,6.531,19.735,12.632,27.728,20.248q-2.7-1.214-5.453-2.292m23.832,13.48q-1.738-1.451-3.543-2.757c-3.453-6.5-9-11.578-14.491-16.108A202.626,202.626,0,0,0,66.345,63.39c.408.059.831.127,1.264.209A175.446,175.446,0,0,1,124.7,99.343a47.508,47.508,0,0,1,8.767,10.254,23.206,23.206,0,0,0,1.018,2.967c-.1-.029-.193-.057-.293-.084m-16.258-10.209c-8.385-8.4-18.311-14.9-29.433-21.889q-3.392-2.13-6.789-4.251c-6.631-4.146-13.475-8.426-20.141-12.782.043-.01.084-.016.127-.025a18.639,18.639,0,0,1,2.263,1.032c19.782,10.111,42.205,21.575,57.989,39.263.361.4.739.835,1.112,1.29q-2.528-1.408-5.129-2.638m6.849,3.621a27.12,27.12,0,0,0-2.249-2.792C106.652,85.3,84.16,73.8,64.316,63.662c-.324-.166-.65-.332-.981-.492.15,0,.3,0,.462,0a201.993,201.993,0,0,1,51.866,31.044c5.02,4.142,10.082,8.746,13.5,14.454q-2.151-1.475-4.376-2.778m53.21-41.942a3.994,3.994,0,0,1,1.451-1.272c1.137-.468,2.589.2,3.732.835a47.776,47.776,0,0,1,12.3,9.813,22.744,22.744,0,0,0-1.225,3.687L191.249,88.2a19.794,19.794,0,0,0-2.866-3.041,7.887,7.887,0,0,0-1.217-1.965,1.385,1.385,0,0,0-.734-.5,1.024,1.024,0,0,0-.835.2,30.534,30.534,0,0,0-6.818-4.4,2.075,2.075,0,0,0-1.426-.152.9.9,0,0,0-.523.49,1.283,1.283,0,0,0,.057,1.012,11,11,0,0,0,3.287,3.726c.291.244.57.482.831.71.246.218.562.486.919.784,1.3,1.1,3.26,2.745,3.828,3.82q.035.328.053.661a21.841,21.841,0,0,0-5.923-5.359,3.033,3.033,0,0,0-2.222-.433,1.287,1.287,0,0,0-.806.761,2.234,2.234,0,0,0,.585,2.132c.905,1.18,1.886,2.333,2.833,3.447,1.25,1.473,2.548,2.995,3.677,4.588.06.086.119.17.176.256a24.666,24.666,0,0,0,.006,7.327c-.168-.308-.339-.607-.507-.892a46.744,46.744,0,0,0-6.561-8.964c-.189-1.327-.9-5.611-2.242-6.12a.959.959,0,0,0-.88.082,2.153,2.153,0,0,0-.736,1.137C172.538,76,175.9,66.588,177.993,63.95M261.154,140c.033-7.612.178-15.057,1.584-22.423a84.923,84.923,0,0,1,2.848-10.193l.164-.5c4.577-14.087,8.8-30.2,7.456-46.175.152.566.3,1.132.449,1.7,1.728,11.891.107,25.149-5,41.263q-.3.942-.6,1.883a79.068,79.068,0,0,0-2.581,9.3,78.961,78.961,0,0,0-.892,15.533c.014,1.576.025,3.153.01,4.723-.051,5.254-.431,11.2-2.618,16.617-.142.217-.283.435-.425.654-.757,1.137-1.58,2.384-2.441,3.707A54.848,54.848,0,0,0,261.154,140M195.076,60.817q.143-2.5.332-4.879A96.374,96.374,0,0,0,198.6,70.025a2.541,2.541,0,0,0-.33.1,3.119,3.119,0,0,0-1.048.654,47.994,47.994,0,0,1-2.148-9.959m61.829,80.313c.025-7.107.057-14.456,1.6-21.456a101.666,101.666,0,0,1,4.231-13.221c.556-1.5,1.108-2.995,1.641-4.5,4.647-13.157,8.865-31.493,6.161-50.582q.644,2.151,1.249,4.257c2.88,17.484-1.738,35.48-6.783,51.005l-.16.5a84.593,84.593,0,0,0-2.876,10.289c-1.42,7.433-1.565,14.914-1.6,22.566-.023,5.757-.455,12.942-3.3,19.245-.527.835-1.061,1.686-1.594,2.548,1.373-6.787,1.4-13.822,1.428-20.654M232.921,95.383l1.344-16.631c.81-10.065,1.648-20.463-.57-30.543.084.094.179.211.291.361,1.344,1.82,7,13.494,8.049,23.894-.558,2.8-1.165,5.663-1.756,8.475-1.41,6.672-2.86,13.543-3.644,19.316q-1.794-2.487-3.714-4.871m-10.386-11.3c1-13.131,7.885-33.215,10.353-35.91,2.251,10.029,1.412,20.439.6,30.515l-1.278,15.818a116.667,116.667,0,0,0-9.676-10.423m15.6,18.3c.687-6.046,2.3-13.687,3.861-21.085,1.055-4.992,2.144-10.154,2.958-14.85a124.822,124.822,0,0,0,1.364-18.315c.732,12.173-1.588,24.934-3.681,36.454-1.038,5.708-2.019,11.1-2.526,15.9a28.582,28.582,0,0,0-.193,4.67c-.564-.954-1.167-1.881-1.781-2.778M195.79,51.713c.256-2.515.556-4.947.9-7.32.168,8.779,2.037,17.534,3.812,25.59-.2-.018-.408-.033-.618-.045-.162-.006-.332-.01-.5-.006a81.994,81.994,0,0,1-3.593-18.219m67.217,101.626a104.83,104.83,0,0,0,17.17-57.517c-.176-19.528-4.67-34.251-10.359-52.888l-.1-.316a142.893,142.893,0,0,1,9.292,23.165c6.615,21.543,5.814,37.741,4.635,48.05-.839,7.312-5.9,22.786-14.552,34.363q-4.594,5.463-9.626,10.548c1.254-1.957,2.462-3.791,3.535-5.4m13.57,2.614c5.552-3.426,11.292-6.968,16.612-10.806,16.74-12.078,28.925-23.49,41.671-46.087,2.376-4.212,4.153-7.848,5.868-11.364A153.274,153.274,0,0,1,352.8,66.43c2.37-3.506,5.308-7.123,8.42-10.954a148.992,148.992,0,0,0,10.037-13.317c-.767,1.959-1.539,3.773-2.132,5.162-.287.667-.542,1.264-.749,1.767-1.5,3.629-3.156,8.1-4.906,12.825-2.76,7.45-5.613,15.156-8.27,20.671-7.786,16.157-15.97,30.041-30.6,45.293A128.309,128.309,0,0,1,301.865,146.3c-.117.074-.234.146-.353.218l.006.01c-11.619,7.548-24.314,13.935-36.762,20.2a102.692,102.692,0,0,0-14.319,8.488c6.541-7.167,16.077-13.051,26.142-19.259M133.283,41.691a144.222,144.222,0,0,1,39.755,29.663A54.144,54.144,0,0,0,171.391,83.3c-7.086-12.558-24.487-31.438-38.108-41.614M235.13,163.444a102.276,102.276,0,0,1-.97-12.222c.021-15.74,5.215-30.726,10.236-45.219,4.124-11.9,8.385-24.2,9.914-37.07.657-5.544,2.216-18.66,4.4-27.773-.564,3.426-.794,6.939-1.02,10.394q-.085,1.314-.176,2.618a183.344,183.344,0,0,1-10.437,49.15c-.921,2.556-1.922,5.141-2.887,7.643-3.073,7.961-6.251,16.194-7.515,24.758-1.2,8.157-.655,16.522-.125,24.614.451,6.918.919,14.068.289,21.048-.357,3.933-1.366,6.625-3.075,8.17,3.439-8.748,2.39-17.564,1.369-26.112M121.476,55.985a59.569,59.569,0,0,1-.634-10.841,13.257,13.257,0,0,1,.858-4.588c.845,11.43,12.525,39.236,21.4,52.787a1.4,1.4,0,0,0-.39.728,2.376,2.376,0,0,0,.166,1.278,16.569,16.569,0,0,0,2.76,4.071c3.143,3.527,6.307,6.881,10.379,9.122q.059,1.089.148,2.175a15.351,15.351,0,0,1-2.55-.817,16.981,16.981,0,0,1-3.617-4.69,29.723,29.723,0,0,0-1.666-2.561c-.456-.6-1.629-2.007-2.641-2.066a1.013,1.013,0,0,0-.833.328c-.759.792-.281,2.251.295,3.391q-1.153-.732-2.2-1.3a17.95,17.95,0,0,0-1.748-4.306,4.112,4.112,0,0,0-.392-.546,6.587,6.587,0,0,0-.275-2.046,1.328,1.328,0,0,0-.831-.991c-.5-.14-1.04.178-1.416.845a12.347,12.347,0,0,0-1.286,4.069,116.083,116.083,0,0,1-15.533-44.039M240.941,107.02a21.282,21.282,0,0,1-.055-6.446c.5-4.774,1.481-10.152,2.517-15.845,2.45-13.484,5.211-28.662,3.061-42.689.02-.562.045-1.1.074-1.619a112.946,112.946,0,0,1,.79,30.01c-.326,3.26-.784,6.561-1.268,10.057-.954,6.879-1.935,13.976-1.847,20.667q-.735,2.145-1.475,4.274-.541,1.554-1.079,3.116c-.222-.517-.462-1.024-.718-1.526M122.43,39.416a2.655,2.655,0,0,1,.394-.339,2.309,2.309,0,0,1,.373-.2,360.687,360.687,0,0,1,42.962,62.878c-.137-.035-.275-.07-.414-.107A14.872,14.872,0,0,1,162.1,97.4a45.478,45.478,0,0,1-2.521-5.135c-.222-.507-.445-1.016-.671-1.52a10.582,10.582,0,0,0-.893-1.68,1.052,1.052,0,0,0-.484-.423.766.766,0,0,0-.624.047,1.437,1.437,0,0,0-.626.9c-.624,2.487.306,5.014,1.4,7.372a16.269,16.269,0,0,0,2.128,3.588,4.717,4.717,0,0,0-1.309.275,13.226,13.226,0,0,1-4.19-3.194,41.548,41.548,0,0,1-3.053-3.929l-.6-.841a3.135,3.135,0,0,0-1.079-1.055,1.375,1.375,0,0,0-1.713.3,1.7,1.7,0,0,0-.23,1.2,10.688,10.688,0,0,0,1.652,4.058c-.581-.527-1.149-1.057-1.711-1.588l-.488-.468A24.355,24.355,0,0,0,145,93.459a1.759,1.759,0,0,0-1.182-.453c-9.152-13.917-21.342-43.122-21.389-53.59m44.759,62.6a361.656,361.656,0,0,0-43.151-63.358,9.091,9.091,0,0,1,3.558.636c.6.2,1.276.449,2.019.751,14.306,9.589,34.7,31.442,41.758,44.856.006,1.531.078,3.09.228,4.661a.966.966,0,0,0-.158.183,1.566,1.566,0,0,0-.062,1.448,8.429,8.429,0,0,0,.991,1.828c0,.218,0,.437-.008.679-.01.375-.021.8-.006,1.338-1.941-3.221-6.329-9.208-9.191-9.827a1.345,1.345,0,0,0-.7,0,1.073,1.073,0,0,0-.708.964,1.955,1.955,0,0,0,.228.964,9.59,9.59,0,0,0,1.775,2.368,15.347,15.347,0,0,1,1.373,1.637,2.621,2.621,0,0,0-.966-.213h-.031a1.384,1.384,0,0,0-1.3.841,1.658,1.658,0,0,0,.453,1.59,15.408,15.408,0,0,0,2.969,2.624l.388.293c.053.037.105.078.158.117.361,1.594.767,3.387,1.3,5.105.086.269.176.548.287.825q-.591-.149-1.206-.306m34.136-31.936c-2.162-9.8-4.493-20.648-3.707-31.272q.135-.726.277-1.449a95.806,95.806,0,0,0,1.455,17.964,116.206,116.206,0,0,0,3.673,15.106,15.513,15.513,0,0,0-1.7-.347m49.316-32.8a33.014,33.014,0,0,1,5.066,9.534q-.31,1.674-.6,3.441a64.015,64.015,0,0,0-4.462-12.975M246.835,80.6c.484-3.5.942-6.812,1.27-10.084,1.18-11.723.7-23.607-1.323-32.882.039-.291.082-.564.129-.823a119.31,119.31,0,0,1,3.153,15.513,90.7,90.7,0,0,1-.259,18.1,72.28,72.28,0,0,0-.318,13.857C248.177,89.2,246.622,94.05,245,98.838A159.819,159.819,0,0,1,246.835,80.6m-9.222,100.864c.636-7.041.164-14.224-.289-21.171-.529-8.051-1.073-16.376.119-24.448,1.252-8.478,4.413-16.67,7.472-24.593.968-2.507,1.968-5.1,2.893-7.661a183.994,183.994,0,0,0,10.478-49.359c.064-.868.119-1.744.178-2.622.347-5.32.7-10.779,2.3-15.8a178.041,178.041,0,0,0-1.752,19.288c-.355,6.139-.72,12.486-1.457,18.416-1.26,10.121-5.111,20.349-8.837,30.242-3.81,10.121-7.753,20.587-8.953,31-.829,7.2-.353,14.557.111,21.67.447,6.84.905,13.916.193,20.814-.6,5.845-2.314,10.063-5.1,12.571-.191.086-.382.164-.575.238,1.795-1.691,2.856-4.524,3.223-8.584m12.329-30.95-.037-1.2a85.192,85.192,0,0,1,4.583-35.515c.763-2.152,1.57-4.387,2.388-6.66,1.781-4.945,3.623-10.061,5.209-14.774,6.483-19.282,5.16-39.195,2.569-56.6,4.832,19.435,4.9,36.84.23,53.1-1.3,4.518-2.989,9.179-4.62,13.685-2.487,6.867-5.057,13.97-6.43,20.978-1.524,7.8-1.424,15.872-1.327,23.683.086,7,.174,14.218-.909,21.214-.634,1.182-1.231,2.355-1.814,3.506-.2.4-.4.792-.6,1.182,1.26-6.99,1.026-14.335.763-22.6m3.346-3.315c-.1-7.77-.2-15.806,1.311-23.522,1.362-6.951,3.921-14.021,6.4-20.863,1.637-4.518,3.328-9.191,4.635-13.736,4.723-16.428,4.643-34-.256-53.621a46.848,46.848,0,0,1,2.011,5.533l.751,2.46q.161.527.32,1.048c5.014,21.385.365,42.535-4.815,57.205-.529,1.5-1.083,2.991-1.639,4.483a102.529,102.529,0,0,0-4.261,13.326c-1.567,7.08-1.594,14.472-1.623,21.619-.027,7.556-.057,15.355-1.918,22.747-.427.71-.851,1.422-1.264,2.136-.1.166-.193.336-.289.5a143.374,143.374,0,0,0,.636-19.319M221.358,34.982a75.3,75.3,0,0,1,8.578,14.961c-.419.821-.851,1.752-1.282,2.776-1.112-5.658-4.163-11.883-7.3-17.737M250.58,70.488a91.24,91.24,0,0,0,.258-18.245,121.824,121.824,0,0,0-3.252-15.954l-.256-1.022a2,2,0,0,1,.185-.326,102.425,102.425,0,0,1,5.9,26.912c-.295,2.281-.577,4.585-.849,6.873A107.477,107.477,0,0,1,250.1,81.9a83.689,83.689,0,0,1,.482-11.413m-2.31-35.755a1.834,1.834,0,0,1,.24.137,59.783,59.783,0,0,1,6.233,17.6c-.306,1.953-.6,3.968-.88,6.018a102.036,102.036,0,0,0-5.593-23.756m-7.427,142.583c.716-6.965.254-14.074-.193-20.946-.46-7.078-.936-14.4-.117-21.53,1.192-10.318,5.117-20.74,8.912-30.818,3.74-9.934,7.608-20.205,8.88-30.418.741-5.956,1.108-12.318,1.461-18.467.466-8.094.911-15.806,2.167-21.317a88.721,88.721,0,0,0-.521,11.645l0,1.707c-.072,16.381-.443,28.192-4.784,42.56-1.529,5.061-3.539,10.076-5.482,14.926-2.831,7.068-5.759,14.378-7.263,21.971-1.886,9.532-1.51,19.405-1.147,28.951a190.651,190.651,0,0,1,.086,19.158c-.25,3.923-.825,8.33-3.092,11.824a21.178,21.178,0,0,1-2.688,2.1c2.011-2.675,3.279-6.469,3.783-11.344m5.94-26.4c-.378-10.1-.773-20.543,1.779-30.373a104.845,104.845,0,0,1,5.154-14.116c.81-1.929,1.65-3.927,2.423-5.909,6.984-17.874,9.606-34.595,8.254-52.628-.062-.854-.14-1.771-.217-2.729-.291-3.568-.64-7.85-.628-11.455,2.784,17.815,4.495,38.475-2.2,58.409-1.584,4.707-3.424,9.819-5.2,14.758-.817,2.275-1.623,4.512-2.388,6.664a85.923,85.923,0,0,0-4.627,35.822l.039,1.18c.295,9.292.552,17.415-1.321,25.129-.761,1.407-1.563,2.794-2.48,4.189,2.156-9.436,1.781-19.333,1.42-28.939m-3.164,23.875a191.062,191.062,0,0,0-.084-19.237c-.363-9.5-.737-19.327,1.133-28.769,1.487-7.521,4.4-14.8,7.22-21.83,1.949-4.865,3.964-9.9,5.5-14.992,4.372-14.468,4.748-26.331,4.821-42.781V45.464a85.275,85.275,0,0,1,.558-11.84c-.018,3.654.336,7.987.628,11.592.08.958.152,1.875.218,2.727,1.342,17.911-1.262,34.523-8.2,52.283-.771,1.974-1.608,3.966-2.417,5.892a105.57,105.57,0,0,0-5.189,14.222c-2.579,9.942-2.183,20.441-1.8,30.6.382,10.228.778,20.785-1.892,30.707-.464.63-1,1.317-1.6,2.025-.047.014-.094.027-.14.043l.027.088c-.246.289-.5.579-.767.87a29.851,29.851,0,0,0,1.982-9.887M203.965,70.7c-1.344-3.324-3.365-12.413-3.843-15.5-1.157-7.48-2.224-16.015-.794-24.318.066-.275.137-.552.207-.825a110.465,110.465,0,0,0,6.251,41.339c-.6-.261-1.2-.494-1.82-.695m81.919,21.38a135.685,135.685,0,0,1,2.77-17.767c.4-1.99.8-3.98,1.171-5.974a200.5,200.5,0,0,0,3.371-38.97q.152,1.042.3,2.07c1.59,10.866,3.094,21.132,2.62,31.177-.624,13.143-4.975,32.111-10.15,45.086a110.514,110.514,0,0,0-.084-15.623M223.627,44.941c-1.641-4.064-3.648-8.447-5.585-12.685-.624-1.364-1.258-2.747-1.879-4.12.618.769,1.247,1.561,1.877,2.374.211.388.421.776.636,1.169,3.943,7.218,8.4,15.379,9.421,22.4-.295.743-.589,1.526-.882,2.337a52.317,52.317,0,0,0-3.588-11.477m46.848,104.35c12.37-14.71,22.519-31.218,32.421-47.328C317.881,77.591,332.033,54.569,353,37.62c3.273-2.645,14.415-11.141,20.121-9.507a1.343,1.343,0,0,1,.888.778,4.057,4.057,0,0,1,.326,1.537h0c-.95,7.288-7.825,15.753-14.472,23.941-3.137,3.861-6.1,7.509-8.514,11.077a154.875,154.875,0,0,0-12.2,21.479c-1.7,3.492-3.469,7.1-5.817,11.27-12.587,22.318-24.628,33.594-41.173,45.529-5.265,3.8-10.979,7.324-16.5,10.732-8.666,5.345-16.943,10.453-23.348,16.389.675-1.309,1.379-2.636,2.148-3.954.408-.7.823-1.4,1.243-2.1a163.631,163.631,0,0,0,14.733-15.457l0,0c.016-.018.027-.037.041-.053M206.782,71.865a109.543,109.543,0,0,1-6.247-45.557c.16-.579.332-1.137.505-1.674-.419,14.171,2.686,35.521,7.078,47.946-.439-.254-.886-.492-1.336-.716m11.539-34.374c-1.814-4.212-3.677-8.541-5.183-12.979q.565.658,1.153,1.356c.973,2.195,2.021,4.485,3.039,6.713,1.939,4.229,3.941,8.605,5.576,12.653,1.885,4.676,3.367,8.627,3.726,12.848-.244.718-.488,1.457-.728,2.208-1.13-7.807-4.274-15.111-7.583-22.8m-.476,4.912c-.979-2.563-1.99-5.211-2.919-7.78-.776-2.144-2.891-8.693-3.761-12.337q.328.357.661.735A157.74,157.74,0,0,0,217.6,37.8c3.529,8.194,6.865,15.95,7.741,24.3-.135.449-.269.9-.4,1.352a188.039,188.039,0,0,0-7.1-21.044m-8.666,30.818c-4.8-12.917-8.174-36.776-7.242-51.056.15-.371.3-.724.458-1.061a62.883,62.883,0,0,0,.137,10.2c1.206,13.853,3.724,26.848,8.363,43.056q-.843-.591-1.717-1.143m13.724-10.3A171.4,171.4,0,0,0,217,46.356c-3.445-8.7-6.711-16.949-7.755-26.122.281.295.576.6.882.929a132.2,132.2,0,0,0,4.06,13.726c.934,2.573,1.945,5.226,2.924,7.792,2.786,7.294,5.659,14.827,7.394,22.293-.2.722-.4,1.449-.589,2.177-.32-1.662-.757-3.3-1.016-4.233m-4.46-4.2c-2.251-6.258-4.173-12.368-6.272-19.132a96.316,96.316,0,0,1-4.391-20.814q.281.269.591.577c.934,9.688,4.475,18.639,7.9,27.3a170.168,170.168,0,0,1,5.874,16.487,44.707,44.707,0,0,1,1.284,5.921c-.433,1.75-.829,3.5-1.18,5.207a63.61,63.61,0,0,0-3.81-15.545m-5.367,17.265q-.571-.442-1.153-.872c-4.8-16.606-7.39-29.794-8.615-43.867-.174-2.011-.618-8.276.16-12.134.111-.178.224-.343.336-.5a97.059,97.059,0,0,0,2.856,29.113c.784,3.287,1.654,6.61,2.493,9.827,1.6,6.134,3.252,12.46,4.4,18.8-.16-.125-.32-.248-.48-.371m1.4,1.094c-1.161-6.66-2.893-13.3-4.569-19.723-.841-3.213-1.705-6.531-2.489-9.811a95.516,95.516,0,0,1-2.782-29.624,161.421,161.421,0,0,0,5.217,33.422c.593,2.224,1.243,4.479,1.873,6.658,1.922,6.652,3.9,13.512,4.473,20.47q-.855-.7-1.723-1.393m4.883,4.095a93.18,93.18,0,0,0-4.025-22.81c-.332-1.052-.673-2.124-1.016-3.205-1.1-3.451-2.238-7.021-3.2-10.408A131.52,131.52,0,0,1,206.6,17.7c.105.088.218.183.337.287a95.8,95.8,0,0,0,4.485,21.822c2.107,6.775,4.03,12.893,6.286,19.165,2.634,7.329,3.867,13.1,3.933,18.483-.316,1.806-.564,3.525-.732,5.105q-.767-.705-1.549-1.4m-2.325-2.005c-.492-7.3-2.558-14.454-4.561-21.385-.628-2.175-1.278-4.425-1.865-6.641a160.4,160.4,0,0,1-5.221-33.867.97.97,0,0,1,.4-.014,132.593,132.593,0,0,0,4.577,27.7c.968,3.4,2.107,6.972,3.207,10.429.345,1.081.687,2.154,1.018,3.205a91.2,91.2,0,0,1,3.935,21.842q-.74-.644-1.492-1.274m50.289-44.328A108.527,108.527,0,0,1,281.574,9.482c-6.541,11.3-9.945,22.232-10.142,32.618-1.26-2.454-2.628-4.895-4.107-7.267M187.3,25.323c-1.885-3.311-4.023-7.06-6.569-11.018a39.834,39.834,0,0,0-5.89-7.05c.035.02.072.041.107.062a88.518,88.518,0,0,1,23.354,20.465c-.921,3.457-1.711,6.935-2.38,10.517-2.975-3.073-5.509-7.517-8.623-12.975m-24.21,34.111c-2.595-11.654-6.02-38.251-2.778-51.224a9.257,9.257,0,0,1,1.215-2.94c-1.762,8.231,3.7,26.723,4.936,30.72.626,2.027,1.225,4.027,1.818,6.009a188.744,188.744,0,0,0,7.581,21.967A26.044,26.044,0,0,0,173.6,69.38a127.9,127.9,0,0,0-10.5-9.946M283.177,74.518c-.39-6.81.841-13.691,2.037-20.363.576-3.221,1.172-6.553,1.582-9.838.693-5.576.878-11.294,1.055-16.824.242-7.474.492-15.18,2.009-22.6.425,2.087.946,5.531,1.569,11.126l.074.687q.331,2.885.712,5.712A199.958,199.958,0,0,1,289.059,68.2c-.369,1.986-.771,3.974-1.172,5.96-.909,4.512-1.838,9.126-2.4,13.779a120.222,120.222,0,0,0-2.312-13.42M169.034,41.775c-.6-1.984-1.194-3.986-1.822-6.015-3.556-11.526-6.721-26.3-4.516-31.678a3.216,3.216,0,0,1,.476-.259,3.392,3.392,0,0,1,.79-.238c2.009,1.221,4.339,5.117,5.064,6.4a290.549,290.549,0,0,1,24.039,56.355c-.025.671-.045,1.35-.066,2.035a49.5,49.5,0,0,0-8.968-6.389c-1.487-.829-3.428-1.684-5.256-.927a5.545,5.545,0,0,0-2.158,1.8c-.08.1-.16.207-.24.318a191.44,191.44,0,0,1-7.343-21.4m.671-32.18a25.7,25.7,0,0,0-4.544-6.079c.312.018.648.053,1.012.109.092.014.187.031.281.049,2.872.613,9.046,5.741,12.8,11.582,2.524,3.919,4.649,7.645,6.522,10.935,3.469,6.083,6.237,10.935,9.772,14.194a187.292,187.292,0,0,0-2.394,23.635A290.235,290.235,0,0,0,169.705,9.6m102.5,34.045c-.144-12.347,4.366-25.525,13.42-39.21A24.5,24.5,0,0,1,287.36,2.6a111.823,111.823,0,0,0-9.907,53.181c-1.461-3.871-3.2-8.006-5.248-12.144m8.482,21.625c-.636-2.08-1.389-4.378-2.259-6.82A111,111,0,0,1,288.607,1.776a.362.362,0,0,1,.064-.008c.029,0,.115,0,.291.218a3.594,3.594,0,0,1,.482,1.153c-1.842,7.979-2.109,16.284-2.37,24.325-.179,5.513-.363,11.216-1.05,16.752-.41,3.268-1,6.59-1.58,9.8a107.243,107.243,0,0,0-2.115,17.039q-.732-2.83-1.641-5.792M237.951,52.329c2.126-15.184,7.158-23.654,12.975-33.457q.972-1.63,1.968-3.326A79.173,79.173,0,0,0,256.882,7.5c1.29-2.9,2.4-5.394,3.422-5.718.066-.023.275-.09.7.191,3.006,1.959,7.413,14.28,8.5,23.687q-1.8,3.617-3.34,7.363l-.265-.4c-1.25-2.076-2.152-2.345-2.561-2.468a2.15,2.15,0,0,0-2.076.472c-1.935,1.611-3.539,6.457-4.9,12.915a40.109,40.109,0,0,0-5.394-8.718c-1.467-1.826-2.671-2.033-3.435-1.886-.656.129-1.547.624-2.043,2.275-.718,2.384-.8,6.494-.9,11.7a130.212,130.212,0,0,1-1.364,19.243q-.105.612-.217,1.233a75.57,75.57,0,0,0-5.055-15.055M259.777.1c-1.779.562-2.86,2.995-4.5,6.676a76.157,76.157,0,0,1-3.9,7.878c-.659,1.132-1.315,2.234-1.959,3.318-5.589,9.411-10.461,17.616-12.817,31.583a17.609,17.609,0,0,0-1.2-2.031,2.837,2.837,0,0,0-2.179-1.375h-.029c-.628.01-1.36.687-2.146,1.873-5.564-12.887-19.386-28.481-23.432-31.766a2.93,2.93,0,0,0-2.84-.642c-2.737.87-4.707,5.925-5.892,10.086A90.278,90.278,0,0,0,175.86,5.815a26.879,26.879,0,0,0-9.142-3.878q-.129-.023-.252-.041l-.02,0a6.919,6.919,0,0,0-3.99.326c-1.832.815-3.127,2.688-3.845,5.568-3.121,12.491-.236,37.162,2.308,49.839-13.18-10.749-26.723-18-32.775-20-2.212-.73-4.512-1.235-6.317.006-1.662,1.145-2.558,3.576-2.741,7.431a61.5,61.5,0,0,0,.648,11.163,117.782,117.782,0,0,0,10.78,35.521C112.186,78.912,71.349,58.383,60.5,61.816A2.822,2.822,0,0,0,58.7,63.769c-1.588,4.75,3.155,18.633,13.763,34.46A168.076,168.076,0,0,0,38.933,83.354c-1.178-.371-3.377-1.057-5.154-.045-2.739,1.563-2.269,5.433-.585,8.578,4.54,8.49,10.794,16.616,20.279,26.35C66.392,131.5,83.793,147,104.377,159.6c-13.955-5.89-27.564-11.438-42.143-17.351a218,218,0,0,0-22.88-8.229c-5.462-1.537-12.636-3.143-19.7-1.941-2.593.439-4.1,1.327-4.616,2.71-.814,2.2,1.172,4.856,3.459,7.606,15.291,18.406,30.338,30.274,45.839,36.124-7.985.02-15.831-.332-24.5-2.686-2.762-.751-6.11-1.922-9.655-3.16-5.936-2.074-12.08-4.222-16.855-4.92C6.061,166.689,1.713,167.1.409,168.993a2.564,2.564,0,0,0,.045,2.868c4.3,7.733,16.19,16.06,36.36,25.449,12.355,5.753,27.092,11.994,42.691,14.647a122.648,122.648,0,0,0,16.063,1.631c-13.2,6.149-24.874,13.149-33.926,20.355a43.3,43.3,0,0,0-8.1,7.848c-.882,1.18-2,2.981-1.568,4.918.472,2.107,2.509,3.533,5.89,4.12a43.451,43.451,0,0,0,7.48.62,75.372,75.372,0,0,0,18.869-2.837,161.7,161.7,0,0,0,72.112-41.727c5.5-.952,11.054-1.881,16.656-2.684a138.537,138.537,0,0,0-15.2,8.121c-34.5,21.682-56.041,38.348-85.126,74.424-7.249,8.988-12.542,18.787-13.172,24.382a2.8,2.8,0,0,0,1.28,2.665,9.707,9.707,0,0,0,5.355,1.172c5.084,0,12.647-1.81,20.82-5.862,15.554-7.714,25.272-14.193,35.642-24.048A419.114,419.114,0,0,0,97.02,337.83c-1.894,4.756-3.553,9.431-3.041,14.294a6.336,6.336,0,0,0,1.087,3.221,4.956,4.956,0,0,0,4.179,1.834,13.227,13.227,0,0,0,4.719-1.034c18.808-7.378,36.458-20.825,52.467-39.973C172.5,296.938,184.13,280.7,194.12,263.5a178.739,178.739,0,0,0,13.9-31.469,129.623,129.623,0,0,0,.849,21.015c2.3,18.525,8.861,35.619,18.97,49.423,5.849,7.985,13.252,15.544,24.005,24.52,11.02,9.2,24.448,19.037,40.486,22.293a25.051,25.051,0,0,0,4.938.538c3.223,0,6.469-.814,8.562-3.428,1.678-2.1,2.085-4.731,2.386-7.472,2.3-21.019,1.233-40.713-3.186-58.534-4.786-19.312-13.644-36.641-25.671-50.266,3.992.31,8.057.531,12.138.531A76.278,76.278,0,0,0,311.01,228.4a43.439,43.439,0,0,0,9.522-3.773c75.229-3.061,108-18.953,116.26-23.756,3.728-2.167,9.624-7,8.051-11.364-2.655-7.363-21.709-15.17-45.3-18.561a352.536,352.536,0,0,0-42.96-3.5c15.429-9.29,31.3-23.371,41.339-33.848,8.443-8.806,11.432-14.836,9.144-18.436-5.258-8.266-36.226,2.109-37.54,2.554l-2.934.993c-16.411,5.548-34.546,11.68-51.557,20.26a113.289,113.289,0,0,0,10.845-9.879c14.786-15.42,23.047-29.441,30.906-45.746,2.694-5.591,5.562-13.336,8.334-20.824,1.744-4.713,3.395-9.163,4.885-12.765.2-.5.458-1.087.739-1.752,3.272-7.671,6.615-16.167,4.854-19.87a3.107,3.107,0,0,0-1.99-1.713c-6.362-1.83-17.3,6.264-21.709,9.828-21.2,17.138-35.428,40.283-50.492,64.79-7.439,12.1-15.014,24.423-23.559,36.019,4.376-8.947,6.965-17.923,7.548-23.03.033-.269.062-.542.092-.819,6.128-12.848,11.674-35.461,12.386-50.514.484-10.217-1.03-20.562-2.634-31.514-.7-4.748-1.416-9.657-1.986-14.68l-.076-.685c-1.03-9.282-1.883-13.75-2.85-14.94a2.086,2.086,0,0,0-1.652-.866h0c-1.364,0-2.794,1.256-6.13,5.379a110.761,110.761,0,0,0-11.645,17.562C269.422,13.936,265.5,2.8,261.966.5A2.785,2.785,0,0,0,260.44,0a2.151,2.151,0,0,0-.663.1" transform="translate(0 -0.001)" fill="none"/>
    </clipPath>
    <linearGradient id="linear-gradient-2" x1="0.093" y1="0.951" x2="0.097" y2="0.951" xlink:href="#linear-gradient"/>
  </defs>
  <g id="Group_711" data-name="Group 711" transform="matrix(1, 0.017, -0.017, 1, 7.611, 0)" opacity="0.37">
    <g id="Group_706" data-name="Group 706" transform="translate(252.417 208.181) rotate(-34)">
      <g id="Group_705" data-name="Group 705" transform="translate(0 0)" clip-path="url(#clip-path-2)">
        <rect id="Rectangle_321" data-name="Rectangle 321" width="232.752" height="274.99" transform="translate(53.115 317.457) rotate(-144.153)" fill="url(#linear-gradient)"/>
      </g>
    </g>
    <g id="Group_708" data-name="Group 708">
      <g id="Group_707" data-name="Group 707" clip-path="url(#clip-path)">
        <path id="Path_780" data-name="Path 780" d="M443.59,189.379c-2.29-6.354-19.4-14.368-44.6-17.989a352.719,352.719,0,0,0-45.978-3.549c15.035-8.517,31.928-22.843,43.848-35.274,28.426-29.647-13.724-19.1-27.482-14.444-21.653,7.335-46.308,15.388-67.75,28.662a129.408,129.408,0,0,0,23.188-18.726c13.789-14.38,22.07-27.513,30.75-45.521,4.376-9.079,9.343-24.236,13.2-33.541,1.629-3.933,6.124-13.681,6.015-18.88v0c-.037-1.7-.564-2.907-1.842-3.274-5.5-1.58-15.268,5.1-20.913,9.668-35.414,28.627-52.268,75.74-82.713,111.878h0c8.658-11.549,13.912-27.226,14.788-34.881.037-.316.072-.636.107-.96,6.327-13.186,11.678-35.744,12.367-50.317s-2.741-29.532-4.616-46.052c-.291-2.565-1.422-13.555-2.735-15.17-1.128-1.387-2.612-.2-6.422,4.51a110.144,110.144,0,0,0-12.817,19.877c-1.13-10.322-6.643-26.06-10.363-24.881-2.374.751-3.81,7.167-7.9,14.159C244.959,26.2,238.979,34.827,236.615,52.04a30.913,30.913,0,0,0-2.353-4.419,2.025,2.025,0,0,0-1.49-1.018c-.572.008-1.385,1.091-2.32,2.92-5-13.051-19.914-29.838-23.824-33.011-3.549-2.879-6.42,5.759-7.382,9.175q-.19.679-.373,1.356l-.174-.068A89.87,89.87,0,0,0,174.977,6.138a26.19,26.19,0,0,0-8.824-3.761c-.092-.02-.183-.035-.271-.045a6.239,6.239,0,0,0-3.5.259c-1.9.847-2.85,2.979-3.35,4.979-3.332,13.33.263,40.545,2.835,51.9l0,.014c-13.391-11.313-27.759-19.257-34.429-21.46-3.777-1.247-7.509-1.762-7.9,6.645a60.941,60.941,0,0,0,.642,11,116.374,116.374,0,0,0,12.329,38.487C115.49,81.207,71.316,58.741,60.339,62.225c-4.235,1.344.378,18.237,14.68,38.358l0,0a169.886,169.886,0,0,0-36.78-16.82c-1.461-.458-3.129-.878-4.456-.121-2.405,1.369-1.543,4.977-.248,7.4,5.2,9.715,12.421,18.235,20.135,26.151,18.886,19.386,41.456,37.527,66.125,49.71-19.987-8.681-38.124-16.081-58.321-24.277a217.945,217.945,0,0,0-22.788-8.2c-6.276-1.766-12.882-3.016-19.314-1.922-6.489,1.1-4.07,4.75-.628,8.89,13.059,15.72,29.969,31.53,50.393,37.511-9.793.131-19.3.232-29.956-2.665-7.366-2-18.847-6.955-26.407-8.057-9.731-1.422-13.555-.014-11.984,2.815,3.512,6.321,12.87,14.329,35.962,25.08,13.6,6.332,27.652,12.056,42.468,14.579a124.178,124.178,0,0,0,20.369,1.693l-.784.094c-12.8,5.714-26.108,13.041-37.045,21.748a43.157,43.157,0,0,0-7.94,7.686c-.917,1.227-1.75,2.716-1.418,4.2.478,2.136,3,3.067,5.183,3.447,8.625,1.5,17.505.01,25.976-2.2a160.135,160.135,0,0,0,71.907-41.692h0c7.757-1.344,15.562-2.634,23.445-3.6a133.48,133.48,0,0,0-21.1,10.589c-36.544,22.968-57.307,40-84.908,74.232C65.37,296.22,60.5,305.736,59.927,310.8c-.47,4.185,11.639,4.307,26.19-2.909,16.586-8.225,27.137-15.254,40.028-28.442a415.371,415.371,0,0,0-28.738,58.276c-1.769,4.448-3.482,9.13-2.987,13.88a5.491,5.491,0,0,0,.917,2.784c1.7,2.243,5.236,1.545,7.876.509,20.607-8.08,37.993-22.827,52.112-39.718s26.569-33.549,37.607-52.547c6.2-10.673,13.1-27.066,16.079-39.017a132.477,132.477,0,0,0,.3,28.894c2.175,17.531,8.332,34.71,18.808,49.015,6.723,9.177,15.1,17.054,23.861,24.364,11.818,9.86,24.94,19.027,40.1,22.105,4.444.9,9.825.94,12.64-2.577,1.559-1.949,1.929-4.549,2.2-7.019,2.13-19.423,1.541-39.253-3.162-58.227s-13.633-37.08-26.941-51.52l-.029-.014c11.227.964,22.7,1.362,33.582-1.514a42.262,42.262,0,0,0,9.473-3.791c37.769-1.522,88.942-7.86,116.088-23.646,3.223-1.875,9.062-6.444,7.669-10.308" transform="translate(0.429 0.429)" fill="#f2efea"/>
      </g>
    </g>
    <g id="Group_710" data-name="Group 710" transform="translate(0.001 0.002)">
      <g id="Group_709" data-name="Group 709" clip-path="url(#clip-path-4)">
        <rect id="Rectangle_323" data-name="Rectangle 323" width="548.727" height="570.772" transform="matrix(0.573, -0.819, 0.819, 0.573, -168.052, 239.831)" fill="url(#linear-gradient-2)"/>
      </g>
    </g>
  </g>
</svg>
