<svg xmlns="http://www.w3.org/2000/svg" width="63.307" height="37.216" viewBox="0 0 63.307 37.216">
  <g id="Group_628" data-name="Group 628" transform="translate(-21.431 -0.002)">
    <g id="Group_629" data-name="Group 629" transform="translate(0 0.002)">
      <path id="Path_454" data-name="Path 454" d="M1107.79,848.953a6.522,6.522,0,1,1,6.522-6.522,6.529,6.529,0,0,1-6.522,6.522m0-10.743a4.221,4.221,0,1,0,4.221,4.221,4.226,4.226,0,0,0-4.221-4.221" transform="translate(-1069.422 -811.737)" fill="#fff"/>
      <path id="Path_459" data-name="Path 459" d="M2360.672,848.953a6.522,6.522,0,1,1,6.521-6.522,6.529,6.529,0,0,1-6.521,6.522m0-10.743a4.221,4.221,0,1,0,4.221,4.221,4.226,4.226,0,0,0-4.221-4.221" transform="translate(-2286.074 -811.737)" fill="#fff"/>
      <path id="Path_460" data-name="Path 460" d="M2248.327,127.189H2246.1a.984.984,0,0,1-.833-.461l-6.679-10.644a.983.983,0,0,0-.833-.461h-7.739a.983.983,0,0,0-.983.983v23.96a.983.983,0,0,0,1.929.265,8.526,8.526,0,0,1,16.366,0,.988.988,0,0,0,.946.718h.055a.983.983,0,0,0,.983-.983V128.172a.983.983,0,0,0-.983-.983m-7.5,0h-9.006a.823.823,0,0,1-.823-.823v-7.4a.822.822,0,0,1,.823-.823h4.836a.822.822,0,0,1,.717.419l4.17,7.4a.823.823,0,0,1-.717,1.226" transform="translate(-2164.573 -112.281)" fill="#fff"/>
      <path id="Path_461" data-name="Path 461" d="M776.808,0h-30a5.705,5.705,0,0,0-5.689,5.689V25.774a4.032,4.032,0,0,0,1.188,2.857,4.584,4.584,0,0,0,2.857,1.188h3.106a1.652,1.652,0,0,0,1.574-1.17,8.717,8.717,0,0,1,16.643,0,1.652,1.652,0,0,0,1.574,1.17h10.4a4.057,4.057,0,0,0,4.045-4.045V5.691A5.705,5.705,0,0,0,776.808,0" transform="translate(-719.684 -0.002)" fill="#fff"/>
    </g>
  </g>
</svg>
