<svg xmlns="http://www.w3.org/2000/svg" xmlns:xlink="http://www.w3.org/1999/xlink" width="917.855" height="499.643" viewBox="0 0 917.855 499.643">
  <defs>
    <clipPath id="clip-path">
      <rect id="Rectangle_281" data-name="Rectangle 281" width="917.855" height="499.643" fill="#eed199"/>
    </clipPath>
  </defs>
  <g id="Group_634" data-name="Group 634" opacity="0.7">
    <path id="Path_462" data-name="Path 462" d="M911.74,466.067v51.015h3.442V469.509h92.11V595.576h-92.11v-18.73H911.74v22.172h98.994V466.067Z" transform="translate(-284.128 -139.114)" fill="#eed199"/>
    <path id="Path_463" data-name="Path 463" d="M873.22,464.331,782.81,460.5v43.271h3.442V464.09l85.309,3.614v47.642H875V464.407ZM871.561,575.11v18.8l-85.309,3.621V575.11H782.81v26.006l90.569-3.834,1.625-.069v-22.1Z" transform="translate(-243.95 -137.379)" fill="#eed199"/>
    <path id="Path_464" data-name="Path 464" d="M1050.55,599.018h99.71V466.067h-99.71Zm96.268-3.442h-92.826V469.509h92.826Z" transform="translate(-327.386 -139.114)" fill="#eed199"/>
    <rect id="Rectangle_273" data-name="Rectangle 273" width="6.279" height="17.969" transform="translate(820.084 422.029)" fill="#eed199"/>
    <rect id="Rectangle_274" data-name="Rectangle 274" width="6.279" height="17.969" transform="translate(820.084 345.125)" fill="#eed199"/>
    <g id="Group_633" data-name="Group 633">
      <g id="Group_632" data-name="Group 632" clip-path="url(#clip-path)">
        <path id="Path_465" data-name="Path 465" d="M1054.045,550.735a8.331,8.331,0,0,1,0,16.592Z" transform="translate(-328.475 -166.92)" fill="#eed199"/>
        <path id="Path_466" data-name="Path 466" d="M814.909,281.6v53.621h3.442V283.632a7.368,7.368,0,0,1-3.442-2.035m80.918,53.621h3.442V281.6a7.413,7.413,0,0,1-3.442,2.028Zm-80.918-75.281h84.359v-3.485H814.909Z" transform="translate(-253.953 -77.727)" fill="#eed199"/>
        <path id="Path_467" data-name="Path 467" d="M807.633,256.452l-.744,1.268V276.4a10.992,10.992,0,0,0,5.521,9.548,10.519,10.519,0,0,0,3.442,1.247,10.327,10.327,0,0,0,1.866.167h.186a10.77,10.77,0,0,0,9.1-5.046,10.933,10.933,0,0,0,1.721-5.917V256.452Zm17.65,19.946a7.436,7.436,0,0,1-7.379,7.478h-.186a7.133,7.133,0,0,1-1.866-.244,7.367,7.367,0,0,1-3.442-2.035,7.52,7.52,0,0,1-2.079-5.2V259.937h14.951Z" transform="translate(-251.453 -77.727)" fill="#eed199"/>
        <path id="Path_468" data-name="Path 468" d="M833.609,256.452V276.4a10.931,10.931,0,0,0,1.721,5.917,10.791,10.791,0,0,0,9.107,5.046h.186a10.77,10.77,0,0,0,9.1-5.046,10.931,10.931,0,0,0,1.721-5.917V256.452ZM852,276.4a7.436,7.436,0,0,1-7.379,7.478h-.186a7.438,7.438,0,0,1-7.386-7.478V259.937H852Z" transform="translate(-259.78 -77.727)" fill="#eed199"/>
        <path id="Path_469" data-name="Path 469" d="M860.329,256.452V276.4a10.933,10.933,0,0,0,1.721,5.917,10.791,10.791,0,0,0,9.107,5.046h.179a10.791,10.791,0,0,0,9.107-5.046,10.934,10.934,0,0,0,1.721-5.917V256.452ZM878.722,276.4a7.438,7.438,0,0,1-7.386,7.478h-.179a7.438,7.438,0,0,1-7.386-7.478V259.937h14.951Z" transform="translate(-268.107 -77.727)" fill="#eed199"/>
        <path id="Path_470" data-name="Path 470" d="M887.049,256.452V276.4a10.932,10.932,0,0,0,1.721,5.917,10.77,10.77,0,0,0,9.1,5.046h.186a10.791,10.791,0,0,0,9.107-5.046,10.933,10.933,0,0,0,1.721-5.917V256.452ZM905.442,276.4a7.438,7.438,0,0,1-7.386,7.478h-.186a7.436,7.436,0,0,1-7.379-7.478V259.937h14.951Z" transform="translate(-276.434 -77.727)" fill="#eed199"/>
        <path id="Path_471" data-name="Path 471" d="M934.861,256.452H913.769V276.4a10.933,10.933,0,0,0,1.721,5.917,10.77,10.77,0,0,0,9.1,5.046h.186a10.248,10.248,0,0,0,1.859-.167,10.509,10.509,0,0,0,3.442-1.241A11,11,0,0,0,935.6,276.4V257.72Zm-2.7,19.946a7.5,7.5,0,0,1-2.086,5.206,7.413,7.413,0,0,1-3.442,2.028,7.117,7.117,0,0,1-1.859.244h-.186a7.436,7.436,0,0,1-7.379-7.478V259.937h14.951Z" transform="translate(-284.761 -77.727)" fill="#eed199"/>
        <path id="Path_472" data-name="Path 472" d="M847.117,254.654h14.951v-3.485H847.117Zm-18.393,0h14.951v-3.485H828.724Zm18.393,0h14.951v-3.485H847.117Zm-18.393,0h14.951v-3.485H828.724Zm72.829-3.485-7.131-12.147H814.764l-7.131,12.147-.744,1.268v2.216H902.3v-2.216Zm-89.914,0,5.08-8.663h75.748l5.08,8.663Zm17.085,3.485h14.951v-3.485H828.724Zm18.393,0h14.951v-3.485H847.117Zm-18.393,0h14.951v-3.485H828.724Zm18.393,0h14.951v-3.485H847.117Z" transform="translate(-251.453 -72.444)" fill="#eed199"/>
        <path id="Path_473" data-name="Path 473" d="M808.039,379.351h93.824V364.472H808.039Zm90.383-3.485H811.481v-7.91h86.941Z" transform="translate(-251.812 -110.466)" fill="#eed199"/>
        <path id="Path_474" data-name="Path 474" d="M992.295,281.6v53.621h3.442V283.632a7.369,7.369,0,0,1-3.442-2.035m80.918,53.621h3.442V281.6a7.415,7.415,0,0,1-3.442,2.028Zm-80.918-75.281h84.36v-3.485h-84.36Z" transform="translate(-309.232 -77.727)" fill="#eed199"/>
        <path id="Path_475" data-name="Path 475" d="M985.018,256.452l-.743,1.268V276.4a10.992,10.992,0,0,0,5.521,9.548,10.521,10.521,0,0,0,3.442,1.247,10.324,10.324,0,0,0,1.865.167h.186a10.77,10.77,0,0,0,9.1-5.046,10.933,10.933,0,0,0,1.721-5.917V256.452Zm17.65,19.946a7.436,7.436,0,0,1-7.379,7.478H995.1a7.131,7.131,0,0,1-1.865-.244A7.369,7.369,0,0,1,989.8,281.6a7.52,7.52,0,0,1-2.079-5.2V259.937h14.951Z" transform="translate(-306.733 -77.727)" fill="#eed199"/>
        <path id="Path_476" data-name="Path 476" d="M1011,256.452V276.4a10.931,10.931,0,0,0,1.721,5.917,10.791,10.791,0,0,0,9.107,5.046h.186a10.77,10.77,0,0,0,9.1-5.046,10.932,10.932,0,0,0,1.721-5.917V256.452Zm18.393,19.946a7.436,7.436,0,0,1-7.379,7.478h-.186a7.438,7.438,0,0,1-7.386-7.478V259.937h14.951Z" transform="translate(-315.06 -77.727)" fill="#eed199"/>
        <path id="Path_477" data-name="Path 477" d="M1037.715,256.452V276.4a10.934,10.934,0,0,0,1.721,5.917,10.791,10.791,0,0,0,9.107,5.046h.179a10.791,10.791,0,0,0,9.107-5.046,10.933,10.933,0,0,0,1.721-5.917V256.452Zm18.393,19.946a7.438,7.438,0,0,1-7.386,7.478h-.179a7.438,7.438,0,0,1-7.386-7.478V259.937h14.951Z" transform="translate(-323.386 -77.727)" fill="#eed199"/>
        <path id="Path_478" data-name="Path 478" d="M1064.435,256.452V276.4a10.933,10.933,0,0,0,1.721,5.917,10.77,10.77,0,0,0,9.1,5.046h.186a10.791,10.791,0,0,0,9.107-5.046,10.935,10.935,0,0,0,1.721-5.917V256.452Zm18.393,19.946a7.438,7.438,0,0,1-7.386,7.478h-.186a7.436,7.436,0,0,1-7.379-7.478V259.937h14.951Z" transform="translate(-331.713 -77.727)" fill="#eed199"/>
        <path id="Path_479" data-name="Path 479" d="M1112.247,256.452h-21.092V276.4a10.931,10.931,0,0,0,1.721,5.917,10.77,10.77,0,0,0,9.1,5.046h.186a10.244,10.244,0,0,0,1.858-.167,10.509,10.509,0,0,0,3.442-1.241,11,11,0,0,0,5.527-9.555V257.72Zm-2.7,19.946a7.5,7.5,0,0,1-2.086,5.206,7.415,7.415,0,0,1-3.442,2.028,7.117,7.117,0,0,1-1.858.244h-.186a7.437,7.437,0,0,1-7.379-7.478V259.937h14.951Z" transform="translate(-340.04 -77.727)" fill="#eed199"/>
        <path id="Path_480" data-name="Path 480" d="M1024.5,254.654h14.952v-3.485H1024.5Zm-18.393,0h14.951v-3.485H1006.11Zm18.393,0h14.952v-3.485H1024.5Zm-18.393,0h14.951v-3.485H1006.11Zm72.829-3.485-7.131-12.147H992.15l-7.132,12.147-.743,1.268v2.216h95.408v-2.216Zm-89.914,0,5.08-8.663h75.748l5.08,8.663Zm17.085,3.485h14.951v-3.485H1006.11Zm18.393,0h14.952v-3.485H1024.5Zm-18.393,0h14.951v-3.485H1006.11Zm18.393,0h14.952v-3.485H1024.5Z" transform="translate(-306.733 -72.444)" fill="#eed199"/>
        <path id="Path_481" data-name="Path 481" d="M985.425,379.351h93.825V364.472H985.425Zm90.383-3.485H988.867v-7.91h86.941Z" transform="translate(-307.091 -110.466)" fill="#eed199"/>
        <path id="Path_482" data-name="Path 482" d="M1169.681,281.6v53.621h3.442V283.632a7.367,7.367,0,0,1-3.442-2.035m80.917,53.621h3.442V281.6a7.414,7.414,0,0,1-3.442,2.028Zm-80.917-75.281h84.359v-3.485h-84.359Z" transform="translate(-364.511 -77.727)" fill="#eed199"/>
        <path id="Path_483" data-name="Path 483" d="M1162.4,256.452l-.743,1.268V276.4a10.992,10.992,0,0,0,5.521,9.548,10.52,10.52,0,0,0,3.442,1.247,10.323,10.323,0,0,0,1.865.167h.186a10.77,10.77,0,0,0,9.1-5.046,10.932,10.932,0,0,0,1.721-5.917V256.452Zm17.65,19.946a7.436,7.436,0,0,1-7.379,7.478h-.186a7.131,7.131,0,0,1-1.865-.244,7.369,7.369,0,0,1-3.442-2.035,7.52,7.52,0,0,1-2.079-5.2V259.937h14.951Z" transform="translate(-362.012 -77.727)" fill="#eed199"/>
        <path id="Path_484" data-name="Path 484" d="M1188.381,256.452V276.4a10.933,10.933,0,0,0,1.721,5.917,10.791,10.791,0,0,0,9.107,5.046h.186a10.77,10.77,0,0,0,9.1-5.046,10.931,10.931,0,0,0,1.721-5.917V256.452Zm18.393,19.946a7.436,7.436,0,0,1-7.379,7.478h-.186a7.438,7.438,0,0,1-7.386-7.478V259.937h14.951Z" transform="translate(-370.339 -77.727)" fill="#eed199"/>
        <path id="Path_485" data-name="Path 485" d="M1215.1,256.452V276.4a10.933,10.933,0,0,0,1.721,5.917,10.791,10.791,0,0,0,9.107,5.046h.179a10.791,10.791,0,0,0,9.107-5.046,10.931,10.931,0,0,0,1.721-5.917V256.452Zm18.393,19.946a7.438,7.438,0,0,1-7.386,7.478h-.179a7.438,7.438,0,0,1-7.386-7.478V259.937h14.951Z" transform="translate(-378.666 -77.727)" fill="#eed199"/>
        <path id="Path_486" data-name="Path 486" d="M1241.821,256.452V276.4a10.931,10.931,0,0,0,1.721,5.917,10.77,10.77,0,0,0,9.1,5.046h.186a10.792,10.792,0,0,0,9.107-5.046,10.933,10.933,0,0,0,1.721-5.917V256.452Zm18.393,19.946a7.438,7.438,0,0,1-7.386,7.478h-.186a7.437,7.437,0,0,1-7.379-7.478V259.937h14.951Z" transform="translate(-386.992 -77.727)" fill="#eed199"/>
        <path id="Path_487" data-name="Path 487" d="M1289.633,256.452h-21.092V276.4a10.934,10.934,0,0,0,1.721,5.917,10.77,10.77,0,0,0,9.1,5.046h.186a10.249,10.249,0,0,0,1.859-.167,10.51,10.51,0,0,0,3.442-1.241,11,11,0,0,0,5.528-9.555V257.72Zm-2.7,19.946a7.5,7.5,0,0,1-2.086,5.206,7.413,7.413,0,0,1-3.442,2.028,7.119,7.119,0,0,1-1.859.244h-.186a7.437,7.437,0,0,1-7.379-7.478V259.937h14.951Z" transform="translate(-395.319 -77.727)" fill="#eed199"/>
        <path id="Path_488" data-name="Path 488" d="M1201.889,254.654h14.951v-3.485h-14.951Zm-18.393,0h14.951v-3.485H1183.5Zm18.393,0h14.951v-3.485h-14.951Zm-18.393,0h14.951v-3.485H1183.5Zm72.829-3.485-7.132-12.147h-79.658l-7.131,12.147-.743,1.268v2.216h95.407v-2.216Zm-89.914,0,5.08-8.663h75.748l5.08,8.663Zm17.085,3.485h14.951v-3.485H1183.5Zm18.393,0h14.951v-3.485h-14.951Zm-18.393,0h14.951v-3.485H1183.5Zm18.393,0h14.951v-3.485h-14.951Z" transform="translate(-362.012 -72.444)" fill="#eed199"/>
        <path id="Path_489" data-name="Path 489" d="M1162.811,379.351h93.824V364.472h-93.824Zm90.382-3.485h-86.941v-7.91h86.941Z" transform="translate(-362.37 -110.466)" fill="#eed199"/>
        <path id="Path_490" data-name="Path 490" d="M1151.436,3.485V0H749.54V27.1h401.9V23.619H752.982V3.485Z" transform="translate(-233.581 0)" fill="#eed199"/>
        <path id="Path_491" data-name="Path 491" d="M591.06,593.737h87.168v-56.06H591.06Zm83.726-3.485H594.5V541.162h80.284Z" transform="translate(-184.194 -162.962)" fill="#eed199"/>
        <rect id="Rectangle_275" data-name="Rectangle 275" width="3.442" height="52.574" transform="translate(476.573 376.458)" fill="#eed199"/>
        <rect id="Rectangle_276" data-name="Rectangle 276" width="9.899" height="5.758" transform="translate(426.942 417.342)" fill="#eed199"/>
        <path id="Path_492" data-name="Path 492" d="M748.11,588.639h62.717V520.857H748.11Zm59.275-3.484H751.552V524.342h55.833Z" transform="translate(-233.136 -157.865)" fill="#eed199"/>
        <rect id="Rectangle_277" data-name="Rectangle 277" width="59.28" height="3.485" transform="translate(516.692 376.183)" fill="#eed199"/>
        <path id="Path_510" data-name="Path 510" d="M0,0,6.222-.038l-.067,10.83-6.222.038Z" transform="translate(555.396 403.113) rotate(-45)" fill="#eed199"/>
        <path id="Path_493" data-name="Path 493" d="M869.63,593.737h67.894v-56.06H869.63Zm64.452-3.485h-61.01V541.162h61.01Z" transform="translate(-271.005 -162.962)" fill="#eed199"/>
        <path id="Path_494" data-name="Path 494" d="M951.2,595.61a5.09,5.09,0,1,1-5.089-5.153,5.122,5.122,0,0,1,5.089,5.153" transform="translate(-293.254 -178.959)" fill="#eed199"/>
        <path id="Path_495" data-name="Path 495" d="M561.39,608.781h23.866v-3.164H561.39Zm187.807,0h27.817v-3.164H749.2Zm88.827,0h61.809v-3.164H838.024Zm-172.484,0h27.824v-3.164H665.54Z" transform="translate(-174.948 -183.554)" fill="#eed199"/>
        <rect id="Rectangle_279" data-name="Rectangle 279" width="338.443" height="3.164" transform="translate(386.442 435.221)" fill="#eed199"/>
        <path id="Path_496" data-name="Path 496" d="M873.08,696.437v14.287h3.442v-10.8h241.616v10.8h3.442V696.437Z" transform="translate(-272.081 -211.08)" fill="#eed199"/>
        <path id="Path_497" data-name="Path 497" d="M904.18,693.708h205.677V675.937H904.18Zm3.442-14.287h198.793v10.8H907.622Z" transform="translate(-281.772 -204.867)" fill="#eed199"/>
        <path id="Path_498" data-name="Path 498" d="M342.459,485.259A2.249,2.249,0,0,0,344.694,483V472.9a2.249,2.249,0,0,0-2.235-2.263h-.712V437.093a12.984,12.984,0,0,0-12.886-13.046H134.4a12.984,12.984,0,0,0-12.886,13.046v2.944H55.942a17.993,17.993,0,0,0-15.98,9.759L1.053,524.506A9.363,9.363,0,0,0,0,528.813v56.124a9.187,9.187,0,0,0,9.12,9.234H53.883a35.435,35.435,0,0,0,70.812,0h7.659a9.07,9.07,0,0,0,.977-.054c.354.029.71.055,1.071.055h108.31a35.435,35.435,0,0,0,70.812,0H328.86a12.984,12.984,0,0,0,12.886-13.046V547.577h.712a2.249,2.249,0,0,0,2.235-2.263V535.222a2.249,2.249,0,0,0-2.235-2.263h-.712v-47.7ZM23.911,590.686H16.489c-.019.526-.04,1.051-.04,1.582v-1.583H9.12a5.72,5.72,0,0,1-5.678-5.749V528.813a5.827,5.827,0,0,1,.655-2.682l38.909-74.709a14.566,14.566,0,0,1,12.935-7.9h65.574V563.695a42.537,42.537,0,0,0-32.223-14.823c-23.121,0-42.012,18.614-42.838,41.814Zm97.335,3.485h0a31.992,31.992,0,0,1-63.915,0h0c-.034-.627-.055-1.261-.055-1.9,0-.53.014-1.059.041-1.582h0a31.993,31.993,0,0,1,63.942,0h0c.028.523.041,1.052.041,1.582,0,.641-.021,1.275-.055,1.9m3.456-3.484h0c-.016-.37-.047-.736-.074-1.1a35.957,35.957,0,0,0-3.113-12.266,35.366,35.366,0,0,0-67.64,13.37H49.89c.819-21.277,18.18-38.33,39.4-38.33A39.271,39.271,0,0,1,121.515,569.3a40.179,40.179,0,0,1,7.038,19.322c.061.684.107,1.374.134,2.068Zm185.373,3.485a31.992,31.992,0,0,1-63.915,0c-.034-.627-.055-1.261-.055-1.9,0-.53.014-1.059.041-1.582a31.993,31.993,0,0,1,63.942,0c.028.523.041,1.052.041,1.582,0,.641-.021,1.275-.055,1.9m3.456-3.485a35.431,35.431,0,0,0-70.826,0h-3.986c.819-21.277,18.18-38.33,39.4-38.33s38.583,17.053,39.4,38.33ZM338.3,570.629v10.5a9.514,9.514,0,0,1-9.444,9.562h-7.908c-.827-23.2-19.718-41.815-42.838-41.815s-42,18.614-42.832,41.815H134.4a9.243,9.243,0,0,1-2.3-.3,43.487,43.487,0,0,0-7.149-22.139V463.694H338.3Zm0-110.419H124.957v-9.8H338.3Zm0-13.282H124.957v-9.835a9.514,9.514,0,0,1,9.444-9.562H328.86a9.515,9.515,0,0,1,9.444,9.562Z" transform="translate(0 -128.523)" fill="#eed199"/>
        <path id="Path_499" data-name="Path 499" d="M394.013,633.307a22.251,22.251,0,0,0-22.048,20.8c-.034.523-.055,1.052-.055,1.582q0,.962.083,1.9a22.082,22.082,0,0,0,44.049,0q.083-.941.083-1.9c0-.53-.021-1.059-.055-1.582a22.257,22.257,0,0,0-22.055-20.8m18.572,24.287a18.641,18.641,0,0,1-37.137,0c-.062-.627-.1-1.261-.1-1.9,0-.53.021-1.059.069-1.582a18.643,18.643,0,0,1,37.192,0c.048.523.069,1.052.069,1.582,0,.641-.034,1.275-.1,1.9" transform="translate(-115.899 -191.947)" fill="#eed199"/>
        <path id="Path_500" data-name="Path 500" d="M400.837,655.2a7.13,7.13,0,1,0,7.042,7.129,7.094,7.094,0,0,0-7.042-7.129" transform="translate(-122.72 -198.582)" fill="#eed199"/>
        <path id="Path_501" data-name="Path 501" d="M496.46,456.162v3.5l42.975-2.85v122.2l-42.975-2.85v3.5l46.417,3.076V453.087Z" transform="translate(-154.713 -137.324)" fill="#eed199"/>
        <path id="Path_502" data-name="Path 502" d="M284.75,666.642h.04v-3.484c-.019.526-.04,3.484-.04,3.484" transform="translate(-88.738 -200.994)" fill="#eed199"/>
        <path id="Path_503" data-name="Path 503" d="M28.946,663.157h0Z" transform="translate(-9.021 -200.994)" fill="#eed199"/>
        <path id="Path_504" data-name="Path 504" d="M23.9,664.739c0-.53.021-1.056.04-1.582H23.9Z" transform="translate(-7.447 -200.994)" fill="#eed199"/>
        <path id="Path_505" data-name="Path 505" d="M141.755,654.11a22.089,22.089,0,0,0-44.1,0c-.034.523-.055,1.052-.055,1.582q0,.962.083,1.9a22.082,22.082,0,0,0,44.049,0q.083-.941.083-1.9C141.81,655.162,141.789,654.633,141.755,654.11Zm-3.483,3.485h0a18.641,18.641,0,0,1-37.137,0c-.062-.627-.1-1.261-.1-1.9,0-.53.021-1.059.069-1.582a18.643,18.643,0,0,1,37.192,0c.048.523.069,1.052.069,1.582,0,.641-.034,1.275-.1,1.9" transform="translate(-30.414 -191.947)" fill="#eed199"/>
        <path id="Path_506" data-name="Path 506" d="M126.523,655.2a7.07,7.07,0,0,0-6.861,5.545,7.029,7.029,0,0,0,.081,3.485,7.011,7.011,0,0,0,13.561,0,7.007,7.007,0,0,0,.081-3.485,7.07,7.07,0,0,0-6.861-5.545m5.448,5.545c-.016-.37-.047-.736-.074-1.1.1.124.213.244.323.364.231.253.465.505.714.739Z" transform="translate(-37.234 -198.582)" fill="#eed199"/>
        <path id="Path_507" data-name="Path 507" d="M137.519,661.574h0c.027.367.058.733.074,1.1h.964c-.25-.234-.483-.486-.715-.739-.109-.12-.218-.24-.323-.364" transform="translate(-42.855 -200.514)" fill="#eed199"/>
        <path id="Path_508" data-name="Path 508" d="M112.155,537.823a7.679,7.679,0,0,0,7.569-7.767V473.449a6.963,6.963,0,0,0-6.865-7.042H69.229a9.528,9.528,0,0,0-8.531,5.349L33.312,526.51a7.878,7.878,0,0,0,.31,7.653,7.483,7.483,0,0,0,6.425,3.659h72.109Zm-72.109-3.485a4.02,4.02,0,0,1-3.492-2,4.379,4.379,0,0,1-.171-4.255l27.387-54.753a6.1,6.1,0,0,1,5.46-3.439h43.63a3.5,3.5,0,0,1,3.423,3.557v56.607a4.212,4.212,0,0,1-4.127,4.283H40.046Z" transform="translate(-10.118 -141.361)" fill="#eed199"/>
        <rect id="Rectangle_280" data-name="Rectangle 280" width="3.442" height="62.841" transform="translate(529.196 436.803)" fill="#eed199"/>
        <path id="Path_509" data-name="Path 509" d="M1151.825,37.758V33.891H763.166v84.222H752.852a2.078,2.078,0,0,0-2.065,2.091v14.308a2.078,2.078,0,0,0,2.065,2.091h10.314V374.43h3.442V136.6h385.217v-4.181H754.917V122.295h396.907v-4.181H766.608V37.758Z" transform="translate(-233.97 -10.272)" fill="#eed199"/>
      </g>
    </g>
  </g>
</svg>
