<svg xmlns="http://www.w3.org/2000/svg" viewBox="0 0 780.6 799.2"><defs><style>.cls-1{fill:#2683fb;}.cls-2{fill:#ea4335;}.cls-3{fill:#34a853;}.cls-4{fill:#ffbc00;}</style></defs><g id="圖層_2" data-name="圖層 2"><g id="栝鍣_1" data-name="栝鍣 1"><path class="cls-1" d="M775.35,326.63s5.25,55.89,5.25,74.38c0,19.54-5.25,77.77-5.25,77.77a2.17,2.17,0,0,1,0,.25c-12.3,87.3-46.69,165.9-109.45,222.41l-129-97.11a244.4,244.4,0,0,0,27.85-21.4c31.11-27.7,46.19-63.45,53.15-103.9H400.21V326.63H775.35Z"/><path class="cls-2" d="M667.67,104.52,552.92,217.46C511.53,183,461,157.66,403.08,157.66c-106.36,0-196.77,68.3-229.81,163.46l-131-98.61C108.26,91.09,244.33,0,400.21,0,502.2,0,597,41.17,667.41,104.3Z"/><path class="cls-3" d="M665.86,701.44l-1.27,1.14C594.28,765.17,499.49,799.2,398,799.2c-156,0-291-89.76-356.24-220.47L172.93,480c32.77,95.65,123.43,164.41,230.15,164.41a242.23,242.23,0,0,0,133.81-40Z"/><path class="cls-4" d="M172.93,480,41.74,578.73a398.49,398.49,0,0,1,.56-356.22l131,98.61A244.63,244.63,0,0,0,172.93,480Z"/></g></g></svg>