<svg id="Group_13" data-name="Group 13" xmlns="http://www.w3.org/2000/svg" xmlns:xlink="http://www.w3.org/1999/xlink" width="75.227" height="55.646" viewBox="0 0 75.227 55.646">
  <defs>
    <clipPath id="clip-path">
      <rect id="Rectangle_8" data-name="Rectangle 8" width="75.227" height="55.646" fill="#f2efea"/>
    </clipPath>
  </defs>
  <g id="Group_12" data-name="Group 12" clip-path="url(#clip-path)">
    <path id="Path_6" data-name="Path 6" d="M74.652,37.021c-.3-.311-6.771-6.891-15.659-8.26,5.318-7.253,5.239-16.483,5.232-16.916l-.014-.827L63.385,11c-.434-.01-9.664-.086-16.916,5.23C45.1,7.347,38.518.877,38.208.576L37.614,0l-.595.575c-.311.3-6.892,6.773-8.261,15.661C21.506,10.92,12.278,11,11.843,11l-.827.013L11,11.845c-.007.433-.085,9.658,5.233,16.915C7.347,30.129.876,36.71.575,37.021L0,37.615l.575.594C.91,38.556,8.906,46.7,19.4,46.723h.08c7.962-.039,14.483-4.761,17.284-7.159v7.778a4.2,4.2,0,1,0,1.709,0V39.563c2.807,2.4,9.352,7.139,17.352,7.16H55.9c10.446-.051,18.418-8.167,18.753-8.513l.575-.594ZM62.494,12.736c-.119,2.53-.871,10.1-5.5,15.811-.1-.006-.193-.015-.29-.019v-.021H54.947v.02a21.169,21.169,0,0,0-2.356.243c.352-.293.7-.6,1.028-.928,3.3-3.319,4.746-7.875,5.375-11.112l.121-.621-.621.12c-3.229.626-7.777,2.067-11.127,5.4-.323.324-.623.664-.911,1.01a21.021,21.021,0,0,0,.266-3.232V19.33c0-.369-.016-.734-.038-1.1,5.695-4.617,13.279-5.375,15.811-5.5M52.812,34.376a15.643,15.643,0,0,1,3.025-.313,20.473,20.473,0,0,1,10.645,3.556,20.456,20.456,0,0,1-10.669,3.548,20.471,20.471,0,0,1-10.644-3.556c.116-.074.236-.149.356-.224a27.813,27.813,0,0,0,7.287-3.012M40.006,36.623c2.793-2.286,8.6-6.249,15.448-6.4-4.938,4.727-11.855,6.037-15.448,6.4m-9.948.989a20.49,20.49,0,0,1-10.668,3.556A20.436,20.436,0,0,1,8.744,37.619a20.488,20.488,0,0,1,10.669-3.556,15.507,15.507,0,0,1,3.007.312A27.828,27.828,0,0,0,29.7,37.384c.122.076.245.152.362.227M19.774,30.225c6.831.15,12.646,4.111,15.444,6.4-3.6-.362-10.508-1.673-15.444-6.4m4.81-1.061a15.662,15.662,0,0,1-2.368-1.924A20.471,20.471,0,0,1,17.2,17.2a20.454,20.454,0,0,1,10.053,5.035,15.45,15.45,0,0,1,1.907,2.351,27.813,27.813,0,0,0,3,7.25c.035.148.07.3.1.44-.136-.03-.276-.062-.415-.095a27.8,27.8,0,0,0-7.269-3.016m9.791-6.742a15.641,15.641,0,0,1-.314-3.032A20.48,20.48,0,0,1,37.617,8.746a20.453,20.453,0,0,1,3.549,10.67,15.44,15.44,0,0,1-.314,3.006,27.8,27.8,0,0,0-3,7.253c-.081.13-.162.26-.241.385-.076-.117-.151-.239-.227-.362a27.819,27.819,0,0,0-3.008-7.275M46.057,24.6a15.557,15.557,0,0,1,1.932-2.384A20.44,20.44,0,0,1,58.025,17.2,20.483,20.483,0,0,1,53,27.258a15.478,15.478,0,0,1-2.345,1.9,27.822,27.822,0,0,0-7.277,3.018c-.139.032-.278.065-.414.095.032-.146.067-.3.1-.446A27.848,27.848,0,0,0,46.057,24.6M38.6,35.221c.358-3.591,1.665-10.5,6.4-15.445-.15,6.832-4.113,12.648-6.4,15.445M30.224,19.775c4.727,4.938,6.037,11.855,6.4,15.448-2.286-2.793-6.248-8.6-6.4-15.448M37.615,2.43c1.7,1.87,6.515,7.74,7.289,15.014L43.6,18.75l.005.011a21.058,21.058,0,0,0-1.656,2.01c.041-.456.07-.916.071-1.382-.013-4.7-2.209-8.933-4.05-11.659l-.354-.524-.354.525c-1.844,2.734-4.044,6.976-4.057,11.687,0,.455.029.9.069,1.35A21.232,21.232,0,0,0,31.7,18.841l.019-.026-.546-.524-.6-.628-.026.026c-.072-.066-.146-.127-.219-.192.761-7.293,5.589-13.191,7.294-15.068M12.735,12.736c2.534.122,10.118.88,15.811,5.5-.006.1-.015.193-.019.291h-.021v1.757h.02a21.314,21.314,0,0,0,.243,2.358c-.293-.352-.6-.7-.928-1.029-3.331-3.314-7.878-4.755-11.107-5.381l-.622-.12.121.621c.629,3.237,2.073,7.793,5.4,11.132.323.321.66.62,1,.907a21.239,21.239,0,0,0-2.354-.243l-.854-.021h-.9v.02c-.1,0-.193.014-.29.019-4.618-5.694-5.376-13.278-5.5-15.811m6.7,32.278h-.058c-8.146-.021-14.913-5.548-16.949-7.4C4.307,35.91,10.2,31.083,17.5,30.322c.253.285.514.568.788.843l.064.063a20.974,20.974,0,0,0,2.422,2.05c-.456-.041-.916-.069-1.383-.071-4.682.012-8.924,2.213-11.658,4.057l-.525.354.524.354c2.726,1.841,6.963,4.037,11.687,4.049,4.681-.012,8.923-2.213,11.657-4.057l.281-.19a34.059,34.059,0,0,0,4.142.6c-2.719,2.276-8.85,6.618-16.058,6.637M40.1,51.45a2.488,2.488,0,1,1-2.488-2.488A2.491,2.491,0,0,1,40.1,51.45m15.76-6.436H55.8c-7.219-.019-13.352-4.359-16.073-6.635a34.215,34.215,0,0,0,4.14-.6l.282.19c2.734,1.844,6.976,4.045,11.686,4.057,4.7-.012,8.932-2.208,11.659-4.049l.525-.354-.525-.354c-2.734-1.844-6.976-4.045-11.687-4.057-.455,0-.9.029-1.348.068a21.208,21.208,0,0,0,1.842-1.5l.014.013.6-.6.063-.063c.259-.262.506-.529.747-.8,7.291.763,13.188,5.589,15.064,7.294-2.032,1.85-8.785,7.377-16.936,7.4" transform="translate(0 -0.001)" fill="#f2efea"/>
    <path id="Path_7" data-name="Path 7" d="M10.348,50.522a2.136,2.136,0,1,0-2.136-2.136,2.137,2.137,0,0,0,2.136,2.136" transform="translate(-4.4 -24.783)" fill="#f2efea"/>
    <path id="Path_8" data-name="Path 8" d="M146.8,50.522a2.136,2.136,0,1,0-2.136-2.136,2.137,2.137,0,0,0,2.136,2.136" transform="translate(-77.518 -24.783)" fill="#f2efea"/>
    <path id="Path_9" data-name="Path 9" d="M46.536,14.009A2.136,2.136,0,1,0,44.4,11.873a2.136,2.136,0,0,0,2.136,2.136" transform="translate(-23.792 -5.218)" fill="#f2efea"/>
    <path id="Path_10" data-name="Path 10" d="M110.61,14.009a2.136,2.136,0,1,0-2.136-2.136,2.136,2.136,0,0,0,2.136,2.136" transform="translate(-58.127 -5.218)" fill="#f2efea"/>
  </g>
</svg>
