<svg xmlns="http://www.w3.org/2000/svg" xmlns:xlink="http://www.w3.org/1999/xlink" width="305.921" height="235.033" viewBox="0 0 305.921 235.033">
  <defs>
    <clipPath id="clip-path">
      <rect id="Rectangle_11" data-name="Rectangle 11" width="305.921" height="235.033" fill="none"/>
    </clipPath>
  </defs>
  <g id="Group_17" data-name="Group 17" opacity="0.6">
    <g id="Group_16" data-name="Group 16" transform="translate(0 0)" clip-path="url(#clip-path)">
      <path id="Path_13" data-name="Path 13" d="M134.433,133.093c-.4,4.273-27.1.639-40.059,2.224-20.231,2.477-38.381,12.236-55.971,21.81-4.556,2.479-9.6,5.646-10.2,10.682-.707,6.028,5.276,10.8,10.588,14.276,9.439,6.176,19.382,12.538,30.617,13.824,4.116.469,8.3.236,12.362,1.076,14.211,2.931,23.931,18.135,38.366,19.314,10.14.829,19.164-5.651,29.205-6.831,14.136-1.663,27.264,7.155,39.579,14.445s28.086,13.464,40.339,6.735c3.684-2.023,6.647-5.055,10.249-7.2,7.854-4.684,17.859-4.727,26.479-8.012,11.492-4.378,20.046-14.9,21.722-26.717.9-6.356-.056-12.921,1.033-19.247,2.458-14.274,14.976-25.695,15.656-40.194.377-8.064-3.006-15.894-4.7-23.856-2.477-11.621-1.56-24.281-8.066-34.468-9.1-14.248-28.714-17.955-42.561-28.121C240.36,36.435,233.99,27.475,225.352,21A53.41,53.41,0,0,0,195.83,10.48c-9.975-.414-20.014,2-29.835.06C154.9,8.344,145.033.733,133.76.458,118.4.083,107.008,13.067,92.885,18.469,78.5,23.97,59.518,22.5,50.578,34.56c-3.013,4.069-4.294,9.109-6.87,13.451-6.191,10.438-18.864,15.5-27.375,24.281-4.65,4.8-7.982,10.635-10.815,16.618-4.434,9.366-7.631,20.721-2.184,29.854,5.968,10.009,19.56,12.872,31.442,13.3,27.72.992,47.383-10.316,74.1-3.437,14.554,3.748,25.86,1.189,25.556,4.47" transform="translate(0.529 0.515)" fill="#87af79"/>
      <path id="Path_14" data-name="Path 14" d="M303.058,113.06c-.673-2.4-1.369-4.888-1.892-7.331-.767-3.6-1.213-7.376-1.646-11.031-.964-8.147-1.963-16.573-6.551-23.756-5.859-9.18-16.076-14.139-25.954-18.936-5.786-2.809-11.771-5.715-16.847-9.441A99.927,99.927,0,0,1,238.218,31.6a104.509,104.509,0,0,0-11.76-10.86A54.352,54.352,0,0,0,196.4,10.031a107.358,107.358,0,0,0-11.919.392c-5.876.414-11.949.836-17.771-.315-4.652-.919-9.195-2.861-13.588-4.738C147.133,2.814,140.945.17,134.31.009,124.4-.248,115.925,5.03,107.784,10.123c-4.71,2.946-9.581,6-14.717,7.959a95.908,95.908,0,0,1-15.384,3.924C67.26,24.067,56.484,26.2,50.334,34.5a39.071,39.071,0,0,0-4.161,7.843,51.627,51.627,0,0,1-2.764,5.691c-3.606,6.081-9.414,10.239-15.559,14.64a84.578,84.578,0,0,0-11.681,9.461C12.108,76.325,8.718,81.53,5.175,89.01c-6.1,12.885-6.8,22.948-2.143,30.761,5.1,8.552,15.947,13.185,32.239,13.766,11.561.418,21.7-1.288,31.506-2.934,13.841-2.323,26.916-4.515,42.388-.531a88.262,88.262,0,0,0,18.2,2.421c2.991.154,6.086.315,6.613.924.015.017.024.028.017.1-.152,1.65-12.639,1.3-19.341,1.116-7.172-.2-14.584-.407-19.873.24-20.7,2.535-39.621,12.834-56.314,21.921-5.19,2.822-10.078,6.161-10.7,11.415-.769,6.576,5.484,11.576,11.019,15.195,9.054,5.923,19.314,12.634,31.035,13.974,1.665.191,3.351.268,4.982.345a47.067,47.067,0,0,1,7.294.718c6.491,1.339,12.182,5.436,17.685,9.4,6.341,4.566,12.9,9.285,20.8,9.932,6.056.508,11.734-1.532,17.233-3.491a56.576,56.576,0,0,1,12.163-3.343c12.606-1.5,24.388,5.584,35.79,12.416l3.184,1.9c11,6.512,20.67,9.778,28.9,9.778a25.358,25.358,0,0,0,12.392-3.028,43.261,43.261,0,0,0,5.6-3.887,48.121,48.121,0,0,1,4.674-3.332c4.5-2.685,9.671-3.786,15.144-4.952a75.861,75.861,0,0,0,11.188-2.989,35.326,35.326,0,0,0,22.331-27.482,67.07,67.07,0,0,0,.456-9.313,59.724,59.724,0,0,1,.574-9.906c1.108-6.437,4.4-12.441,7.588-18.249,3.786-6.9,7.706-14.042,8.079-22.063.27-5.715-1.307-11.336-2.831-16.772m-4.346,33.1a25.522,25.522,0,0,1-7.08.154,42.927,42.927,0,0,0-9.879.171c-1.766.255-3.448.639-5.074,1.011-4.8,1.1-9.756,2.233-18.1.5q-10.106-3.4-20.462-5.981a85.9,85.9,0,0,0-12.18-2.308,75.4,75.4,0,0,0-12.276.129c-2.52.163-5.128.332-7.695.332h-.047c-11.085-.009-22.279-1.924-33.1-3.776-9.6-1.644-19.53-3.343-29.4-3.718-.021-.051-.045-.1-.071-.15,12.054-5.286,25.8-5.421,39.105-5.55a200.661,200.661,0,0,0,21.583-.988c12.78-1.524,25.131-5.569,37.074-9.48,2.5-.819,5.057-1.656,7.614-2.469,5.256-.876,13.821,1.56,21.495,4.277,3.463,1.226,6.744,2.509,9.457,3.57.829.324,1.611.63,2.331.909,1.892,1.241,3.512,3.5,5.385,6.111a49.8,49.8,0,0,0,8,9.291,12.637,12.637,0,0,0,5.689,3.021c-.709,1.656-1.513,3.3-2.368,4.944m-30.444,6.229a22.4,22.4,0,0,1,6.7,8.07,39.652,39.652,0,0,0,5.121,8.85,17.983,17.983,0,0,0,7.716,5.679c-.047,1.123-.066,2.244-.075,3.354a66.82,66.82,0,0,0-24.956-8.081c-.656-.075-1.361-.144-2.113-.216a50.925,50.925,0,0,1-18.281-4.551l0,.009a131.577,131.577,0,0,0-13.691-5.923l-.03-.015v0a127.59,127.59,0,0,0-19.873-5.524,48.214,48.214,0,0,0-5.006-.589,43.394,43.394,0,0,1-5.325-.658c-10.221-2.158-20.1-6.189-29.649-10.086-8.179-3.339-16.633-6.789-25.316-9.075.006-.034.011-.066.015-.1,9.769.381,19.631,2.068,29.171,3.7,10.862,1.858,22.093,3.78,33.251,3.789h.047c2.593,0,5.216-.169,7.751-.334a74.947,74.947,0,0,1,12.137-.131,84.9,84.9,0,0,1,12.06,2.289,261.014,261.014,0,0,1,30.351,9.542M137.784,174.866h0c-.1.214-.2.439-.3.673-.379.84-.754,1.633-1.11,2.366-.941,1.933-1.959,3.868-2.964,5.76-2.3,3.962-6.1,5.43-11.04,6.364l-7.024,1.326a54.066,54.066,0,0,0-12.15,3.285,17.988,17.988,0,0,0-8.565,7.281,43.806,43.806,0,0,0-7.579-3.994c1.067-2.282,1.031-5,.994-7.856-.056-4.29-.111-8.719,3.752-11.865q1.427-1.067,2.914-2.049a129.3,129.3,0,0,1,13.069-7.245c6.088-3.073,12.384-6.249,17.67-10.626a44.614,44.614,0,0,0,14.61-22.727c.1.013.2.021.3.028-.849,4.476-.159,9.184.51,13.744a64.549,64.549,0,0,1,.894,9.011c.013,6.1-1.989,11.974-3.981,16.524m-2.417,12.919a17.524,17.524,0,0,0,.874,5.312,16.343,16.343,0,0,1,.285,8.387,16.608,16.608,0,0,1-1.446,3.437,21.644,21.644,0,0,0-1.331,2.985,10.218,10.218,0,0,0-.326,5.865,40.1,40.1,0,0,1-8.509,2.021c-.879-5.653.124-12.058,2.991-19.054q.071-.177.148-.354c.066-.15.131-.3.193-.461,1.56-3.669,3.465-7.245,5.314-10.712.2-.366.39-.737.589-1.108.165-.285.324-.585.476-.9.493-.934.986-1.875,1.468-2.822a35.176,35.176,0,0,0-.726,7.4M87.5,180.592a9.185,9.185,0,0,1-5.381,1.549H82.1a62.9,62.9,0,0,1-8.773-.838c-1.571-.223-3.2-.452-4.8-.615a76.17,76.17,0,0,0-9.966-.283,39.146,39.146,0,0,0-8.214.954,17.007,17.007,0,0,0-6.48,3.041c-1.174-.75-2.329-1.5-3.465-2.246a25.569,25.569,0,0,0,3.324-4.641c1.5-2.484,2.927-4.83,5.634-6.212,2.818-.954,5.886-1.817,9.251-2.606q1.488-.347,2.994-.669h0c2.886-.619,5.8-1.174,8.64-1.714,4.757-.9,9.679-1.841,14.443-3.069,3.891-1.005,7.759-2.222,11.55-3.416,5.394-1.7,10.974-3.454,16.391-5.368,5.891-2.076,10.7-4.052,15.036-6.943,4.995-3.334,8.831-7.794,10.594-12.3.334.092.656.161.951.214a43.757,43.757,0,0,1-14.308,22.2c-5.211,4.316-11.462,7.47-17.505,10.521a129.807,129.807,0,0,0-13.159,7.294q-1.006.665-1.986,1.369v0c-.347.229-.669.467-.971.711q-1.954,1.462-3.789,3.071m-19.854.874a19.3,19.3,0,0,0-11.668,9.786,101.268,101.268,0,0,1-11.34-6.364,16.348,16.348,0,0,1,5.921-2.7,38.048,38.048,0,0,1,8.029-.93,76.771,76.771,0,0,1,9.058.2m-.624-29.544A77.522,77.522,0,0,1,80.4,146.983c6.1-1.431,12.594-1.371,18.874-1.316,5.788.054,11.784.1,17.514-1,6.5-1.251,15.242-3.986,20.192-9.911.152.073.306.137.461.195-1.708,4.329-5.417,8.623-10.254,11.85-4.258,2.844-9.015,4.794-14.844,6.849-5.4,1.907-10.976,3.662-16.414,5.374-3.729,1.174-7.586,2.387-11.456,3.386-4.738,1.221-9.645,2.156-14.391,3.058-2.841.542-5.756,1.1-8.646,1.714-4.071.81-9.662.39-17.1-1.279l-.034-.009a23.873,23.873,0,0,0,9.529-3.917,37.651,37.651,0,0,0,4.564-3.891,31.989,31.989,0,0,1,6.711-5.327q.958-.418,1.907-.838m72.555-17.3a6.212,6.212,0,0,1-3.5-1.509,3.337,3.337,0,0,1-.242-.276,1.986,1.986,0,0,0-.39-.684c-.034-.041-.073-.079-.111-.12a4.736,4.736,0,0,1-.315-.879,1.219,1.219,0,0,1-.041-.589.908.908,0,0,1,.87-.495h.028a3.945,3.945,0,0,1,1.4.377,14.963,14.963,0,0,1,1.558.754,10.466,10.466,0,0,0,2.428,1.035l.041.009c.326.088,1.316.349,1.361.872a1.413,1.413,0,0,1-.859,1.449,4.228,4.228,0,0,1-2.224.056m-19.843-9.478c-3.279-1.436-6.669-2.923-10.14-4.069-17.856-5.91-37.232-4.016-54.326-2.344l-3.924.384-6.514.639c-7.29.139-14.67-2.732-19.119-5.443-.225-.137-.45-.279-.675-.42v0L25,113.872c-2.143-1.35-4.245-2.874-6.285-4.35-4.89-3.544-9.934-7.2-15.825-8.7a48.222,48.222,0,0,1,1.461-4.849,30.815,30.815,0,0,0,9.079,1.32,35.053,35.053,0,0,0,4.185-.253,45.68,45.68,0,0,0,13.766-4.116L32.5,92.4c3.894-1.841,8.745-4.138,13.86-3.617,1.573.206,3.139.4,4.693.585l2.884.354c15.216,1.9,31.129,4.757,44.411,12.714a125.978,125.978,0,0,1,14.19,10.419l21.611,17.475,0,.006-.015.064a81.548,81.548,0,0,1-14.4-5.25M4,117.521A19.176,19.176,0,0,1,2.486,113.3a15.169,15.169,0,0,0,3.855-.313l.8-.133c6.075-.954,11.582-1.479,17.426,1.759.231.146.463.291.694.433a40.538,40.538,0,0,0,14.406,5.216c-4.224.416-8.456.834-12.8,1.269l-.167.017c-4.035.407-8.616.868-12.613.336A18.184,18.184,0,0,1,4,117.521M2.7,101.66c5.728,1.466,10.7,5.064,15.514,8.554.874.634,1.759,1.275,2.655,1.907-4.579-1.359-9.047-.87-13.86-.116l-.808.133a13.468,13.468,0,0,1-3.9.279A27.048,27.048,0,0,1,2.7,101.66M74.379,59.732c-.231-.193-.465-.381-.7-.572C62.411,48.639,55.209,36.26,55.8,31.657a30.157,30.157,0,0,1,9.116-4.614c6.739,1.8,10.187,4.836,21.876,15.75a65.476,65.476,0,0,0,9.666,7.161c3.756,2.424,7.3,4.716,10.245,8.145l2.121,3.429c1.534,2.477,3.086,4.821,4.584,7.091,4.524,6.84,8.794,13.3,11.368,21.611a138.458,138.458,0,0,1,3.328,14.284c1.648,8.417,3.351,17.109,7.811,24.7h-.09c-.028,0-.056,0-.084,0-6.555-11.466-12.75-17.574-20.576-25.29l-.471-.463c-2.6-2.559-17.983-20.3-22.258-25.564-1.8-2.224-3.765-4.464-5.833-6.664l-.009-.009a134.93,134.93,0,0,0-12.219-11.5M79.027,23.7c5.582,1.9,10.539,6.709,15.885,15.347L101.133,49.1c.351.628.72,1.226,1.1,1.785l2.443,3.945a61.575,61.575,0,0,0-7.753-5.591,64.77,64.77,0,0,1-9.544-7.067C76.3,31.82,72.538,28.475,66.4,26.576c3.662-1.1,7.618-1.879,11.659-2.679l.969-.193m1.573-.313c2.927-.594,5.876-1.232,8.721-2.046A37.963,37.963,0,0,0,92.6,29.094c.681,1.326,1.384,2.7,1.978,4.067.729,1.678,1.436,3.6,2.186,5.64.5,1.359,1,2.732,1.53,4.076L95.64,38.6C90.592,30.448,85.854,25.627,80.6,23.392M86,71.842c2.046,2.179,3.99,4.4,5.777,6.6,4.284,5.278,19.714,23.064,22.32,25.635l.469.463c7.738,7.626,13.873,13.674,20.329,24.915a1.711,1.711,0,0,0-.253.165l-21.561-17.436A126.589,126.589,0,0,0,98.788,101.7C87.643,95.021,74.7,91.9,61.867,89.945c-10.654-2.619-19.217-6.579-26.389-17.4a32.148,32.148,0,0,1-1.989-3.664A20.824,20.824,0,0,0,30.1,63.431a97.673,97.673,0,0,0,7.854-6.105c4.494,1.661,9.351,1.976,14.059,2.282,1.914.124,3.894.253,5.816.469C66.5,61.059,79.318,65.514,86,71.842M220.5,25.016h0l0,0c-.049.041-.1.084-.146.124-3.521,3.017-8.646,5.171-13.6,7.251q-1.382.579-2.689,1.14.829-.7,1.6-1.389c5.252-4.665,8.837-9.951,10.429-15.356a51.918,51.918,0,0,1,7.886,4.536,33.126,33.126,0,0,1-3.484,3.69M205.1,31.5a117.392,117.392,0,0,1-17.115,12.39,28.124,28.124,0,0,0-5.3,3.737c3.339-7.59,7.7-14.8,11.936-21.81.96-1.588,1.92-3.174,2.867-4.766a32.065,32.065,0,0,0,3.87-8.634,52.668,52.668,0,0,1,13.952,4.009c-1.528,5.291-5.04,10.481-10.211,15.073M180.828,52.194q.309-.829.636-1.65c1.517-2.691,4.406-4.4,6.956-5.912a122.451,122.451,0,0,0,13.069-9c1.719-.823,3.6-1.614,5.6-2.454a73.545,73.545,0,0,0,11.16-5.424,32.669,32.669,0,0,0-4.179,9.15,115.766,115.766,0,0,0-2.683,11.561c-.461,2.357-.939,4.8-1.515,7.2a22.134,22.134,0,0,1-2.4,5.659q-3.513,5-6.722,10.189c-1.129,1.826-2.233,3.673-3.336,5.52-3.864,6.476-7.862,13.172-13.007,18.861-5.657,6.255-13.4,11.233-20.886,16.046-8.6,5.526-17.479,11.237-23.385,18.962l-.1-.051c3.274-7.269,8.854-13.489,14.256-19.506,4.982-5.546,10.129-11.284,13.521-17.874,3.919-7.614,6.028-16.046,8.07-24.2a160.277,160.277,0,0,1,4.952-17.085m40.811,37.071c7.071-6.163,21.934-5.329,31.779-4.776,1.082.062,2.109.12,3.056.163l.964.047c5.059.24,10.243.484,15.411.437v0c1.8.109,5.158,1.656,8.717,3.3,5.1,2.346,10.766,4.959,14.818,4.959a8.076,8.076,0,0,0,1.033-.064c.062.529.126,1.063.189,1.6.032.259.062.523.094.786-5.771.411-10.667,3.294-15.407,6.09-3.87,2.278-7.866,4.635-12.364,5.689a178.246,178.246,0,0,0-18.521,4.8c-3.531,1.091-7.106,2.263-10.562,3.394-11.9,3.9-24.212,7.929-36.906,9.441a199.8,199.8,0,0,1-21.489.984c-13.5.131-27.467.268-39.761,5.762a2.7,2.7,0,0,0-.321-.167c9.386-5.775,20.175-9.879,30.617-13.849,13.179-5.01,26.809-10.194,37.731-18.778,3.594-2.822,6.936-6.013,10.168-9.1l.754-.718m54.33-4.2c1.05-.036,2.1-.086,3.141-.154,5.239-.339,11.2-1.044,16.232-3.6a80.753,80.753,0,0,1,1.969,11.164c-3.851.5-10.2-2.434-15.388-4.824-2.216-1.02-4.254-1.959-5.955-2.586m7.937,37.521c-1.108-.411-2.432-.93-3.917-1.511-1.429-.559-3.017-1.179-4.706-1.819,1.4.139,2.833.2,4.23.2a41.765,41.765,0,0,0,6.486-.48c.778-.126,1.611-.27,2.479-.422,4.457-.774,9.911-1.725,13.787-1.1a52.721,52.721,0,0,1,1.588,8.276c-6,2.061-13.056-.576-19.322-2.916ZM301.2,113.58c.276.99.557,1.984.825,2.985-3.988-.534-9.315.392-13.7,1.153-.864.152-1.693.294-2.469.42-4.155.673-10.746.759-15.394-.649v0c-6.3-2.226-13.221-4.266-18.5-4.474a176.724,176.724,0,0,1,17.7-4.6l0,.015q.241-.051.482-.109c9.452-1.832,19.431-2.619,29.4-.984.489,2.1,1.078,4.2,1.65,6.244m-1.854-7.144a79.924,79.924,0,0,0-24.152.154,73.639,73.639,0,0,0,7.532-4.05c4.879-2.876,9.5-5.6,15.073-5.976.384,3.18.81,6.424,1.479,9.566.024.1.047.206.069.306M295.1,80.473c-4.924,2.55-10.847,3.249-16.048,3.587-4.056.264-8.166.266-12.255.159,4.759-1.641,9.437-5.634,13.661-9.24,3.047-2.6,5.94-5.068,8.443-6.291a29.945,29.945,0,0,1,2.441,3.291,32.363,32.363,0,0,1,3.759,8.494m-6.782-12.45c-2.552,1.3-5.411,3.739-8.417,6.3-5.143,4.391-10.974,9.364-16.618,9.774-1.95-.075-3.889-.167-5.809-.259l-.964-.045c-.947-.045-1.967-.1-3.047-.163-8.458-.474-20.582-1.155-28.549,2.546,1.849-1.71,3.75-3.392,5.719-4.959q2.282-1.816,4.759-3.5l.03.034c.111-.09.221-.184.33-.276,10.969-7.346,24.966-12.784,43.38-16.9a42.142,42.142,0,0,1,9.186,7.44M278.083,59.94c-16.451,3.744-29.372,8.567-39.767,14.893.851-1.031,1.631-2.115,2.4-3.178.42-.579.836-1.157,1.262-1.727a56.435,56.435,0,0,1,21.733-17.389c.825.405,1.648.8,2.466,1.2,4.144,2.01,8.192,3.977,11.91,6.2m-33.917,5.949a48.587,48.587,0,0,0,2.276-9.741c.591-3.752,1.446-7.959,4.1-10.959a100.264,100.264,0,0,0,12.184,6.866,57.582,57.582,0,0,0-18.555,13.834M249.828,44.7c-2.745,3.163-3.626,7.474-4.23,11.319-.6,3.793-1.5,9.525-4.059,13.071l-.251.328c-.429.574-.851,1.157-1.271,1.74a31.685,31.685,0,0,1-4.774,5.64q-2.687,1.8-5.143,3.756c-3.169,2.524-6.15,5.327-9.036,8.076l-.006.006v0c-.257.242-.51.486-.765.729-3.219,3.069-6.546,6.244-10.108,9.043-10.819,8.5-24.386,13.663-37.506,18.651-10.708,4.069-21.778,8.28-31.376,14.3-.12-.036-.236-.073-.347-.111,5.818-7.513,14.561-13.136,23.025-18.576,7.534-4.845,15.326-9.853,21.06-16.191,5.2-5.754,9.223-12.486,13.108-19,1.1-1.843,2.2-3.686,3.328-5.509a207.966,207.966,0,0,1,13.759-19.618c2.233-2.687,6.849-3.979,11.79-5.171,8.518-2.057,14.835-3.994,17.661-6.589,1.393,1.232,2.833,2.419,4.337,3.523q.4.292.8.579m-5.781-4.676c-2.916,2.6-9.958,4.575-17.222,6.33a39.05,39.05,0,0,0-9.24,3.088q4.442-5.416,9.242-10.528c2.6-2.769,5.421-5.567,8.946-7.059l1.067,1.093c2.319,2.374,4.686,4.8,7.206,7.076M235.128,31.2c-3.527,1.579-6.336,4.367-8.925,7.125q-6.085,6.477-11.6,13.455c-.021.028-.045.051-.066.079l0,0q-2.224,2.816-4.354,5.7a17.214,17.214,0,0,0,.521-1.691c.581-2.426,1.061-4.873,1.521-7.239a115.092,115.092,0,0,1,2.664-11.477c1.53-5.057,3.559-8.826,6.206-11.522a34.193,34.193,0,0,0,3.594-3.81c.206.15.411.3.615.454a88.928,88.928,0,0,1,9.827,8.919M196.318,11.96c1.4.058,2.8.176,4.187.349a31.651,31.651,0,0,1-3.752,8.308Q195.329,23,193.886,25.38c-2,3.309-4.029,6.662-5.964,10.082.341-1.579.544-3.159.75-4.783.189-1.474.384-3,.694-4.564a89.846,89.846,0,0,1,4.069-14.2c.964-.006,1.926.006,2.882.047m-11.7.386c2.6-.18,5.252-.366,7.9-.42a90.848,90.848,0,0,0-3.988,14.021c-.317,1.6-.512,3.135-.7,4.624a30.867,30.867,0,0,1-1.974,8.649v0a104.367,104.367,0,0,0-5.826,12.673,160.964,160.964,0,0,0-4.98,17.177c-2.029,8.109-4.127,16.491-8,24.019-3.343,6.489-8.456,12.184-13.4,17.691-5.436,6.054-11.051,12.313-14.381,19.684l-.034-.017c-.026-.015-.054-.028-.081-.043.954-8.151,3.827-16.067,6.606-23.726,3.221-8.874,6.553-18.051,6.921-27.649a168.28,168.28,0,0,0-1.108-24.366q-.1-1-.18-2l.017,0c-.334-4.039,1.749-7.56,3.553-9.8a47.968,47.968,0,0,1,6.6-6.3c.484-.409.971-.816,1.453-1.228A145.222,145.222,0,0,0,174.96,23.756c2.942-3.169,6.21-6.9,8.066-11.3q.8-.055,1.59-.111m-2.552.176c-1.83,4.1-4.929,7.633-7.731,10.652q-1.263,1.36-2.5,2.636a26.152,26.152,0,0,0,1.374-6.486,27.19,27.19,0,0,1,1.374-6.544c2.505.026,5.008-.1,7.483-.257m-8.391.242a28.887,28.887,0,0,0-1.316,6.454c-.392,3.152-.763,6.131-2.687,8.786-2.441,2.428-4.83,4.637-7.215,6.677q-.72.614-1.446,1.224a48.382,48.382,0,0,0-6.714,6.422,18.043,18.043,0,0,0-3.161,5.668,95.019,95.019,0,0,1,6.881-38.516A50.29,50.29,0,0,0,166.335,12a43.512,43.512,0,0,0,7.337.763m-16.455-3.6a95.46,95.46,0,0,0-6.484,26.151,40.232,40.232,0,0,0-4.744-10.134q-.62-.98-1.254-1.956a69.012,69.012,0,0,1-5.334-9.315,20.44,20.44,0,0,1-1.86-11.691c5.029.741,9.81,2.781,14.822,4.922,1.6.681,3.214,1.371,4.854,2.023M134.265,1.935c.816.021,1.624.081,2.424.174a21.312,21.312,0,0,0,1.931,12.15,69.336,69.336,0,0,0,5.4,9.435q.63.974,1.249,1.95c1.74,2.745,4.725,8.051,5.2,12.789a96.325,96.325,0,0,0,.251,16.318A167.06,167.06,0,0,1,151.822,79c-.364,9.463-3.671,18.576-6.87,27.39-2.76,7.605-5.61,15.461-6.615,23.6l-.171-.081c.394-9.624.782-19.569-.613-29.34-.169-1.179-.364-2.351-.557-3.527-.343-2.066-.7-4.2-.894-6.311a92.386,92.386,0,0,1,.27-15.244c.566-7.749,1.149-15.761-1.406-23.334-.585-1.734-1.333-3.435-2.059-5.083a49.793,49.793,0,0,1-2.353-6.032,48.811,48.811,0,0,1-1.228-6.009c-.156-.971-.315-1.941-.5-2.908q-.2-1.054-.446-2.1c-.414-3.821.471-9.045,1.183-13.243.156-.926.309-1.811.435-2.634A27.623,27.623,0,0,0,129.245,2.3a26.878,26.878,0,0,1,5.021-.369M116.743,7A41.094,41.094,0,0,1,128.4,2.458a26.779,26.779,0,0,1,.761,11.552c-.131.821-.279,1.7-.435,2.623a83.671,83.671,0,0,0-1.271,9.9A55.127,55.127,0,0,0,116.743,7m-7.935,4.757c2.415-1.511,4.787-2.994,7.172-4.333a53.858,53.858,0,0,1,12.006,24.851c.182.958.336,1.92.491,2.882.2,1.241.4,2.5.671,3.765a22.837,22.837,0,0,0-6.351-5.837c-1.468-.883-2.979-1.71-4.487-2.458-.424-.212-.853-.42-1.281-.626-.874-.422-1.746-.842-2.595-1.3a29.316,29.316,0,0,1-12.366-12.851c2.295-1.307,4.534-2.709,6.741-4.089M93.757,19.882a58.328,58.328,0,0,0,7.564-3.613,30.178,30.178,0,0,0,12.7,13.183c.864.467,1.749.9,2.634,1.322.424.206.851.411,1.275.621,1.487.739,2.976,1.556,4.425,2.424,2.871,1.727,6.512,5.158,7.749,8.631.581,1.695,1.309,3.351,2.019,4.961.718,1.629,1.459,3.315,2.031,5.01,2.5,7.41,1.922,15.334,1.365,23a93.107,93.107,0,0,0-.27,15.388c.2,2.136.555,4.29.9,6.371.193,1.168.386,2.336.553,3.506,1.371,9.587,1.009,19.378.617,28.862-.084-.032-.169-.064-.259-.094-4.684-7.622-6.429-16.506-8.113-25.1A139.221,139.221,0,0,0,125.6,89.977c-2.612-8.428-6.917-14.938-11.473-21.831-1.5-2.263-3.043-4.6-4.571-7.069l-2.136-3.452,0,0-.024-.028-4.444-7.176v0l-.011-.015-1.074-1.734a72.418,72.418,0,0,1-4.307-10.159c-.754-2.051-1.466-3.988-2.205-5.685-.606-1.4-1.316-2.779-2-4.119a37.443,37.443,0,0,1-3.216-7.6c1.23-.369,2.439-.774,3.615-1.224M51.881,35.649A20.214,20.214,0,0,1,54.89,32.4c.084,5.439,7.059,15.6,14.091,23.226-7.166-5.008-15.054-8.916-21.823-10.742.266-.594.525-1.187.78-1.774a37.3,37.3,0,0,1,3.943-7.466M45.067,49.018A37.593,37.593,0,0,0,46.8,45.68c8.2,2.181,18.1,7.489,26.316,14.124l.009.011,0,0c.238.193.476.386.709.581,2.683,2.218,5.351,4.62,7.918,7.121a61.071,61.071,0,0,0-23.822-8.286c-1.941-.221-3.93-.349-5.856-.474-4.5-.291-9.133-.594-13.4-2.079a34.3,34.3,0,0,0,6.39-7.656M17.555,73.477a83.156,83.156,0,0,1,11.417-9.234l.429-.306A19.627,19.627,0,0,1,32.72,69.26a32.682,32.682,0,0,0,2.042,3.763A38.051,38.051,0,0,0,55.751,89.085q-.855-.109-1.708-.216l-2.889-.356c-1.556-.191-3.126-.381-4.7-.587l-.013,0a118.313,118.313,0,0,1-13.519-2.4c-7.494-1.879-13.674-4.759-18.386-8.559a41.929,41.929,0,0,1,3.021-3.484M6.918,89.835a70.522,70.522,0,0,1,7.1-12.2c4.806,3.874,11.091,6.8,18.7,8.711,2.979.748,6.013,1.311,9.051,1.781a38.108,38.108,0,0,0-9.626,3.491l-1.116.527a44.825,44.825,0,0,1-13.5,4.039,31.242,31.242,0,0,1-12.866-1.02q.964-2.575,2.269-5.334m-1.74,29.717a20.377,20.377,0,0,0,8.8,3.18c4.1.538,8.726.075,12.812-.332l.167-.017c6.094-.613,11.974-1.191,17.912-1.774h.051v0c2.158-.212,4.322-.422,6.508-.636l3.924-.384,1.528-.148a50.222,50.222,0,0,0-9.564,4.839c-4.412,2.931-10.339,6.4-16.172,7.076-9.634-.855-20.6-3.731-25.963-11.8M127.47,130.567a86.546,86.546,0,0,1-17.824-2.364c-15.87-4.086-29.139-1.858-43.185.5-9.716,1.631-19.753,3.317-31.121,2.91-.289-.011-.581-.021-.872-.036,4.9-1.316,9.63-4.134,13.316-6.585C51.369,122.6,57.4,119.694,61.515,119v0c15.407-1.412,32.222-2.263,47.807,2.9,3.433,1.136,6.8,2.614,10.065,4.041a80.715,80.715,0,0,0,14.773,5.349c.006.026.013.049.017.073-1.395-.51-3.609-.624-6.707-.784m-32.451,6.221c5.145-.63,12.482-.424,19.586-.227,13.251.371,20.434.431,21.246-2.492.12.094.242.184.369.268-4.8,5.642-13.271,8.276-19.592,9.493-5.646,1.086-11.586,1.037-17.342.981-6.339-.062-12.874-.118-19.08,1.337a78.156,78.156,0,0,0-13.532,4.991c-4.656,2.053-9.469,4.174-14.552,5.19-1.9.377-3.891.615-5.816.844-2.061.246-4.157.5-6.2.924,16.367-8.906,34.869-18.853,54.911-21.309m-57.99,23.04a44.211,44.211,0,0,1,9.377-1.8c1.941-.231,3.949-.469,5.882-.855A51.165,51.165,0,0,0,61.2,154.4c-1.146.951-2.276,2.014-3.386,3.058a36.942,36.942,0,0,1-4.449,3.8,23.356,23.356,0,0,1-11.582,4.106c-4.119-.789-8.224-1.146-11.074.088,1.331-2.282,3.744-4.082,6.321-5.629m-7.337,8.608a7.422,7.422,0,0,1,.4-1.667c3.062-2.1,8.771-1.219,14.064-.028A62.485,62.485,0,0,0,56.1,168.427c-9.193,2.344-16.134,5.334-21.664,9.315-2.961-2.655-5.156-5.775-4.74-9.306m5.406,9.887a50.918,50.918,0,0,1,11.342-5.966,22.519,22.519,0,0,0-3.45,4.71,24.2,24.2,0,0,1-3.317,4.609,48.134,48.134,0,0,1-4.575-3.354m21.656,13.286c2.8-5.552,8.586-9.6,14.121-9.78.784.105,1.564.216,2.331.326a64.179,64.179,0,0,0,8.9.846h.011a12.986,12.986,0,0,0,3.234-.437A61.581,61.581,0,0,0,74.889,195.8c-1.6-.075-3.246-.15-4.843-.334a44.963,44.963,0,0,1-13.292-3.855m19.1,4.234A61.048,61.048,0,0,1,88.1,181.2l.1-.084.431-.373c-1.513,2.908-1.47,6.259-1.431,9.336.036,2.779.071,5.415-.941,7.539a27.231,27.231,0,0,0-3.759-1.069,43.257,43.257,0,0,0-6.639-.711m19.5,6.546a17.119,17.119,0,0,1,8.194-6.966,53.623,53.623,0,0,1,11.959-3.225l7.024-1.329c3.6-.677,6.624-1.635,8.955-3.576-1.511,2.865-3,5.8-4.247,8.809-1.571,3.426-5.158,5.306-7.813,6.7-.681.354-1.29.673-1.779.973-3.266,2-6.429,4.421-7.774,8.469a95.939,95.939,0,0,1-8.957-5.964c-1.824-1.314-3.669-2.642-5.563-3.887m25.393,13.464a25.863,25.863,0,0,1-10.108-3.2c1.243-3.883,4.3-6.216,7.457-8.154.474-.294,1.069-.6,1.727-.947a23.578,23.578,0,0,0,6.18-4.2,34.719,34.719,0,0,0-1.944,16.513,22.215,22.215,0,0,1-3.313-.013m16.427-3.386c-.986.351-1.963.7-2.936,1.031a9.367,9.367,0,0,1,.328-5.323,20.446,20.446,0,0,1,1.279-2.863,17.737,17.737,0,0,0,1.515-3.619,16.008,16.008,0,0,0,.324-5.786,35.073,35.073,0,0,0,3.073,3.8c.617.694,1.234,1.389,1.815,2.1,1.391,1.714,3.508,4.926,2.914,8.01a86.121,86.121,0,0,0-8.312,2.653m16.251-3.658a31.672,31.672,0,0,0-3.669.212,33.715,33.715,0,0,0-3.369.581c.433-3.3-1.716-6.568-3.152-8.338-.587-.724-1.213-1.429-1.839-2.132a21.971,21.971,0,0,1-4.17-5.85c-.054-.131-.1-.266-.154-.4-.09-.306-.176-.572-.249-.784l-.009,0a17.415,17.415,0,0,1-.589-4.339,33.8,33.8,0,0,1,2.04-11.869c2.121-4.714,4.371-10.986,4.356-17.55a65.162,65.162,0,0,0-.9-9.133c-.666-4.547-1.352-9.246-.48-13.633a3.345,3.345,0,0,0,.5-.09c1.727,7.056,6.461,13.071,11.038,18.894l.238.3c6.984,8.88,13.455,17.7,15.894,27.928.366,1.539.639,3.124.9,4.659.2,1.155.407,2.338.654,3.514C171,199.067,163.9,207.06,156.984,209a33.3,33.3,0,0,0-3.559-.193M171.2,193.751c.759,2.616,1.781,5.207,2.773,7.727,1.924,4.877,3.909,9.911,3.881,15.034-6.139-3.371-12.437-6.2-19-7.258,5.835-2.4,11.379-8.623,12.345-15.5M186.763,221.7c-2.664-1.6-5.349-3.2-8.061-4.716a31.273,31.273,0,0,0-2.233-11.37,64.511,64.511,0,0,0,9.369,8.818l1.427,1.174c1,.834,1.974,1.609,2.91,2.361,4.262,3.4,7.716,6.165,9.866,10.847a91.49,91.49,0,0,1-10.1-5.218Zm14.424,7.6c-2.194-5.381-5.876-8.327-10.476-12-.932-.746-1.9-1.521-2.9-2.346l-1.429-1.183c-4.151-3.414-8.852-7.284-11.22-11.6-.131-.332-.264-.666-.394-1a73.68,73.68,0,0,1-3.1-8.966c-.422-1.674-.722-3.405-1.011-5.081-.27-1.547-.546-3.148-.919-4.71-2.477-10.4-9.006-19.3-16.052-28.26l-.236-.3c-4.554-5.786-9.257-11.764-10.911-18.7,3.969,3.93,9.081,6.489,14.029,8.964,4.652,2.327,9.461,4.734,13.266,8.265a56.456,56.456,0,0,1,6.855,8.2c1.185,1.618,2.411,3.289,3.718,4.862,4.114,4.952,9.21,9.152,14.134,13.213l1.232,1.014c4.961,4.1,10.071,8.451,14.923,13.146,3.966,4.866,3.081,19.768,2.715,24.227-.429,5.211,1.571,11.113,5.385,16.046q-7.827.26-17.61-3.786m28.138,1.016a22.888,22.888,0,0,1-9.478,2.717c-3.926-4.86-6-10.753-5.58-15.919.321-3.917,1.029-15.754-1.459-22.217,2.01,2.025,3.962,4.11,5.826,6.268,7.376,8.537,12.527,17.278,15.321,25.989a36.342,36.342,0,0,1-4.631,3.163m10.217-7.187a49,49,0,0,0-4.864,3.465,73.7,73.7,0,0,0-12.557-22.556,58.923,58.923,0,0,0,8.848,4.551c1.712.763,3.33,1.485,4.832,2.265a35.994,35.994,0,0,1,11.244,9.086,33.481,33.481,0,0,0-7.5,3.189m15.729-5.181c-2.439.519-4.914,1.048-7.335,1.734a36.861,36.861,0,0,0-11.741-9.589c-1.524-.789-3.154-1.515-4.877-2.284-4.592-2.046-9.339-4.164-12.424-7.652v0c-6.887-7.886-14.912-14.824-22.575-21.15l-1.23-1.016c-4.9-4.035-9.96-8.207-14.021-13.1-1.29-1.554-2.507-3.214-3.686-4.819a57.141,57.141,0,0,0-6.964-8.325c-3.9-3.615-8.76-6.049-13.466-8.4-4.888-2.445-9.945-4.974-13.817-8.811.019-.03.041-.06.058-.09,8.655,2.271,17.106,5.719,25.284,9.058,9.587,3.913,19.5,7.959,29.8,10.134a44.428,44.428,0,0,0,5.43.673,47.355,47.355,0,0,1,4.914.576,126.636,126.636,0,0,1,19.721,5.479c14.454,7.1,18.915,23.518,20.162,30.257,1.348,7.279,2.514,12.926,5.263,19.318a22.876,22.876,0,0,0,5.58,7.114c-1.361.319-2.726.609-4.074.9m10.9-2.9a50,50,0,0,1-5.8,1.761,22.888,22.888,0,0,1-5.82-7.206c-2.713-6.313-3.87-11.912-5.207-19.134-1.136-6.135-4.892-20.151-16.234-28.251a131.284,131.284,0,0,1,30.028,17.312,20.8,20.8,0,0,1,4.524,9.99,42.894,42.894,0,0,1,.474,5.329,35.19,35.19,0,0,0,.806,6.988,16.589,16.589,0,0,0,5.43,8.674,33.441,33.441,0,0,1-8.2,4.536m8.889-5.074a15.772,15.772,0,0,1-5.293-8.355,34.314,34.314,0,0,1-.778-6.812,44.152,44.152,0,0,0-.486-5.439,22.383,22.383,0,0,0-2.927-7.914,123.3,123.3,0,0,1,18.214,18.135,33.881,33.881,0,0,1-8.73,10.384m12.223-20.878a31.289,31.289,0,0,1-3.06,9.666,127.732,127.732,0,0,0-35.749-30,59.946,59.946,0,0,0,12.1,2.136c.746.071,1.446.139,2.1.214a65.868,65.868,0,0,1,25.048,8.211c0,.24,0,.482,0,.724a66.369,66.369,0,0,1-.437,9.045m1.037-19.273a38.708,38.708,0,0,0-.471,4.273,17.239,17.239,0,0,1-7.1-5.327,38.654,38.654,0,0,1-5.006-8.664,24.259,24.259,0,0,0-4.935-6.724q10.058,3.97,19.755,8.758a38.122,38.122,0,0,0-2.246,7.684m7.8-18.851a110.968,110.968,0,0,0-5.226,10.371,261.923,261.923,0,0,0-27.786-11.777c1.266.126,2.449.184,3.564.184a42.89,42.89,0,0,0,10.2-1.416c1.686-.386,3.279-.75,5.006-1a42.315,42.315,0,0,1,9.7-.167,28.086,28.086,0,0,0,6.63-.043c-.675,1.275-1.376,2.554-2.085,3.846m7.845-21.225a31.985,31.985,0,0,1-2.548,10.663,11.882,11.882,0,0,1-5.464-2.861,49.183,49.183,0,0,1-7.862-9.144,42.378,42.378,0,0,0-3.7-4.712c4.71,1.757,9.851,3.656,14.73,3.656a15.375,15.375,0,0,0,4.8-.722,27.09,27.09,0,0,1,.041,3.12" transform="translate(0 0)" fill="#fff"/>
    </g>
  </g>
</svg>
