<svg xmlns="http://www.w3.org/2000/svg" xmlns:xlink="http://www.w3.org/1999/xlink" width="16.348" height="21" viewBox="0 0 16.348 21">
  <defs>
    <clipPath id="clip-path">
      <rect id="Rectangle_250" data-name="Rectangle 250" width="16.348" height="21" fill="#7086c4"/>
    </clipPath>
  </defs>
  <g id="Group_555" data-name="Group 555" transform="translate(0 0)">
    <g id="Group_554" data-name="Group 554" transform="translate(0 0)" clip-path="url(#clip-path)">
      <path id="Path_421" data-name="Path 421" d="M8.466.038a6.848,6.848,0,0,0-5.9,7.323c.4,4.643,4.673,8.1,6.137,9.163a.8.8,0,0,0,.961-.018c1.519-1.186,6.184-5.207,6.184-9.851A6.657,6.657,0,0,0,8.466.038M9.2,9.3a2.641,2.641,0,1,1,2.641-2.641A2.641,2.641,0,0,1,9.2,9.3" transform="translate(-1.018 0)" fill="#7086c4"/>
      <path id="Path_422" data-name="Path 422" d="M16.318,28.558l-1.09-4.941a1.235,1.235,0,0,0-1.206-.97h-.35a21.88,21.88,0,0,1-4.1,4.1,2.3,2.3,0,0,1-2.762.052A20.3,20.3,0,0,1,2.55,22.647H2.294a1.236,1.236,0,0,0-1.208.977L.027,28.565a1.235,1.235,0,0,0,1.208,1.494H15.112a1.235,1.235,0,0,0,1.206-1.5" transform="translate(0 -9.059)" fill="#7086c4"/>
    </g>
  </g>
</svg>
