<svg xmlns="http://www.w3.org/2000/svg" xmlns:xlink="http://www.w3.org/1999/xlink" width="49.178" height="75.883" viewBox="0 0 49.178 75.883">
  <defs>
    <clipPath id="clip-path">
      <rect id="Rectangle_271" data-name="Rectangle 271" width="49.178" height="75.883" fill="#fdfcfc"/>
    </clipPath>
  </defs>
  <g id="Group_615" data-name="Group 615" transform="translate(-1.544 -2.382)">
    <g id="Group_614" data-name="Group 614" transform="translate(1.544 2.382)" clip-path="url(#clip-path)">
      <path id="Path_450" data-name="Path 450" d="M48.608,37.326a.882.882,0,0,0-.881-.826H1.449a.884.884,0,0,0-.881.826L0,46.093a1.764,1.764,0,0,0,1.761,1.878H47.413a1.763,1.763,0,0,0,1.759-1.878Z" transform="translate(0 27.913)" fill="#fdfcfc"/>
      <path id="Path_451" data-name="Path 451" d="M45.4,19.308a1.764,1.764,0,0,0-1.761-1.661H37.524C37.24,7.059,31.937,0,24.124,0s-13.117,7.059-13.4,17.647H4.612a1.767,1.767,0,0,0-1.763,1.661L.609,57.25a1.765,1.765,0,0,0,1.763,1.869h43.5a1.766,1.766,0,0,0,1.763-1.869ZM12.212,31.765a3.529,3.529,0,1,1,3.529-3.529,3.528,3.528,0,0,1-3.529,3.529m3.8-14.118c.2-5.889,2.4-12.353,8.112-12.353s7.915,6.464,8.112,12.353Zm20.024,15a3.529,3.529,0,1,1,3.529-3.529,3.528,3.528,0,0,1-3.529,3.529" transform="translate(0.464 0)" fill="#fdfcfc"/>
    </g>
  </g>
</svg>
