<svg xmlns="http://www.w3.org/2000/svg" xmlns:xlink="http://www.w3.org/1999/xlink" width="62.341" height="85.152" viewBox="0 0 62.341 85.152">
  <defs>
    <clipPath id="clip-path">
      <rect id="Rectangle_272" data-name="Rectangle 272" width="62.341" height="85.152" fill="#fdfcfc"/>
    </clipPath>
  </defs>
  <g id="Group_617" data-name="Group 617" transform="translate(0 0)">
    <g id="Group_616" data-name="Group 616" transform="translate(0 0)" clip-path="url(#clip-path)">
      <path id="Path_452" data-name="Path 452" d="M27.393,67.545a.989.989,0,0,0-1.4-.006c-.652.648-1.584,1.578-2.026,2.022a.975.975,0,0,0-.279.618l-.5,6.456A1,1,0,0,0,24.3,77.7l6.2-.714a.984.984,0,0,0,.59-.285l2.026-2.026a.994.994,0,0,0,0-1.41ZM54.165,52.217l-5.72-5.722a1,1,0,0,0-1.41,0L31.007,62.523a1,1,0,0,0,0,1.41l5.722,5.72a.994.994,0,0,0,1.41,0L54.165,53.627a1,1,0,0,0,0-1.41m-4.3-40.746a3.989,3.989,0,0,0-3.989-3.989H43.708a1,1,0,0,0-1,1v5.984a1,1,0,0,1-1,1H7.96a1,1,0,0,1-1-1V8.479a1,1,0,0,0-1-1H3.989A3.988,3.988,0,0,0,0,11.471V63.329a3.989,3.989,0,0,0,3.989,3.989h15.5a5.885,5.885,0,0,1,.935-1.271c.722-.726,2.738-2.732,2.736-2.732l26.7-26.7ZM26.926,40.144H12.964a2.493,2.493,0,1,1,0-4.986H26.926a2.493,2.493,0,0,1,0,4.986M36.9,30.172H12.964a2.493,2.493,0,0,1,0-4.986H36.9a2.493,2.493,0,0,1,0,4.986" transform="translate(0 7.442)" fill="#fdfcfc"/>
      <path id="Path_453" data-name="Path 453" d="M26.494,8.389a3.651,3.651,0,0,1-2.535-3.433A4.882,4.882,0,0,0,19.078,0h-.207a4.774,4.774,0,0,0-4.887,4.741,3.7,3.7,0,0,1-2.519,3.644C8.3,9.456,5.992,10.437,5.992,13.962v2.992a1,1,0,0,0,1,1h23.95a1,1,0,0,0,1-1V13.962c0-3.52-2.286-4.5-5.443-5.573m29.6,43.387-5.72-5.72a1,1,0,0,0-1.412,0l-3.006,3.006a1,1,0,0,0,0,1.408l5.722,5.722a1,1,0,0,0,1.41,0l3.006-3.006a1,1,0,0,0,0-1.41" transform="translate(5.959 0.001)" fill="#fdfcfc"/>
    </g>
  </g>
</svg>
