<svg xmlns="http://www.w3.org/2000/svg" xmlns:xlink="http://www.w3.org/1999/xlink" width="64" height="68" viewBox="0 0 64 68">
  <defs>
    <clipPath id="clip-path">
      <rect id="Rectangle_270" data-name="Rectangle 270" width="64" height="68" transform="translate(0 -0.45)" fill="#fdfcfc"/>
    </clipPath>
  </defs>
  <g id="Group_613" data-name="Group 613" transform="translate(0 0.45)">
    <g id="Group_612" data-name="Group 612" clip-path="url(#clip-path)">
      <path id="Path_448" data-name="Path 448" d="M61.76,46.52H57.9V16.1c-.183.01-.363.027-.548.027H56.9a10.6,10.6,0,0,1-8.2-3.885,10.6,10.6,0,0,1-8.2,3.885h-.45a10.6,10.6,0,0,1-8.2-3.885,10.6,10.6,0,0,1-8.2,3.885h-.45a10.6,10.6,0,0,1-8.2-3.885,10.6,10.6,0,0,1-8.2,3.885h-.45c-.185,0-.365-.017-.548-.027V46.52H1.93A1.931,1.931,0,0,0,0,48.45V55.2a.965.965,0,0,0,.965.965h61.76a.965.965,0,0,0,.965-.965V48.45a1.931,1.931,0,0,0-1.93-1.93M30.88,43.625a.965.965,0,0,1-.965.965H12.545a.965.965,0,0,1-.965-.965v-19.3a.965.965,0,0,1,.965-.965h17.37a.965.965,0,0,1,.965.965Zm21.23,5.79a.965.965,0,0,1-.965.965H39.565a.965.965,0,0,1-.965-.965V24.325a.965.965,0,0,1,.965-.965h11.58a.965.965,0,0,1,.965.965Z" transform="translate(0 11.38)" fill="#fdfcfc"/>
      <path id="Path_449" data-name="Path 449" d="M46.057,46.8h-1.93a2.412,2.412,0,1,0,0,4.825h1.93a2.412,2.412,0,1,0,0-4.825m16.82-32.81v-4a3.854,3.854,0,0,0-.506-1.911L58.878,1.949A3.859,3.859,0,0,0,55.525,0H7.636A3.862,3.862,0,0,0,4.282,1.949L.791,8.081A3.856,3.856,0,0,0,.283,9.992v5.576h0v1.32a5.8,5.8,0,0,0,5.79,5.79h.45a5.8,5.8,0,0,0,5.79-5.79V13.51a2.412,2.412,0,0,1,4.825,0v3.377a5.8,5.8,0,0,0,5.79,5.79h.448a5.8,5.8,0,0,0,5.79-5.79V13.992h-.046V13.51a2.412,2.412,0,1,1,4.825,0v2.057h.046v1.32a5.8,5.8,0,0,0,5.79,5.79h.45a5.8,5.8,0,0,0,5.79-5.79V13.51a2.412,2.412,0,0,1,4.825,0v3.377a5.8,5.8,0,0,0,5.79,5.79h.45a5.8,5.8,0,0,0,5.79-5.79V13.992Z" transform="translate(0.263)" fill="#fdfcfc"/>
    </g>
  </g>
</svg>
