<svg xmlns="http://www.w3.org/2000/svg" xmlns:xlink="http://www.w3.org/1999/xlink" width="445.337" height="497.504" viewBox="0 0 445.337 497.504">
  <defs>
    <clipPath id="clip-path">
      <path id="Path_511" data-name="Path 511" d="M166.3,243.439a10.093,10.093,0,0,0,.149-2.542c-.047-1.194-.177-2.408-.306-3.587-.149-1.408-.308-2.863-.326-4.315,0-.356,0-.709.012-1.06a37.044,37.044,0,0,1-2.554,5.479,19.021,19.021,0,0,1-8,7.218c.938.114,1.883.259,2.843.44l1.664.316c1.579.3,3.251.619,4.977.93a6.158,6.158,0,0,0,1.537-2.88m-70.42-4.208c.754-.579,1.49-1.184,2.224-1.791a34.269,34.269,0,0,1,5.251-3.81,34.384,34.384,0,0,1,4.619-1.982c1.134-.423,2.306-.858,3.405-1.375a32.547,32.547,0,0,0,6.668-4.683c.5-.415,1-.836,1.517-1.251A41.917,41.917,0,0,1,106.09,226.9c-2.442.087-4.467-.025-6.427-.129a42.307,42.307,0,0,0-15.888,1.627c-.928.256-1.94.577-3,.915a47.394,47.394,0,0,1-8.559,2.137,37.568,37.568,0,0,1,8.932,5.589,74.913,74.913,0,0,0,7.912,5.529,15.436,15.436,0,0,0,6.82-3.333M93.094,224.87a57.066,57.066,0,0,0-6.29-1.629c-6.173-1.1-12.4-.109-17.677,1.01a27.413,27.413,0,0,1-9.27.378,34.393,34.393,0,0,0,9.882,5.813c.132.05.264.1.393.149,3.358-.007,7.031-1.174,10.342-2.231,1.072-.341,2.094-.664,3.034-.925a42.81,42.81,0,0,1,12.177-1.808c-.871-.241-1.736-.5-2.592-.756m29.391,23.439c3.383-.381,6.683-1.05,10.175-1.756q1.1-.228,2.209-.448a7.914,7.914,0,0,0,1.88-1.547,12.7,12.7,0,0,0,1.642-2.756c.254-.522.507-1.045.793-1.545,1.649-2.89,4.276-5.024,6.817-7.089s5.144-4.178,6.681-7c.478-.878,1.015-2.092,1.582-3.378.075-.169.152-.343.229-.512-.139.149-.279.3-.423.443-4.472,4.606-10.61,6.88-16.547,9.081a64.468,64.468,0,0,0-11.839,5.305,61.741,61.741,0,0,0-5.37,3.915,48.55,48.55,0,0,1-7.253,5,24.407,24.407,0,0,1-6.641,2.333,64.8,64.8,0,0,0,7.606.433,75.834,75.834,0,0,0,8.459-.48m69.348-1.241q-.91-5.406-1.736-10.869c-1.271-8.449-2.455-15.923-3.965-23.094a68.492,68.492,0,0,1-6.166,24.919l-.448.955a31.335,31.335,0,0,0-1.766,4.283l-.08.269a14.149,14.149,0,0,1-1.88,4.41c2.3.231,4.567.371,6.74.371a29.788,29.788,0,0,0,9.3-1.244m20.567-9.822c-3-2.967-4.693-6.984-6.33-10.877l-.52-1.236a127.038,127.038,0,0,0-6.86-13.727l-.124-.216c-.1-.167-.194-.333-.289-.5,1.264,8.519,2.823,17.9,3.83,22.9l1.813,9.068a42.561,42.561,0,0,0,8.479-5.417m16.911-15.082a28.164,28.164,0,0,1-14.065-8.807,39.98,39.98,0,0,0-5.027-4.482,49.072,49.072,0,0,1,5.435,13.2l.07.244a23.5,23.5,0,0,0,1.736,4.848,7.865,7.865,0,0,0,2.753,3.042,107.366,107.366,0,0,1,9.1-8.049m-188.918-15.3c4.524,2.607,8,6.29,11.677,10.188q.6.634,1.2,1.268a15.58,15.58,0,0,0,8.929-2.875,25.072,25.072,0,0,0,4.353-4.313,27.959,27.959,0,0,1,3.82-3.915c-2.241.405-4.373.766-6.1,1a60.171,60.171,0,0,1-7.9.5,70.83,70.83,0,0,1-15.983-1.855m136.329,36.383.08-.271a32,32,0,0,1,1.818-4.42l.445-.95a67.463,67.463,0,0,0,6.171-28.558c-.619-2.666-1.3-5.305-2.057-7.957a39.769,39.769,0,0,1-5.84,13.346c-1.219,1.793-2.6,3.507-3.945,5.163a65.182,65.182,0,0,0-4.589,6.166l.015.01a12,12,0,0,0-2,7.208c.015,1.4.172,2.835.323,4.218.127,1.194.261,2.428.311,3.654a11.2,11.2,0,0,1-.174,2.793,7.179,7.179,0,0,1-1.37,2.873c2.828.5,5.78.963,8.715,1.293a11.882,11.882,0,0,0,2.1-4.569m-14.294-6.35a36,36,0,0,0,2.492-5.357c.55-1.37,1.114-2.786,1.8-4.129a49.924,49.924,0,0,1,5.9-8.437c1.326-1.639,2.7-3.335,3.9-5.1a38.842,38.842,0,0,0,6.064-14.819c-.51-1.686-1.05-3.378-1.632-5.089-1.276,3.706-4.039,7.357-8.25,10.889-1.455,1.221-2.995,2.385-4.484,3.509a55.177,55.177,0,0,0-8.384,7.268c-.851.965-1.649,2.017-2.425,3.037a33.128,33.128,0,0,0-2.234,4.517c-.575,1.306-1.119,2.537-1.619,3.45-1.632,3-4.323,5.183-6.927,7.3-2.47,2.007-5.024,4.084-6.579,6.81-.276.483-.522.985-.766,1.487a13.537,13.537,0,0,1-1.781,2.97c-.144.164-.293.323-.448.475a61.5,61.5,0,0,1,16.144-1.254,18.027,18.027,0,0,0,9.228-7.531m57.042-5.977a9,9,0,0,1-2.883-3.281,24.08,24.08,0,0,1-1.823-5.052l-.065-.244c-1.38-4.982-3.736-12.115-8.233-16.622a53.968,53.968,0,0,1-10.28-12.784c.03,1.077.082,2.144.182,3.171.264,2.763.806,6.939,1.472,11.585a29.788,29.788,0,0,0,1.584,3l.127.216a126.778,126.778,0,0,1,6.912,13.836l.525,1.236c1.612,3.838,3.273,7.795,6.186,10.633,2.2-1.816,4.266-3.761,6.3-5.693M64.146,207.228c2.627-.348,6.233-1.017,9.723-1.666.4-.075.8-.149,1.206-.221a71.65,71.65,0,0,1-9.986-2.437c-2.291-.674-4.455-1.313-6.337-1.7a36.5,36.5,0,0,0-4.4-.52c-1.211-.092-2.46-.187-3.686-.383-4.711-.751-9.016-2.952-13.182-5.079A52.449,52.449,0,0,0,26.4,190.593a45.372,45.372,0,0,0-11.874-.885c5.265,6.872,11.784,10.063,18.642,13.418,1.109.545,2.236,1.094,3.363,1.666a68.861,68.861,0,0,0,19.828,2.935,58.919,58.919,0,0,0,7.787-.5M112.6,245.143a47.9,47.9,0,0,0,7.1-4.907,63.063,63.063,0,0,1,5.459-3.975,65.419,65.419,0,0,1,12.021-5.4c6.1-2.258,11.861-4.392,16.179-8.837a42.634,42.634,0,0,0,3.233-3.917c.01-.017.025-.035.037-.052.072-.1.144-.194.214-.279.714-.938,1.455-1.9,2.243-2.8a55.856,55.856,0,0,1,8.534-7.4c1.48-1.117,3.01-2.273,4.442-3.477,4.572-3.835,7.365-7.777,8.332-11.747-.44-1.286-.841-2.569-1.149-3.828a23.711,23.711,0,0,1-5.989,6.181,46.157,46.157,0,0,1-5.375,3.144,53.317,53.317,0,0,0-4.646,2.649c-1.46.97-2.85,2.112-4.193,3.213a52.32,52.32,0,0,1-4.313,3.3c-3.611,2.39-7.753,3.86-11.757,5.28a62.768,62.768,0,0,0-9.882,4.149c-1.545.871-3.044,1.9-4.494,2.888-1.318.9-2.676,1.826-4.084,2.649a51.077,51.077,0,0,0-5.83,4.38,33.34,33.34,0,0,1-6.875,4.82c-1.139.532-2.333.977-3.485,1.405a33.936,33.936,0,0,0-4.484,1.923,34.074,34.074,0,0,0-5.1,3.7c-.744.617-1.487,1.231-2.253,1.816a17.907,17.907,0,0,1-6.158,3.291c.127.072.251.147.378.219a38.842,38.842,0,0,0,12.043,4.263,23.536,23.536,0,0,0,9.854-2.649M233.355,219.4a38.521,38.521,0,0,1,9.959-4.139,47.537,47.537,0,0,1-13.777-6.124c-1.51-.925-3-1.885-4.492-2.848a84.5,84.5,0,0,0-12.078-6.88c-.637-.276-1.283-.535-1.928-.8-1.286-.52-2.619-1.052-3.88-1.711-4.494-2.348-7.763-5.763-11.006-9.705v3.641a52.908,52.908,0,0,0,10.969,14.142l.007.007q.81.739,1.647,1.44c.672.56,1.353,1.1,2.037,1.647a41.565,41.565,0,0,1,5.173,4.621,27.079,27.079,0,0,0,14.364,8.7c.97-.7,1.972-1.37,3-2M128.032,218.5c1.467-1,2.985-2.037,4.569-2.932a63.646,63.646,0,0,1,10.036-4.218c3.95-1.4,8.029-2.85,11.543-5.173a52.234,52.234,0,0,0,4.231-3.236,53.438,53.438,0,0,1,4.275-3.273,52.442,52.442,0,0,1,4.728-2.7,46.213,46.213,0,0,0,5.263-3.077,22.713,22.713,0,0,0,6.265-6.753c-.072-.373-.132-.741-.182-1.109a71.681,71.681,0,0,1-23.27,11.14c-2.288.592-4.644,1.052-6.917,1.5-2.442.475-4.967.97-7.4,1.627-2.017.545-4.044,1.216-6,1.865-2.532.843-5.154,1.714-7.81,2.323-8.123,1.863-16.14,1.214-23.9.589-6.544-.527-13.319-1.077-20.181-.129-2.5.346-5.925.98-9.23,1.594l-1.119.209c-2.316,1.167-3.927,3.044-5.626,5.032a26.031,26.031,0,0,1-4.532,4.479,16.558,16.558,0,0,1-8.586,3.027c1.308,1.356,2.656,2.7,4.086,3.982a24.3,24.3,0,0,0,10.648.007c5.375-1.139,11.727-2.149,18.057-1.012a57.782,57.782,0,0,1,6.4,1.654,38.959,38.959,0,0,0,9.136,1.957l0,.03c1.1.032,2.263.045,3.539,0a38.066,38.066,0,0,0,17.408-4.472c.177-.1.353-.2.527-.306l.017-.01,0,0c1.38-.811,2.721-1.726,4.022-2.617m130.275-5.84c6.7-.833,13.6-1.7,19.776-4.216-5.912-.134-11.513-2.268-15.525-4.044-1.9-.843-3.8-1.763-5.646-2.654a78.721,78.721,0,0,0-13.339-5.469,78.55,78.55,0,0,0-9.454-1.746c-.878-.127-1.758-.251-2.634-.383a143.626,143.626,0,0,1-35.413-10.185c.03.532.05,1.074.06,1.632,3.442,4.263,6.793,7.967,11.488,10.419,1.216.637,2.524,1.162,3.791,1.671.652.264,1.306.525,1.952.806a85.634,85.634,0,0,1,12.222,6.957c1.482.958,2.97,1.915,4.475,2.835,4.186,2.562,9.621,5.5,15.55,6.395,4.174-.953,8.471-1.49,12.7-2.017m22.081-5.268c5.325-2.773,9.777-8.118,14.09-13.294,4.853-5.83,9.869-11.854,16.331-14.587-13.182,1-23.987,6.992-31.486,11.128-2.271,1.256-4.238,2.34-5.954,3.131a38.3,38.3,0,0,1-16.348,3.415,72.326,72.326,0,0,1-9.7-.756,105.632,105.632,0,0,1,10.021,4.425c1.836.885,3.731,1.8,5.616,2.636,6.034,2.671,11.123,3.967,15.682,3.967.592,0,1.171-.022,1.746-.065M328.377,172.6c-6.648-1.982-13.52-4.034-21.014-4.328-11.394-.438-17.93,2.726-25.5,6.4-7.782,3.776-16.607,8.056-32.754,9.489-1.45.129-2.937.184-4.455.184a145.6,145.6,0,0,1-19.448-1.865c-10.106-1.405-20.549-2.86-29.394-1.149.075.485.134.992.182,1.515a142.264,142.264,0,0,0,35.637,10.317c.873.134,1.748.261,2.624.386,1.343.192,2.706.388,4.069.612,1.7.2,3.427.455,5.265.726,8.84,1.321,18.863,2.808,29.359-2.017,1.684-.776,3.634-1.853,5.89-3.1,8.22-4.534,20.447-11.267,35.343-11.4,5.263-1.375,11.061-1.264,16.7-1.154,5.459.112,10.747.211,15.227-1.035h-.147c-5.569,0-11.456-1.753-17.59-3.582M36.916,185.482a56.053,56.053,0,0,1-18.08-11.829c-.866-.806-1.778-1.711-2.726-2.649a51.409,51.409,0,0,0-8.1-7.011c.062.893.112,1.806.144,2.743.01.388.017.843.025,1.358.055,4.208.154,12.041,4.41,18.826q.593.944,1.214,1.811a48.316,48.316,0,0,1,12.829.9,53.42,53.42,0,0,1,11.3,4.713c4.1,2.094,8.332,4.256,12.884,4.982,1.189.192,2.418.286,3.606.378a36.311,36.311,0,0,1,4.527.535c1.923.39,4.106,1.035,6.42,1.714,4.95,1.46,10.561,3.109,14.694,2.495,1.117-.189,2.159-.353,3.082-.483,6.964-.955,13.792-.41,20.4.124,7.678.614,15.627,1.256,23.594-.57,2.609-.6,5.211-1.462,7.72-2.3,1.972-.657,4.009-1.333,6.056-1.885,2.467-.664,5.007-1.159,7.467-1.642,2.261-.443,4.6-.9,6.86-1.485a70.927,70.927,0,0,0,23.4-11.312c-.022-.343-.035-.682-.035-1.012-12.09,4.109-24.817,7.678-37.51,7.678a61.713,61.713,0,0,1-8.795-.612,115.966,115.966,0,0,1-13.744-3.136c-5.6-1.52-11.384-3.089-17.231-3.492a60.747,60.747,0,0,0-12.217.537l-.4.052c-3.385.463-6.748,1.092-10.061,1.716-4.248.8-8.641,1.622-13,2.077a81.568,81.568,0,0,1-8.526.47,52.9,52.9,0,0,1-20.218-3.691m305.054-31.565c-.977-.246-1.952-.492-2.927-.726a82.016,82.016,0,0,0-8.282-1.552c-.112-.01-.221-.022-.331-.04v0a52.962,52.962,0,0,0-17.826.515c-11.013,2.34-20.4,5.813-29.483,9.17-13.242,4.9-25.75,9.521-40.88,9.521h-.246c-12.973,0-36.393,2.865-46.486,9.041.045.167.087.341.127.515,9.009-1.749,19.53-.284,29.715,1.139,8.514,1.186,16.56,2.308,23.676,1.676,15.963-1.418,24.7-5.656,32.406-9.394,7.688-3.728,14.316-6.942,25.974-6.494,7.613.3,14.55,2.365,21.256,4.368,7.347,2.191,14.321,4.271,20.723,3.291a14.048,14.048,0,0,0,4.83-3.952c3.33-4.268,4.43-9.509,5.2-15.13a23.715,23.715,0,0,1-3.927.316c-4.529,0-9.078-1.142-13.518-2.258m-276.411,33.8c4.315-.45,8.688-1.271,12.916-2.064.945-.179,1.9-.358,2.855-.532-7.976-.535-16.57-3.452-26.039-8.822a50.161,50.161,0,0,0-10.133-4.084c-3.865-1.224-7.865-2.487-11.906-5.278a41.569,41.569,0,0,1-5.141-4.44c-.56-.537-1.117-1.077-1.681-1.6A59.128,59.128,0,0,0,5.423,148.358a94.157,94.157,0,0,1,2.5,14.426c3,1.684,6.116,4.766,8.892,7.514.938.928,1.846,1.826,2.7,2.629a55.057,55.057,0,0,0,17.774,11.63,51.935,51.935,0,0,0,19.855,3.619,80.814,80.814,0,0,0,8.414-.463m294-32.888c.1-.749.189-1.5.284-2.266.373-3,.756-6.091,1.428-9.081a20.593,20.593,0,0,1-5.218.918c-.6.055-1.2.107-1.788.179a53.677,53.677,0,0,0-16.679,4.987c-1.39.624-2.6,1.169-3.7,1.547q2.634.455,5.395,1.114c.975.234,1.952.48,2.937.729,4.372,1.1,8.857,2.229,13.277,2.229a22.3,22.3,0,0,0,4.064-.356m-305.215-3.97a40.236,40.236,0,0,1-17.062-4.713c-2.049-1.1-4.022-2.393-5.93-3.641a66.658,66.658,0,0,0-6.949-4.164c-.284-.142-.572-.276-.863-.408a25.181,25.181,0,0,1,3.592,4.964l.4.654c.565.928,1.037,1.8,1.492,2.639a22.741,22.741,0,0,0,3.512,5.221c.679.719,1.567,1.53,2.507,2.385,1.079.98,2.191,1.995,2.99,2.883a33.489,33.489,0,0,1,4.2,6.5c.475.876.948,1.751,1.45,2.607,1.7,2.89,4.012,5.027,8.511,7.865a35.923,35.923,0,0,1,3.6,1.781c12.575,7.126,23.549,9.874,33.54,8.394v.005a61.508,61.508,0,0,1,12.08-.5c5.944.413,11.777,2,17.42,3.527a114.55,114.55,0,0,0,13.625,3.112c15.48,2.224,31.341-2.074,46.215-7.148.03-.318.075-.629.129-.935-1.336.077-2.676.109-4.017.109-2.45,0-4.9-.1-7.3-.2-.925-.04-1.851-.08-2.773-.112-3.786-.137-7.641-.179-11.374-.219-6.661-.072-13.548-.149-20.3-.764-12.411-1.129-22.353-3.992-30.384-8.753-5.231-3.1-9.892-7.171-14.4-11.105-3.266-2.855-6.606-5.77-10.18-8.325-4.955-2.258-10.643-2.01-16.132-1.766-1.756.08-3.552.162-5.338.162-.754,0-1.507-.015-2.253-.05m282.833-2.2a54.673,54.673,0,0,1,16.968-5.069c.6-.07,1.209-.124,1.818-.179a17.133,17.133,0,0,0,5.6-1.122c.087-.323.172-.649.264-.972a51.9,51.9,0,0,1,4.278-10.125c-4.589,2.786-10.041,3.2-13.274,3.174a77.635,77.635,0,0,1-11.317-1.286c-2.176-.356-4.427-.726-6.648-.973a63.755,63.755,0,0,0-15.132.144c-.192.03-.383.062-.572.09l0-.012a64.214,64.214,0,0,0-24.211,8.494c-1.251.751-2.487,1.53-3.721,2.308-1.905,1.2-3.875,2.437-5.88,3.559-22.445,12.565-42.153,16.542-57.984,19.736-14.023,2.828-25.163,5.076-32.242,12.24.03.067.057.137.085.209,10.377-6.191,33.8-9.063,46.8-9.063.082,0,.162,0,.246,0,14.951,0,27.379-4.6,40.537-9.459,9.113-3.37,18.537-6.855,29.618-9.21a54.126,54.126,0,0,1,18.453-.49c.1.007.2.012.308.012,1.562,0,3.47-.861,6.017-2M42.815,166.288c-.51-.863-.987-1.751-1.467-2.634a32.418,32.418,0,0,0-4.069-6.313c-.761-.853-1.855-1.85-2.912-2.813-.958-.871-1.858-1.691-2.562-2.44a23.736,23.736,0,0,1-3.666-5.427c-.448-.826-.91-1.684-1.467-2.6l-.4-.659c-1.654-2.743-3.529-5.855-7.171-7.191-.91-.308-1.826-.6-2.728-.9-5.248-1.694-10.645-3.437-14.117-7.653C2,134.383,3.353,139.909,4.848,146c.1.4.2.806.3,1.216A60.056,60.056,0,0,1,27.1,160.16c.574.53,1.134,1.074,1.7,1.617a40.626,40.626,0,0,0,5.014,4.338c3.92,2.7,7.671,3.892,11.643,5.149.918.291,1.846.585,2.783.9a19.446,19.446,0,0,1-5.427-5.875M72.4,148.94c-2.1-1.129-4.335-2.114-6.494-3.069a53.266,53.266,0,0,1-10.834-5.81,41.257,41.257,0,0,1-7.812-8.213,32.415,32.415,0,0,0-12.018-8.031,26.08,26.08,0,0,0-8.166-1.624h-.067a45.346,45.346,0,0,0-9.946,1.356l-.868.2c-3.109.711-6.322,1.448-9.553,1.06a14.159,14.159,0,0,1-4.049-1.122c-.107.836-.189,1.652-.249,2.452,3.2,4.639,8.618,6.387,14.329,8.233.918.3,1.845.594,2.768.91h0a44.616,44.616,0,0,1,5.395,2.164,66.793,66.793,0,0,1,7.051,4.221c1.89,1.239,3.845,2.517,5.855,3.6a39.217,39.217,0,0,0,16.637,4.594c2.47.114,5.024,0,7.5-.109,4.343-.194,8.795-.388,12.981.619-.808-.5-1.632-.98-2.465-1.43m-52.47-29.481c-1.383-.311-2.771-.622-4.151-.95-1.878-.448-7.638-2.082-10.588-5.882-.43,1.38-.848,2.761-1.219,4.151a54.541,54.541,0,0,0-1.236,5.882,13.221,13.221,0,0,0,4.024,1.162c3.052.371,6.183-.348,9.213-1.042l.87-.2A46.708,46.708,0,0,1,27.014,121.2h.219c-2.435-.642-4.89-1.194-7.3-1.739m347.222,9.785c.873-1.559,1.776-3.1,2.669-4.621,3.684-6.285,7.2-12.289,8.272-18.8a42.188,42.188,0,0,0-14.744,7.9c-1.1.91-2.184,1.908-3.236,2.87-3.179,2.91-6.464,5.92-10.648,7.208a29.4,29.4,0,0,1-4.775.918c-1.112.147-2.263.3-3.365.545a69.324,69.324,0,0,0-9.277,3.119c-2.164.833-4.365,1.686-6.549,2.4a64.421,64.421,0,0,1,9.466.341c2.246.249,4.509.619,6.7.977a76.52,76.52,0,0,0,11.17,1.271c.2,0,.41.007.629.007,3.609,0,9.337-.677,13.69-4.126m-140,36.2c15.764-3.181,35.386-7.138,57.7-19.629,1.982-1.109,3.94-2.343,5.833-3.534,1.244-.781,2.485-1.562,3.743-2.316a65.1,65.1,0,0,1,25.064-8.69,64.3,64.3,0,0,0,12.2-3.828,70.346,70.346,0,0,1,9.419-3.164c1.142-.251,2.311-.408,3.447-.56a28.738,28.738,0,0,0,4.616-.878c3.97-1.226,7.171-4.159,10.267-6.994,1.057-.973,2.156-1.975,3.273-2.9a43.1,43.1,0,0,1,15.533-8.21,24,24,0,0,0,.152-3.888,23.244,23.244,0,0,0-.408-3.427c-4.845,5.467-12.7,6.693-17.192,6.922a69.289,69.289,0,0,1-8.447-.627c-11.386-1.2-30.436-3.221-39.029,3.689a44.179,44.179,0,0,1-5.735,5.616c-5.546,4.445-12.3,7.049-18.831,9.563-5.5,2.122-11.187,4.313-16.112,7.591a81.419,81.419,0,0,0-7.3,5.723,78.22,78.22,0,0,1-7.78,6.044,78.2,78.2,0,0,1-13.416,6.444l-1.351.547q-2.332.944-4.688,1.888c-16.169,6.489-32.881,13.195-44.111,26.044a6.875,6.875,0,0,1,.637.861c7.295-7.2,18.482-9.454,32.523-12.284m-184.2-39.532c-8.718-11.993-17.93-21.35-28.163-28.6a31.012,31.012,0,0,0-6.258-3.4,48.106,48.106,0,0,1-.1,5.248,57.952,57.952,0,0,1-2.87,12.272c2.554,3.952,8.558,5.656,10.444,6.1,1.375.328,2.761.637,4.141.95a115.463,115.463,0,0,1,13.038,3.48c.853.3,1.679.617,2.485.95a19.615,19.615,0,0,1,3,1.365v0a35.254,35.254,0,0,1,5.611,3.482c-.445-.619-.89-1.241-1.336-1.855m28.068-8.556c-.05-.042-.1-.087-.157-.129a46.645,46.645,0,0,0-8.554-5.151c-1.542-.783-3.134-1.594-4.654-2.477-.047-.027-.092-.057-.139-.085a57.078,57.078,0,0,0-10.19-4.082l-.383-.119a36.509,36.509,0,0,1-10.173-4.527A60.2,60.2,0,0,1,30,95.614c-1.236-1.037-2.4-2.017-3.587-2.927a73.468,73.468,0,0,0-6.143-4.231c-3.176-1.96-7.31-4.111-11.541-3.786A43.982,43.982,0,0,0,8.5,92.533c0,.1,0,.2.007.3a32.176,32.176,0,0,1,6.862,3.671c10.324,7.31,19.609,16.739,28.394,28.822.5.689,1,1.385,1.495,2.082.908,1.263,1.823,2.544,2.773,3.8.06.067.119.132.182.2l-.02.015a39.918,39.918,0,0,0,7.482,7.842,52.7,52.7,0,0,0,10.638,5.7c2.181.96,4.435,1.952,6.566,3.1a54.567,54.567,0,0,1,5.678,3.574l.035.015,0,.007c3.629,2.589,7.009,5.539,10.312,8.422,4.47,3.9,9.1,7.944,14.249,11,7.9,4.683,17.706,7.5,29.968,8.618,6.715.612,13.585.684,20.228.759,3.736.04,7.6.082,11.394.219.925.035,1.855.072,2.781.112a107.754,107.754,0,0,0,11.518.075,8.279,8.279,0,0,1,.468-1.191,13.148,13.148,0,0,1-2.589.244,31.73,31.73,0,0,1-7.865-1.308L137.914,170.4c-7.4-1.95-15.058-3.967-22.124-7.332-12.841-6.116-24.5-17.1-34.657-32.645q-.623-.944-1.229-1.9c-2.517-3.91-5.116-7.949-8.646-10.974l-.022.02c-.072-.072-.142-.144-.214-.219m289.73-14c4.475-.226,12.424-1.475,16.97-7.158-1.485-6.017-5.151-11.456-9.111-16.7-2.5,2.4-6.225,3.863-10.633,4.159a53.216,53.216,0,0,1-9.1-.435c-1.147-.122-2.293-.241-3.44-.333-3.189-.256-9.17-.3-13.321,2.316-.542.418-1.074.846-1.589,1.288-4.256,3.651-7.656,8.31-10.944,12.814-1.355,1.86-2.731,3.743-4.178,5.576,9.69-5.049,26.573-3.266,37.057-2.154,3.358.356,6.079.634,7.775.634.184,0,.356,0,.515-.01M188.021,174.516a91.347,91.347,0,0,0,3.211-44.322h0c0-.04-.012-.082-.02-.122-.127-.686-.261-1.373-.4-2.052A80.139,80.139,0,0,0,168.32,86.832a151.885,151.885,0,0,0-12.6-10.449q-1.354-1.045-2.716-2.1a26.146,26.146,0,0,1,3.435,6.131,61.443,61.443,0,0,1,2.6,11.247l.281,1.729c1.4,8.685,2.855,17.667,6.643,25.666l-.007,0c11.4,13.456,18.375,31.5,19.373,50.558a18.561,18.561,0,0,1-.7,5.611,10.59,10.59,0,0,1,3.4-.706M37.284,91.458c-6.022-6.536-12.247-13.289-19.933-17.823C13.118,75.936,9.967,78.6,8.9,83.661c4.435-.249,8.641,1.945,11.886,3.947a75.418,75.418,0,0,1,6.223,4.29c1.206.923,2.435,1.955,3.621,2.955A59.277,59.277,0,0,0,37.3,99.945a35.478,35.478,0,0,0,9.944,4.42l.38.114c1.448.445,3.206,1.04,4.935,1.7-5.643-4.268-10.521-9.558-15.271-14.719m123.592,79.994c-24.89-13.675-38.2-27.762-54.057-48.978C94.226,105.63,89.761,96.9,81.656,81.049c-1.749-3.425-3.671-7.178-5.877-11.416.231,1.811.343,3.641.453,5.447a42.618,42.618,0,0,0,1.433,10.125A41.768,41.768,0,0,0,80.8,92.1c.764,1.443,1.557,2.93,2.224,4.455,1.624,3.706,2.34,8.108,3.1,12.767a81.634,81.634,0,0,0,2.084,10.13c.8,1.965,1.564,3.932,2.323,5.882,1.346,3.457,2.736,7.029,4.248,10.466,5.837,13.274,12.874,21.887,21.5,26.337l-.025.05c6.969,3.313,14.563,5.313,21.9,7.248l31.137,8.208c3.736.985,7.616,1.826,10.931.818a9.113,9.113,0,0,1,2.619-2.363c.167-.1.336-.2.51-.3a16.324,16.324,0,0,0,.968-6.146c-1.117-21.363-9.822-41.424-23.882-55.044-2.823-2.738-6.128-5.529-9.623-8.481a157.107,157.107,0,0,1-15.182-14,382.426,382.426,0,0,0,38.495,60.924l.189.249c2.238,2.893,4.552,5.882,5.723,9.466,1.4,4.293.629,8.8-1.97,11.5a5.1,5.1,0,0,1-3.763,1.209c-4.848,0-11.916-3.186-13.443-4.027M357.912,82.663c2.507-.167,6.989-.915,10.093-3.962q-.925-1.213-1.86-2.415c-2.094-2.714-4.263-5.519-6.156-8.364-.915-1.375-1.783-2.8-2.622-4.238-1.865,4.519-5.636,8.655-11.476,12.6-1.818,1.229-3.723,2.385-5.566,3.507-1.49.9-3,1.821-4.479,2.786a30.087,30.087,0,0,1,9.67-.681c1.157.094,2.311.216,3.465.336a67.242,67.242,0,0,0,7.019.49c.642,0,1.278-.017,1.913-.06M51.59,92.18a102.456,102.456,0,0,1-4.547-12.359c-2.263-7.069-4.6-14.361-9.4-19.935a34.153,34.153,0,0,1-7.243,7A70.8,70.8,0,0,1,22.074,71.3c-1.288.607-2.527,1.194-3.694,1.793,7.569,4.6,13.7,11.25,19.634,17.692,6.076,6.6,12.361,13.421,20.144,17.955,1.492.871,3.074,1.671,4.6,2.45,1.6.816,3.236,1.647,4.813,2.577-6.156-6.489-12.118-13.351-15.983-21.587M237.74,149.9q2.354-.944,4.683-1.888l1.353-.547a77.428,77.428,0,0,0,13.244-6.357,77.086,77.086,0,0,0,7.68-5.967,81.035,81.035,0,0,1,7.4-5.793c5.014-3.34,10.752-5.551,16.3-7.688,6.462-2.492,13.14-5.066,18.57-9.417,4.676-3.741,8.3-8.715,11.812-13.525,3.32-4.549,6.755-9.257,11.1-12.983a74.248,74.248,0,0,1,9.924-6.8c1.836-1.114,3.731-2.266,5.527-3.48,5.994-4.049,9.73-8.275,11.4-12.891-.868-1.537-1.706-3.092-2.522-4.644-10.528,9.685-24.375,14.921-37.778,19.99-14.08,5.325-28.638,10.832-39.169,21.487a104.463,104.463,0,0,0-7.335,8.586c-1.226,1.545-2.492,3.141-3.786,4.676-3.562,4.221-7.491,7-12.043,10.227a116.834,116.834,0,0,0-10.329,7.947c-2.241,1.97-4.368,4.181-6.628,6.519-4.072,4.226-8.688,9.009-14.8,13.1-2.112,1.415-4.119,2.728-6.027,3.98-11.016,7.215-18.415,12.06-23.614,21.3a6.249,6.249,0,0,1,.584.435c11.384-13,28.188-19.746,44.456-26.27m-32.433.08c10.842-11.566,13.045-18.945,14.505-23.83.184-.632.366-1.229.547-1.8a55.144,55.144,0,0,1,5.42-12.339c1.758-4.925.254-11.7-2.149-15.866-.92-1.589-1.96-3.156-2.967-4.671a48.39,48.39,0,0,1-5.042-8.884c-.841-2.144-.92-4.862-1.012-8.009-.124-4.094-.261-8.733-2.1-13.515-.838-2.176-1.652-4.034-2.437-5.833a74.12,74.12,0,0,1-3.156-8.069,25.879,25.879,0,0,1-4.967,14.411,20.544,20.544,0,0,0-3.756,8.658c-.07,1.925-.3,3.843-.535,5.723-.117.938-.229,1.878-.323,2.816-.331,3.246-.423,6.313-.512,9.277a75.12,75.12,0,0,1-1.492,15.015c-.5,2.2-1.162,4.882-1.806,7.474-.515,2.062-1.017,4.091-1.425,5.828-.96,4.116-.542,9.926.112,13.65a92.225,92.225,0,0,1-3.156,44.516,8.637,8.637,0,0,1,1.022.142,72.74,72.74,0,0,1,15.229-24.7M93.875,136.206c-1.522-3.457-2.917-7.039-4.268-10.506-2.818-7.233-5.733-14.709-9.914-21.358-1.614-2.572-3.45-5.064-5.228-7.477A99.758,99.758,0,0,1,67.921,87.2c-3.084-5.432-4.659-11.725-6.186-17.811-2.117-8.464-4.121-16.478-9.824-22.35a15.231,15.231,0,0,0-5.678,3.114,49.514,49.514,0,0,0-6.549,7.218q-.7.869-1.408,1.741c5.014,5.738,7.4,13.187,9.713,20.405a102.87,102.87,0,0,0,4.5,12.242c4.509,9.6,11.961,17.368,19.2,24.862,3.753,3.141,6.444,7.325,9.048,11.372.405.634.816,1.264,1.224,1.89,7.82,11.973,16.53,21.2,25.979,27.556-5.36-4.974-10.009-12-14.068-21.231m-8.73-26.718c-.749-4.6-1.455-8.939-3.029-12.531-.652-1.487-1.433-2.96-2.186-4.385a42.1,42.1,0,0,1-3.213-7.066,43.423,43.423,0,0,1-1.48-10.367,50.038,50.038,0,0,0-.97-8.392q-.317-.608-.644-1.226c-5.9-11.2-11.755-17.46-17.4-18.614a9.379,9.379,0,0,0-3.156-.1C58.624,52.859,60.7,61.129,62.7,69.145c1.51,6.022,3.069,12.247,6.084,17.562a99.16,99.16,0,0,0,6.482,9.568c1.788,2.425,3.636,4.935,5.27,7.534a83.1,83.1,0,0,1,5.392,10.275c-.286-1.532-.537-3.074-.783-4.6m230.932-32.5c13.4-5.064,27.24-10.3,37.651-19.972-.286-.545-.57-1.089-.853-1.629-3.907-7.486-7.633-14.617-13.331-20.007-3.766,3.9-6.608,9.265-8.459,15.978-.241.876-.473,1.758-.706,2.641a72.642,72.642,0,0,1-2.445,8.049c-2.756,7.066-8.051,11.946-15.232,16.222q1.69-.645,3.375-1.281M158.336,93.545l-.281-1.729A60.605,60.605,0,0,0,155.5,80.748a28.669,28.669,0,0,0-7.452-10.431h0A73.4,73.4,0,0,1,137.9,60.308a103.516,103.516,0,0,1-9.3-14.54,111.443,111.443,0,0,0-8.464-13.456c-3.437,9.158-1.773,21.452,5,37.308q4.059,9.491,8.623,18.749c4.81,6.106,11.357,11.635,17.711,17.005,3.507,2.967,6.822,5.765,9.673,8.529q1.38,1.339,2.694,2.758c-2.955-7.372-4.248-15.361-5.5-23.116m168.67-31.861a73,73,0,0,0,2.413-7.939c.234-.888.463-1.771.706-2.654,1.893-6.86,4.813-12.366,8.685-16.386-.761-.679-1.559-1.333-2.4-1.95-5.014-3.694-11.1-5.8-17.085-7.723-1.943,4.079-3.313,8.419,3.007,20.325,3.241,6.1,4.733,12.578,4.218,17.406q.235-.53.45-1.079M163.594,41.02c-.231-.251-.463-.492-.7-.729-3.87-3.833-9.046-6.128-14.048-8.347-.863-.386-1.726-.769-2.582-1.159C140.784,28.291,134.8,25,131.5,19.486a25.809,25.809,0,0,0-8.031,6.79,23.381,23.381,0,0,0-2.913,4.974,107.091,107.091,0,0,1,8.9,14.03,102.921,102.921,0,0,0,9.21,14.4c4.994,6.161,11.429,11.118,17.652,15.911a153.766,153.766,0,0,1,12.687,10.521,80.747,80.747,0,0,1,21.534,36.614,28.385,28.385,0,0,1,.587-6.581c.408-1.741.91-3.773,1.425-5.84.647-2.6,1.308-5.26,1.8-7.454a55.486,55.486,0,0,0,1.186-8.36c-.291-8.519-6.5-14.282-12.5-19.855-4.206-3.907-8.18-7.6-10.145-12.123a42.58,42.58,0,0,1-2-6.367c-.256-1-.515-2-.806-2.99A30.316,30.316,0,0,0,163.671,41.1l-.037.017-.04-.1m105.555,66.354a105.918,105.918,0,0,1,7.4-8.67c7.758-7.847,17.612-12.919,27.857-17.164,8.785-4.243,15.692-8.551,19.927-14.784,2.564-4.31,1.38-12.914-2.878-20.93-6.484-12.21-5.034-16.973-3.084-21.1-.147-.047-.293-.095-.443-.144-2.4-.766-4.8-1.535-7.148-2.4-4.741-1.739-9.427-3.91-14-6.114-2.067,2.333-2.723,5.783-3.1,9.218-.224,1.995-.408,4.007-.592,6.024-.786,8.623-1.6,17.537-5.6,25.322a56.55,56.55,0,0,1-6.78,9.7c-3.584,4.425-6.969,8.6-8.25,14.2a75.294,75.294,0,0,0-1.022,10.7c-.067,1.45-.137,2.9-.236,4.353a42.682,42.682,0,0,1-2.848,12.789l.8-1M157.19,28.054a65.111,65.111,0,0,0-5.805-6.86l-5.992-6.459a46.913,46.913,0,0,0-13.016,4.276c3.166,5.26,8.976,8.444,14.3,10.869.853.39,1.711.771,2.572,1.152,4.7,2.087,9.546,4.236,13.409,7.678a55.112,55.112,0,0,0-5.464-10.655m38.639,59.969c.09-2.98.182-6.066.515-9.344.1-.948.211-1.893.328-2.835a37.443,37.443,0,0,0,.353-9.7c-.88-6.26-4.885-11.526-8.757-16.617-1.664-2.186-3.385-4.447-4.85-6.773a36.952,36.952,0,0,1-6.208-20.42l-.01-.251c-.092-3.186-.241-8.36-1.418-11.64-5.847,1.607-11.944,2.181-17.841,2.736-3.345.316-6.8.639-10.155,1.152-.413.062-.823.129-1.229.2l5.576,6.009a65.611,65.611,0,0,1,5.872,6.949c2.8,4.012,4.661,8.571,6.447,12.993a31.35,31.35,0,0,1,6.6,12.4c.3,1,.555,2.012.818,3.024a41.7,41.7,0,0,0,1.947,6.218c1.883,4.33,5.78,7.954,9.912,11.787,5,4.646,10.138,9.417,12.048,15.839.02-.572.037-1.142.055-1.721m84.11-22.315a56.423,56.423,0,0,0,6.668-9.524c3.9-7.613,4.708-16.433,5.487-24.962.187-2.022.368-4.042.592-6.041.393-3.5,1.065-7.039,3.171-9.556q-1.1-.53-2.176-1.055c-5.512-2.679-10.884-5.288-16.306-7.315-1.756,7.539.2,15.092,2.271,23.076,1.823,7.034,3.711,14.306,2.763,21.507-.7,5.362-2.95,10.377-5.124,15.227-.759,1.689-1.527,3.407-2.233,5.146a73.837,73.837,0,0,1,4.887-6.5M238.929,58.2a57.163,57.163,0,0,0,1.321-5.758,34.931,34.931,0,0,0,.1-7.8l-.109-1.328a36.175,36.175,0,0,1-.147-6.852,36.345,36.345,0,0,1,2.253-8.34,50.548,50.548,0,0,0,1.8-5.753c1.306-5.726.525-11.876-.286-17.41a65.881,65.881,0,0,1-7.056.654,60.354,60.354,0,0,1-10.051-.642c3.539,5.086,3.437,11,3.333,17.224l-.022,1.4a62.969,62.969,0,0,0,3.845,23.141,41.924,41.924,0,0,1,2.641,13.2,51.961,51.961,0,0,0,.7,6.3,52.02,52.02,0,0,1,1.679-8.021m-23.161,95.409c1.905-1.246,3.91-2.559,6.017-3.972,6.026-4.037,10.406-8.576,14.64-12.966,2.273-2.355,4.417-4.579,6.691-6.576a117.986,117.986,0,0,1,10.406-8.014c4.492-3.179,8.372-5.925,11.844-10.041,2.582-3.97,4.392-10.143,4.843-16.528.1-1.44.169-2.883.236-4.33a75.63,75.63,0,0,1,1.042-10.872l0-.01c.08-.408.164-.818.256-1.224a68.8,68.8,0,0,1,4.631-12.416,92.888,92.888,0,0,0,3.619-8.9c.706-5.927-7.275-19.221-13.692-29.909-3.074-5.119-5.977-9.954-7.489-13.254-1.945-4.236-2.664-7.914-2.179-11.195a87.736,87.736,0,0,0-9.6,1.082c-.724.109-1.455.219-2.186.326.818,5.619,1.617,11.871.271,17.769a51.855,51.855,0,0,1-1.838,5.867,35.463,35.463,0,0,0-2.2,8.111,35.55,35.55,0,0,0,.149,6.666l.109,1.333a35.383,35.383,0,0,1-.109,8.031,58.262,58.262,0,0,1-1.338,5.862c-1.186,4.479-2.408,9.113-1.348,13.277.194.729.388,1.44.582,2.141,2.082,7.571,3.587,13.04-1.945,23.034a80.868,80.868,0,0,1-6.81,10.3c-3.216,4.278-5.994,7.974-9.063,17.458-.182.56-.356,1.147-.545,1.771-1.485,4.974-3.726,12.491-14.734,24.225a71.8,71.8,0,0,0-14.98,24.275,7.515,7.515,0,0,1,.786.316c5.333-9.461,13.192-14.607,23.934-21.644m65.655-101.9c.92-7.011-.94-14.187-2.741-21.126-2.02-7.792-4.106-15.839-2.253-23.671A53.343,53.343,0,0,0,258.21,3.376c-.187,0-.376,0-.567,0-.5,3.129.182,6.673,2.074,10.807,1.49,3.251,4.38,8.061,7.439,13.155,5.875,9.787,12.424,20.691,13.665,27.538a29.931,29.931,0,0,0,.6-3.171m-80.309,9.33a25.094,25.094,0,0,0,4.823-14.088c.042-.8.015-2.119-.02-3.646a58.487,58.487,0,0,1,.271-9.409c2.4-14.983,1.614-24.3-2.751-31.63a35.523,35.523,0,0,0-3.95.378c-4.756.729-9.374,2.552-13.844,4.313-2.885,1.139-5.865,2.316-8.9,3.211,1.209,3.412,1.358,8.454,1.458,11.886l.007.249a35.616,35.616,0,0,0,6.054,19.92c1.443,2.288,3.149,4.529,4.8,6.7,3.95,5.191,8.034,10.561,8.951,17.08.03.216.055.43.08.644a26.487,26.487,0,0,1,3.024-5.609m28.461,45.568a80.231,80.231,0,0,0,6.738-10.185c5.33-9.638,3.947-14.67,1.855-22.288-.547-1.987-1.169-4.241-1.7-6.748a48.987,48.987,0,0,1-.913-7.394,40.518,40.518,0,0,0-2.582-12.926,63.86,63.86,0,0,1-3.907-23.494l.025-1.4c.114-6.651.211-12.426-3.721-17.4-1.788-.264-3.564-.565-5.325-.861a87.593,87.593,0,0,0-15.475-1.674c4.251,7.467,4.989,16.9,2.6,31.819a58.719,58.719,0,0,0-.256,9.228l0,.095a60.363,60.363,0,0,0,4.069,11.466c.791,1.806,1.609,3.676,2.455,5.875,1.9,4.94,2.039,9.668,2.164,13.841.092,3.054.167,5.693.948,7.673a47.413,47.413,0,0,0,4.942,8.7c1.015,1.527,2.064,3.109,3,4.726a23.368,23.368,0,0,1,2.9,13.923c.711-1.01,1.435-1.975,2.186-2.972M205.242,0a94.532,94.532,0,0,1,15.174,1.7c5.362.9,10.9,1.823,16.326,1.666A83.971,83.971,0,0,0,246.7,2.274,83.663,83.663,0,0,1,257.22,1.148C270.559.809,282.811,6.8,294.658,12.556c5.5,2.671,11.185,5.435,16.9,7.529,2.318.851,4.691,1.609,7.061,2.368,6.6,2.112,13.426,4.3,19.122,8.5,7.974,5.875,12.623,14.784,17.124,23.4a135.072,135.072,0,0,0,6.992,12.332c1.848,2.781,3.989,5.551,6.061,8.233,6.044,7.817,12.294,15.9,12.72,25.84.4,9.17-4.32,17.219-8.882,25-3.034,5.181-6.176,10.533-7.782,16.174a73.045,73.045,0,0,0-1.913,10.909c-.848,6.857-1.729,13.951-6.079,19.532-5.83,7.469-15.625,7.27-25.138,7.091-6.561-.129-13.354-.264-18.965,2.035-6.054,2.48-10.946,8.357-15.679,14.04-4.688,5.631-9.538,11.454-15.687,14.3-6.862,3.174-14.518,4.126-21.925,5.052-8.723,1.089-16.955,2.114-24.066,6.424-4.76,2.885-8.842,6.78-12.787,10.546-5.116,4.882-10.4,9.926-17.358,13.065,6.793,33.96,11.876,58.88,24.564,92.547,12.963,34.391,24.72,58.763,40.579,84.127l-1.9,1.186c-15.941-25.5-27.752-49.985-40.773-84.525-12.973-34.421-18.291-61.014-25.021-94.678l-1.91-9.538c-1.706-8.471-4.982-29.409-5.775-37.716-.226-2.4-.224-4.932-.224-7.382,0-4.149.01-8.068-1.144-9.976a4.548,4.548,0,0,0-2.9-2.037,7.989,7.989,0,0,0-5.835,1.079c-3.723,2.3-4.119,6.206-1.42,13.923,5.014,14.329,7.181,27.247,9.7,43.937,11.8,78.335,37.574,147.748,76.606,206.309l-1.86,1.241c-37.027-55.549-62.173-120.8-74.843-194.114-8.949,2.838-22.149.323-32.846-1.714l-1.661-.316c-8.976-1.7-16.918-.087-24.6,1.472-3.388.686-6.89,1.4-10.369,1.791a78.411,78.411,0,0,1-8.693.492c-7.487,0-16.741-1.142-24.452-5.556a75.865,75.865,0,0,1-9.814-6.668,35.266,35.266,0,0,0-10.827-6.265c-8.277-3.1-13.478-8.616-18.507-13.946-3.579-3.8-6.959-7.38-11.227-9.822-2.291-1.311-4.7-2.49-7.031-3.631-7.666-3.753-15.592-7.633-21.487-17.03-4.591-7.317-4.7-15.56-4.753-19.985-.007-.5-.012-.94-.027-1.313A91.989,91.989,0,0,0,2.674,146.53C1.321,141.026.018,135.708,0,129.443v-.231A50.623,50.623,0,0,1,1.814,116.2c.483-1.811,1.045-3.609,1.6-5.407A56.044,56.044,0,0,0,6.209,98.975a56.178,56.178,0,0,0,.05-6.375,44.955,44.955,0,0,1,.294-8.519c1.373-8.568,7.782-11.6,14.568-14.806a69.075,69.075,0,0,0,8.064-4.268c3.112-2.012,5.979-5.584,8.755-9.039a50.851,50.851,0,0,1,6.882-7.551c1.49-1.211,6-4.9,11.852-3.7C63,46.007,69.374,52.655,75.6,64.477c3.154,5.984,5.743,11.053,8.046,15.553,8.051,15.742,12.483,24.412,24.962,41.1,15.669,20.965,28.809,34.878,53.341,48.359,3.942,2.166,12.777,5.019,14.523,3.223,2.027-2.1,2.6-5.731,1.45-9.245-1.052-3.216-3.246-6.054-5.367-8.792l-.192-.249A384.642,384.642,0,0,1,123.078,70.5c-8.743-20.455-9.2-35.366-1.385-45.583,5.1-6.666,13.764-10.974,25.758-12.8,3.415-.517,6.9-.846,10.277-1.164,5.964-.56,12.128-1.142,17.923-2.793,3.1-.883,6.188-2.1,9.173-3.281,4.584-1.808,9.322-3.679,14.326-4.445A38.488,38.488,0,0,1,204.894,0Z" transform="translate(-0.001 -0.001)" fill="none"/>
    </clipPath>
    <linearGradient id="linear-gradient" x1="0.174" y1="0.111" x2="0.178" y2="0.111" gradientUnits="objectBoundingBox">
      <stop offset="0" stop-color="#957430"/>
      <stop offset="0.044" stop-color="#9f7f3c"/>
      <stop offset="0.191" stop-color="#bda162"/>
      <stop offset="0.327" stop-color="#d3ba7d"/>
      <stop offset="0.447" stop-color="#e0c98e"/>
      <stop offset="0.538" stop-color="#e5cf94"/>
      <stop offset="1" stop-color="#957430"/>
    </linearGradient>
  </defs>
  <g id="Group_637" data-name="Group 637" transform="translate(0 59.548) rotate(-9)" opacity="0.39">
    <g id="Group_636" data-name="Group 636" transform="translate(0 0)" clip-path="url(#clip-path)">
      <rect id="Rectangle_282" data-name="Rectangle 282" width="582.955" height="569.645" transform="matrix(-0.592, -0.806, 0.806, -0.592, 133.69, 625.259)" fill="url(#linear-gradient)"/>
    </g>
  </g>
</svg>
