<svg xmlns="http://www.w3.org/2000/svg" xmlns:xlink="http://www.w3.org/1999/xlink" width="17.005" height="17.019" viewBox="0 0 17.005 17.019">
  <defs>
    <clipPath id="clip-path">
      <rect id="Rectangle_251" data-name="Rectangle 251" width="17.005" height="17.019" transform="translate(0 0)" fill="#7086c4"/>
    </clipPath>
  </defs>
  <g id="Group_557" data-name="Group 557" transform="translate(624.832 -177.177)">
    <g id="Group_556" data-name="Group 556" transform="translate(-624.832 177.177)" clip-path="url(#clip-path)">
      <path id="Path_423" data-name="Path 423" d="M16.14,12.2,13.974,11.03c-.528-.284-.938-.078-1.393.546-1,1.373-1.481,1.644-2.706.961a13.207,13.207,0,0,1-2.986-2.421A13.219,13.219,0,0,1,4.467,7.13c-.684-1.224-.412-1.708.96-2.706.625-.454.831-.865.547-1.393L4.807.865C4.329-.057,3.652-.162,2.652.177A4.558,4.558,0,0,0,0,3.584a14.55,14.55,0,0,0,4.464,8.969,14.546,14.546,0,0,0,8.969,4.463,4.56,4.56,0,0,0,3.394-2.662c.339-1,.234-1.678-.688-2.155" transform="translate(0 0)" fill="#7086c4"/>
      <path id="Path_424" data-name="Path 424" d="M16.851,4.182a.827.827,0,0,0,.007,1.654h.023a1.832,1.832,0,0,1,1.836,1.851.827.827,0,0,0,.82.834h.007a.828.828,0,0,0,.827-.82,3.465,3.465,0,0,0-1.021-2.5,3.545,3.545,0,0,0-2.5-1.021m4.937-1.418A6.917,6.917,0,0,0,16.855.732a.827.827,0,0,0,0,1.654h.023a5.284,5.284,0,0,1,5.285,5.3.827.827,0,0,0,.824.83h0A.827.827,0,0,0,23.82,7.7a6.89,6.89,0,0,0-2.032-4.932" transform="translate(-7.193 -0.328)" fill="#7086c4"/>
    </g>
  </g>
</svg>
